<mxfile host="Electron" modified="2024-03-02T21:05:50.729Z" agent="Mozilla/5.0 (X11; Linux x86_64) AppleWebKit/537.36 (KHTML, like Gecko) draw.io/23.1.5 Chrome/120.0.6099.109 Electron/28.1.0 Safari/537.36" etag="3Y9oGfj0xxtyjVUvzE20" version="23.1.5" type="device">
  <diagram name="StrÃ¡nka-1" id="DdwTiPFy28gPovi4QSAf">
    <mxGraphModel dx="1195" dy="803" grid="1" gridSize="10" guides="1" tooltips="1" connect="1" arrows="1" fold="1" page="1" pageScale="1" pageWidth="827" pageHeight="1169" math="0" shadow="0">
      <root>
        <mxCell id="0" />
        <mxCell id="1" parent="0" />
        <mxCell id="56YLLE8MOA0f97V5fTOW-1" value="" style="shape=image;aspect=fixed;image=data:image/png,iVBORw0KGgoAAAANSUhEUgAAAysAAADvCAYAAADyxktjAAAACXBIWXMAAA7EAAAOxAGVKw4bAAAgAElEQVR4Xuydd1hUR9uH77O7dJAiltiwN8Teu4Jo0Kixx5pXY0liEiUajSZqosbEFms0mkRj7L1gF1CUJgIqJWrsihWlgwJnz/cHqMsKu4fmZ9733Ne1VyIzOzvPb2aeZ2bOnHOEajVrSRhFwK7lVP6abcHC92dwKlk/XUGhCLBsiOf6mdj8PJzvA5OQ0TH/R9BQZdgaVjXayYeTDvFAq5+uoKCgoKCgoPDfiWBssaKuPJRffx+Ls3iVXbMns/h0LMpcSUFBQUFBQUFBQUGhuDG6WFFQUFBQUFBQUFBQUPj/QKX/BwUFBQUFBQUFBQUFhbcBZbGioKCgoKCgoKCgoPBWoixWFBQUFBQUFBQUFBTeSpTFioKCgoKCgoKCgoLCW4myWFFQUFB4A0jVn5M8P4G4jfHErUsk1SXns02MpSv8D2LSmtkn9zHRWa2fovBWIWDtMpwlu3wJDQvlfOB+vm5prp9JQaF4ECQyRiWS0lwCQT/xv4PsxYopFTuNZ8m2Y4SEhXPe/zh7V42hiWXOzMWJYN+bVfun0FijptanW/ltQKk3p7mqBDXdP2bxbn8ubh9DNZ24oHbx5GhEFJej9T7hy+lp/SpfcWHqvogLURfYM646agDBhu5LgrkUsYfPa+lUVOPC5IMXCVvZEwcd4YTSA1l/bj1Dy75al5q0nsXpE9NornmVTxamdfh0RxhRO3JqZEi/fGFeny+27+W7tiVetb2qDIPXnedydCSXIs8T5refdTP6UsfqlZEqx1Z8smw3/qHnuRBwiD+nv0f17DhhVL+X5UdxKeoiEcHe7F4xAbeKJi/LL24E+6aMWboH/9ALXAw6xLop7uT8eTVOQ37jyJL3KFcs2wsGxr9cffLof0WBcX0KiwH7X1BY+wQt6R+kIf5thd0IO+zH2GDxt+5ANZBuk8mzSYnEb4wjbn0CSSPS0eqMXW2DZ6TMTiR+QzxxfySQNDId8Q3pI5QeyPrzUVyOiiQ6zB/vbUuZ1KMmOsPTKOp3OjBh5R7OBJ/jfOBRNs8ZgLP1iwJUlB+2gUhd3xtxnOlN8+u8Coe67ufs21oI32aIovKfBUJNzRGrOOR9mrCLkUSHBeB3dDezXG3eXPwtAoqrfWTHf6EUPb74jOrnptKlWRMadfiApaHPdDL8l6ITHy5HRRAddoZjG+cxopEtAjL9g0VN+s5cx9EzoUSGB3Hm8BYW9q+WFa//DZiJPB+dRMLv8TzdHE/8siSS3UQAtF2Seboj7vXPtgRS6+qUoc4kdWkccVPSkfI58LT100hakUByJy3p4xKIW5tEWi2d9GKPD28GFQg4dJrB+h/a83SjJ++1b03bXmP47o+TXE3Tz158mDVoStXoEP7WOtK4oURY+NM39FJANTXHrGLVsDJEn4lE/32XYsQSPBrWp67Li08D2k3zITYihPOpepmLBYn0mHvYtG6TNVE1b0r7Rik8iM35thtN3S505Br36rvT3j6fvV0WGmoMm8q70nXicjSMYf3ko6bakCn0f7SO5f6Jem2fQfAcV+rWb0HnD5dxs/E0Fo6um+XMVBUY+OMi+ml3ML57BzoMnENY7Sms9GxG1lxTjn7P8f6qObXrNaK5x2fs0Pbkx6keBZuU5hehBK5T5vOBtJnRbi1oM3wvFoPnsWBYFR1nLXJr+88ccZqIp6tdEU8i5Ix/4/oUW/+TpU9hkGN/EdinktDagTpKgyACGQJCpox0QSL9wxSeSWbYfGyH3QwzpG6pJHtkBUMECbGuiOBtic2ntth9a4GqfiopbkX1NiwZ+mSGMNu1AfXb9eGLDXdpPPUPlg9yktc+gi0eU+fh8XQlA9o3o8m7X+Hv5MlPI2tnf1/AoZQdMX8Op8ELH9ywG/PO6YpX/JiWr0iZYtkokOM/JaRiC4YiV/78GA/Xrsw8lcalX4fRqWsfZnn/u17KW1ztIzv+qxwo7ShyOSScpyJI6SmkZuik/1eTQfCcztRxrk+DDoOYGVSe8Qs/o4VZdrJB/6DGefR8vm34Dz8N6USzth4MmriUbaH3yPZwbz2Z76eQWkuNxTe22I+ypcRiC8z/zuqMqhPWOAyyx2GQHdZBAuqdJbL+/YEtltE6hVTNIAM1qhrppNvo/N0YapHnI9IRtpXA+rga0yV22H9phdmN7PRijw9vDhXqyvQb507sb1OYeyCSB8lpJMfeIDzkCgkSaOpNwMtnNh2sXn1JXX0suwOW0+vFbEVdmjZjF7D1qD8XLoZzznsz37qVknXGTFP/YzZ6eXForgdl2nzFnoNb+LJpFQYs3cP6Mc7yAl6hELmydgTuw2axIfxpLnXWIoriqw+V6D3IhXNb9nNHt71VFfhg7Wl8ZrSmaC/+ChBzgYjSbWlbSoVZw3Y0uR3KxXTdPBqcu3RCdXI5G6Pq07W9ff4ntEbqr3YayPT3H/Dr5st6ZRvTTyYaF/r3ewe/7ceIzStKap8Tf/0kBwJjeadSeTSAukp3+jeIZu28bYQ/SCD+TgCrlh5E49GXVpYgT79sJJG0J9F4nYhGXaYsDrrGGNGnwJg3p1vbh2xespvoOIlKXdyo/FykXtfOVNLt/Bl/s2tvDB0GulO6wCLngpHxn4M89ZHR/wqqn1x9Coos+wthX8l0khclEL8mibSKEumecTzdHEfc6lQyNDLSTTNJb6jCfLMZ6iQQW6YjZkBmqwxEFSAJmGyxwvKkBnWSgBBjimmUgLZCEQUjWfoASGSmPCTy4EK+mB9G3dEfkuMUTF76oMHcQsWt8FDuP5cQ46MJuZSAqYV5tsZqSjra8SjmPuk6friIrMvCQPxS1xvHJm9/AhZ2xa7uePaFhhNx/hz7P8+OTZpmeG4/ypmgUKJOf0/fbl+z5ehJAvyPMru9xavfyNN+ef6zdIfJrD94ipCzpzm8+nPaldbr/HmW/+9HsG3MqEXb8Q08S9hZf3x3zqdfleyprrH2QcCh1TiWbztKcMg5woN92LVwOI1s9EZwnvoZjv+qsr1YuO8ofqc2MLq6Ne8uDibifDgXfL6hte7udV7ly+0/hUCwcWbQrPUcOxPEOf9jbJ0z8OWVS1P3BZxY8wNLdvoQdPRnvhi/kD0+p/FZ1odKahBsmjN9/0l+G1AxS0/BhpbT9nN6db9c/K9ERtJdgvf7cs3WiUo5Lp/k5R/UlClfhriQY/jdSiQt5Sl3LwURcv0N7pQXEm0pLUKUKab3BYQ0AdVNDZqYbNslQMz+AGiz/1/PgWW2yIBQC8yviaQ31g+8RhCAzKz/AJCgQvViflPc8eENohKs69O46m1O+d3OdSWbGb2T7Xc7MMDV4WXwqOrmRpkz+/B9KgFqnAYvYGl/Uw5O7Uurpq1wGzWfXRFP9dsjVzIvrmLoe0NYHn6LTZ92p/ukfdw9u4h+3Xvy4ZqoXOtU5IiZWb8jqPIMFi+waDqYAXZH2eQbn3PnSUrm1vkgAqMfUdQbKoJwhYCQCrRrWZJ67Zrz0C+EBBMdR6Bxxr2TGj9vf3x8LtHQvX3+rwoYqr+qPH2/Hkzy2sUcjxde1ygf+uWFulprWtqF4xdqwEmpzLCv4U6/dlaEBUaSAZjVrIPTwygida6UpF+O5Ip5TepUzA5XxvR7iYCpfW3ec69NTEAwd3Q7nyF9CoH6nSo4if9wKUbEpMZQvu3zmIWjfyakfHWy43E2Wu4FBhBTr3WRHs80Nv5zkoc+cvpfAfWTr0/BkGV/Yex7Yor1l7bYjbHB4o6A6WJ7HAbbYz/OEpNMGemOIlpRjfoxUOk5qZ1UWM6xwKSUiDY3+1UiYlUJ9a2CjsScyNInBxKxfr5ElGhAIyedCualj/SUI2u2YjNsFv9pUZ26737Jp3UCWfTXRbKunZhhY22By/htBAUHEXBkI/P/0wzHojEPY/FLjFzNENc2tJ1+irS/V9CrSSNcGjal57Ls2JQZwuIBXWnnMY8gaw88ByazcEBnWrfvyZwAHV+Wl/1g3H+qq9KlZRw/D+5M8/ZDWZPakwXfeOCYYy5ooPx/NSrK9ZrAJyUPMrJTCxq36Mj7X/7CqbtZvdFo+yCRcP8ihxZ+hFurpjTtNhHvMh8zY1iNnBuhMvXTj//aB/uY1Ksr7TsM57erSRya2AKXho1o0HkOAboF5VW+3P5TUFSl6TF7JZ+U8WHye21p5jqabRajWDapNVmn2FQ41hHwGjWARbfaM7LZeT7vNYNz9XvSobQKKeksi6ftwG78HEZUN8W+/SS+73yZud/u5vZrDkGNuUMNugzrTvXbYVx4bbcLXvcPGZw/fhLBYyJT329AKVP9/G8/JsEm0DaN1I6ZaAtyvEqdSXpTCZOzGkxC1GS2zECrH1/yQlRjtskU7X8SSeooIjbIQLTVz6RDEceHN4lGsLHFVkggLiGPpYU2hgPbQhkzsAcVvDZwR6hKFzd7fJb4kwigeoeOXZ25urE3m8IfoAVSb54nXq8Yg6hrULfybS7ekLB2rY7m6knic+vnxY0gvL5jqovgSNfhXYnbNYLXjqNK8QSsnEyA3p+LBCGd8FPhjO4+hHcrJ+I39T4VhrxK1ji70dnEjxkRz4mN8eHyF+50dNjHrifZImoa8eXe03z2ook1Flgn7Xz5fcBA/VWU6f4Vo1QbGOX1EG07/XQdjOlnABOnqpS/f5Xr+roCYEKLb3z4+xuQMm9xeO5Yvtx5Dy0CFlaWqFKTSdHN/jyVFNESa8vs2hjRD8xwnX+Wy/MBKYPHIb/z1fqLPNfNkqc+hcTCEotnqaSpqzB4+mBS1n7InmsN6GxiiaUG0LkCJN6+xk3BjSrl1HDltUhRIIyOf8CYPkb7HxRcv3zoUxDk2F+s9hnDTEJKB0El8mzkc4Q9NpjdySTDRELKivU6SIgeqTyzMMXqdNEEIzn66COlJpIgWmGtu7Oapz4SydH72Xp5KZNnLWK4gzkRyycT/OBF/07Ca4o7AUIiT9NMKN1kMHMWLWPBs/6M2nJX1oaYQYoifr0klVPr1hKaoAWe599/5OU/pQR81v/JhQQRuMX+dYcY+1tHmlgc4OiLo0hyyv9XIpF05w5JlVrj0cqPDaduEH/rpn4mg4g3Azh8M/sfcRHsP3GVYXXKoebKqwW4HP0MxX9jyCnfUP8pIKpSrvRv+5CNAzZxIS6r/xz46zgfL+tKo7n+BAOZ1yOJSkqg2v1EbseGci9Vw6NEK2xLCHAf0iLXMPX3pqxf8AudS5TFf8YQjj7WHXnZ8Xm6RGZaLDfCDjPzyz+4LJJrf87pHySenpjBoKSBjBs3n0MT4ji5cQVL/jxDTCF9+5tCOGtFidTnpPVNIWGwCpND5lgeNEFlaNWrS7UMMjQmWF0VUD02QTM4nYwSppgl6GfMHVWoBSXGm/H8kySe1U0jqVMaJqutsTqrHwOKPj68STRSSjLJ2GJfQgWPcpsAScR5b+P451PoU2sTK0Q33CyP88PZ7FW/YIejnZYH9x7nP3AINrjP2oBny5KULa3Cdet+PEuWx/ZZNbzaRvLrmKnseZjvUosNdbW+DGtwgY0zbsjcZSwiBEgN8SN65lz6xv7BoFsiQ18maqjn7opT2ZIs8/FAiyk2thrSOziwe/eTrCyZkawdPYndj7K01DT1ZNvElwUYRCjpxuSPbdkyfid3RSiejQ8BMysr1KkppOS6SM0geE5XPtzpyGdbV+OijSNJApBITU5Ba2mNzilFMLPCSp3KjRQJSmFEP8i6J6MNn3ilYVKiAq1GzWPRmkxGDVpFdHEfjU9NJtW8DDX7TWWkagMjd9xB69Aai8w0UvV/W0wlNd0cS4vcQkDBMD7+wbA+hvtfrs2ZH/KjTwEwbn8x22eMZwKCqRbRLY1nghk23iooISGJwqujBQBIiG4pJL0nYD7XApMi2JQFOfq8jmDjgIMmgX/k7DipKtB/8VoGXptOzx5BJJVqwyfzl7Cu5EQ+WHqBZ4CUFkeWJxN5eO5PluzuzaZOLbHbupOnMn7CIIWJX/qI97hxR+4MJR9o43n8+FW50tPHPFE742AtQKoMAay6svDgDNplO+/Mm3/x0bDV/C2vOY1/31h6oZBI9P2OwWkDGDN2FUe+usPhP5axYlcE8bIaTMDWpT+fjelJ00pWqLQSatsKmITk34cWe/zPq/8Y09dAulCqDI6mNRj9py8jsrMjaDBXBWKTnV9KTSZFAq1WJCU5BQkbtJLuCYoMru5Yh9/IFfS4OZ8pgQl6fi87Pm9+KGsMve4fMngQvJFZwVtYWseDT2f+yF8VvqbXrNPZcf7tRxVphlWkGZZV0kkbnUJiGSts15ggyKh/Zot0xJISSaszEJCQrIEmWsx88rGgeK5C/VSFxtsai3LJJHTNwCLEDNXL3y+e+PAm0UiJkVy840TbNuVYffVO7p3tWQhb92WyvE9zfOI6oTn2HeEvz8QlEp+oolHpkqi4l/v380JK4tjM9/FtPROv3v70nhpBn7XLsJ8/mBWXi8UdFAILWg7pi8OJWRzR3VF9UyQHsn9/KNK941wVHV/9XVMP905WHJrehx+DngMqKgxcwVr3DpTcszs7yGeQ+PghD7IXfiZxabLbyaSJO25OzXjP6yJf6/z90Pl3WdmvH8uKpJ0k0lPT0Fpa8uJiSK6kR7Nu6Un2zRxPp+PT8Y6XSL96mVtlmuBcUiDiUVa7mNZypsazK+y8K0Ll7O/mpV8OtGQk3ubMrhPcGtKa+nYC0XneQFM0iPevct1kAjM8o1j6wWauiWBRqy6VY66/fpldY421aSp3cl/RFQhZ4/8luegTb7j/FVa+fOlTAIzab2R8FdY+o8SqUWvSSBmiwWK6OWoRJCcR8aEa9Qv7BYnM7ikke4DFXCvMbhsaRPnDqD6voaJ0R1dcYkNZmeMcZe4Idi3p2uQWu2ae5YkIPPBn5S8neX9WN+quvEBYLgtSMVNEyswomgljfuKXkMsR2Bxo0RZJpfRQ2VO6lAkvVqeCQylKivE8TZbZ+VJPMWdgn5f3SkiZKVlay8XY942lF5p07gVtZFbQFpY6D+D75auZlfQuE4/oPYglt/Yxb8PkpaMw+3kcQw7dIEVUUXHEn+zUfRKTLN5E/M+j/xjT10C6FPuIJ8/D2PD+aLbm4qxMIev+iewkKbftF8GG5p950vbKLo6V/g/Te/ny2Z6YAo4/Q/5BJO7vAyz8oyPvf96UyqrTROhnecsRbphisT+D54MyEVUmaIzVX51JejMwXVkCy8isP2ndk0lqkYHWV3exkQeChOgsQow66ylidiIZLlqER6pXC6VijA9vEhXiVXasC8Dp4wV83cOFCg72lKpYh1bNquhMHEX+2b2TO+3G8KWbyKEDl151VG0Mfr5XqTtsAn3qOmCqNsG6TA2cneQ++lCFY5WKxF+7Qbq6KjXeuc0/RTELKWKEUt0Y1jWJ3VuCyXVRKjjQ7vOFzOlbtXgeCiAl4LNgDBM36Vy6BjT1uuBq7sveEzHExsYSG/uIiwcOca2ROx1LymsBIM/6px+bRENnZ2rVzfq4fLKPp5FL8Wj4fhEtVLJIv32DB2WrUfXFE0RyRSLx9CpWXW2P50cNsADE617sinBm9NR+1HO0pkTFtnw6oQfioV0E6j6tJQ/99FFbladVX3eqP77CZd0zt3noU2iehXLw+CMyrgYS9FiDTcV2jB/fmYdHjnNDr6LqStWpLN7k+j1DFuQTWeP/Ffr6yO5/BdUvH/oUCCP2F7t9xkjXYBqsgjsaTOIkpDIZpA1IRxVoglpLViAakEzyuwIW860wfQSSuYRkJiHTARvGiD6vEDCxKU+jXlNY5lmTwOV/Eq67SZyHPlLqXe4kVqVdpypYqgCzcnR4tzkWt65xTwuonWjj0YqaZW2xMLfFqeUIJvR1JOhYUNHsusqMX+lPYkku35jmFcwAFabmpvmTNw/7ZSGUoNPwIdSzUYFZBboPfxfbQB/O6QYiQ+VLz4h/+JAH2Z+HT5Kz7weSibHvG0svFCrK1W9FbUdzVIgkxlznQYoaM9Ocy5I828fEDnurZO7fekyqqMaqshujemc/SVIXQ/ohI/4bw0j5BjGmr4F07SNvdgdXY4RnT+o6mAAqzByq0rxRJQyG2pcIlOw0lR+6/MO8abP5ZtouSk2Yy/Dq+b05Iw//oCpFgw4tqV3ODgu1CjPH+gzs3YTM6/9kjf+3HUFLZuNMxFJZx3Ilu0yed8yEGDUqOfWvlkGGqQlmZ1Wo4rM+Gj9T1LUyyDB078lLJMRmaST/lEByt0zSh6aSHmeO9UaTrP5f3PHhDaICLQ8OTOM/8y5QZfQKvE6ewnvncjzdnHJ0Zu3DQ2y7WJ1GyYfwyjFLEPln/SS+OmzOkBWHORcaiPemHxjiYi1TCzWVq5XlzrUYpFLVqJJ4jetv+Kyi2mUsf+7dx57p7bGuO5Lf9+5j70+9ePVqEjU1+g+hSeRWdvyTxwxJZYVTgxa0qOmYf2dUYExw6dIJC3/vHGdotTGn8L7ZkG4dHWW2AYWqv3H9jCNeCyIouQntGht5lo32Hnt+3kJ6v0l8UFUN2rtsnTKJPSaD+fXoGc7s+IbGV+bz6eIQ5D9ZOvuejKhIIk5vZ2ajK8yf+AvndSdbhdDHMMmcWejJojvtWHEiCP/t03A+P5uv/tI/aqCiQutWvHMxEEPPIMg/csZ/Xvrko/8VWD+5+hQUQ/a/CfuMIWCy0QrLhxkkr4wn/sdUxCuWWB/K/hW7dNJ6ZaItnU7Kgnji/sr+rE/mmUPOkgqGIX2y0TTjW+8LXDi1jZ/6O+D3zQgme2Xd//GSvPR5FsziCWuI77GSEwGBnPVez1ir/XzxzR4eaAFUlO3wOSt3HudsiC87ZnXg6e/jmbpP3pET48iLXxlnf2P2PhNGbPYjNPg0R77tgI0AaqeBLD9wnDOHp9PKwoWJO0/iu38R/SvqOb+87EeG/8wI5K9DpZi8zZeQ01v52GY/k+ceJscGv4HyDaOm5vBfOHjiCN91sKD22A34HN3FzM5yNxuLG4ESLh/w07YTnD17lmCvWdQOncfiYzkfcJNX+5Dsy68rb9NppQ+hQd5sm1KLs15Br98PYlA/GfHfGHmUL7v/FBTtQ/Z+PZ71aT2Yv/s0YecCOLnlB4Y1dHj9KlQuqMv15PtvG+E/ay5HHmt5FrWWaesFPpo3jgZyH1Zm0D+YUqHTJ/y86RCBYeGEHFxEj2dbmDhbr3+/xWibppE8J4H4jXHEL0kh/bkZ1r+ZGr8qAmS2TEe6YIJGd877yATT+5mkN5Hh4SQVputssB1jh81hDaYrSmDzmxmaFzfxFnt8eHMI1WrWkiEpIJSk9/KdePgOZOyuR7ldLFRQKARqao7bwh91NtB7glfxH6/5t2FaD8/tSyi19H2m+f673oGgoKCgoKCgUHxoGz5HvG+GyUP9lP8O5CyuAQG7FmMYVes0m44qCxWF4kDkyoYf2P3OKD5t+bbs6r0taKgy0BP364tZekpZqCgoKCgoKCi8QnX+v3ehAjKurKgrD+XX38fiLF5l1+zJLD4dW0SX3xUUFBQUFBQUFBQUFPLG6GJFQUFBQUFBQUFBQUHh/wOZx8AUFBQUFBQUFBQUFBTeLMpiRUFBQUFBQUFBQUHhrURZrCgoKCgoKCgoKCgovJUoixUFBQUFBQUFBQUFhbcSZbGioKCgUOwIWLsMZ8kuX0LDQjkfuJ+vW+q+ANVYusL/JCatmX1yHxOdX39VocJbgNI+CgpvhOzFiikVO41nybZjhISFc97/OHtXjaGJZc7MxYlg35tV+6fQWKOm1qdb+W1AqTf3rg1VCWq6f8zi3f5c3D6Ganp+R/1OByas3MOZ4HOcDzzK5jkDcLZ+M7UzdV/EhagL7BlXPevNt4IN3ZcEcyliD5/X0qmoxoXJBy8StrInDjpVE0oPZP259QzVeZ28SetZnD4xjeaaV/lkYVqHT3eEEbVDTyMj+snGvD5fbN/Ld21L6LwZvAyD153ncnQklyLPE+a3n3Uz+lLH6pWRKsdWfLJsN/6h57kQcIg/p79H9ex5nlH9XpYfxaWoi0QEe7N7xQTcKpq8LL+4EeybMmbpHvxDL3Ax6BDrpriT8+fVOA35jSNL3qNcsWwvGBj/cvXJo/8VBcb1KSwG7H9BYe0TStHji8+ofm4qXZo1oVGHD1ga+kxWukH7BRvq9JrEyu3HCQk/zwX/g6z7uhtOb0gfofRA1p+P4nJUJNFh/nhvW8qkHjXRGZ6FxIR32nzE/I0H8Q8Jyx7fHlQ21c9XvKjrfs6+rYXwbYYoKv9ZINTUHLGKQ96nCbsYSXRYAH5HdzPL9d/1rqviah+1iydHI6K4HK33CV9OT2v93P+D6MSHy1ERRIed4djGeYxoZPuv6j8Kbz8qEHDoNIP1P7Tn6UZP3mvfmra9xvDdHye5mqafvfgwa9CUqtEh/K11pHFDibDwp2/o5Xdqao5ZxaphZYg+E0myfrJgi8fUeXg8XcmA9s1o8u5X+Dt58tPI2lmT32JHIj3mHjat22RNVM2b0r5RCg9ic77tRlO3Cx25xr367rS3Lw43oaHGsKm8K10nLkfDGNFPNmqqDZlC/0frWO6fqNf2GQTPcaVu/RZ0/nAZNxtPY+Houln6qyow8MdF9NPuYHz3DnQYOIew2lNY6dmMrLmmHP2e4/1Vc2rXa0Rzj8/Yoe3Jj1M9CjYpzS9CCVynzOcDaTOj3VrQZvheLAbPY8GwKjr9S+TW9p854jQRT1e7Ig4Ccsa/cX2Krf/J0qcwyLG/COxTOVDaUeRySDhPRZDSU0jNkJEuw34Lq1TOLBmDe8tmtBm6ithOs/imZ1Ft9sjQJzOE2a4NqN+uD19suEvjqX+wfJBT0bSPYEONppV5vHMGg93b0m7oUu60msXs/hXe6LEA0/IVKVMsPyjHf0pIxRYMRa78+TEerl2ZeSqNS78Oo1PXPszy/ne9fLa42keMWIJHw/rUdXnxaUC7aT7ERjh3PngAACAASURBVIRwPvVFruJsn38DGQTP6Uwd5/o06DCImUHlGb/wM1qY6edTUCg4KtSV6TfOndjfpjD3QCQPktNIjr1BeMgVEiTQ1JuAl89sOli9+pK6+lh2Byyn14vZiro0bcYuYOtRfy5cDOec92a+dSslK5ho6n/MRi8vDs31oEybr9hzcAtfNq3CgKV7WD/GuWgCnkFErqwdgfuwWWwIf5pLnTWYW6i4FR7K/ecSYnw0IZcSMLUwzzkZUFXgg7Wn8ZnRmqI9vCFAzAUiSrelbSkVZg3b0eR2KBfTdfNocO7SCdXJ5WyMqk/X9vb5n6gYqb/aaSDT33/Ar5sv65VtTD+ZaFzo3+8d/LYfIzYvx699Tvz1kxwIjOWdSuXRAOoq3enfIJq187YR/iCB+DsBrFp6EI1HX1pZgjz9spFE0p5E43UiGnWZsjjoGmNEnwJj3pxubR+yecluouMkKnVxo/JzkXpdO1NJt/Nn/M2uvTF0GOhO6QKLnAtGxn8O8tRHRv8rqH5y9SkosuwvuH2qsr1YuO8ofqc2MLq6Ne8uDibifDgXfL6htYnxdKP2S0mEbf6FLQE3iHueQfKNE5yIgHfKOxZ8LOoiSx8AicyUh0QeXMgX88OoO/pDcpxiy0Mfo0hP8Vv6DQv2hnIrLpXE6z54nU2mUrXyRRcbDMQvdb1xbPL2J2BhV+zqjmdfaDgR58+x//Ps2KRphuf2o5wJCiXq9Pf07fY1W46eJMD/KLPbW7z6jTztl+c/S3eYzPqDpwg5e5rDqz+nXWk96/Ms/9+PYNuYUYu24xt4lrCz/vjunE+/Kln2G20fBBxajWP5tqMEh5wjPNiHXQuH08hGbwTnqZ8WURRffahE70EunNuynzs6+10Fbh+5/acQCDbODJq1nmNngjjnf4ytcwa+PBli6r6AE2t+YMlOH4KO/swX4xeyx+c0Psv6UEkNgk1zpu8/yW8DKmbpKdjQctp+Tq/ul4v/lchIukvwfl+u2TpRqeguryoooBKs69O46m1O+d1G1E8FMqN3sv1uBwa4OmQHaDVV3dwoc2Yfvk8lQI3T4AUs7W/Kwal9adW0FW6j5rMr4qmsN91nXlzF0PeGsDz8Fps+7U73Sfu4e3YR/br35MM1UbnWqcgRM7N+R1C9HiykpxxZsxWbYbP4T4vq1H33Sz6tE8iivy6SmSNfMrfOBxEY/QjdDdOiQBCuEBBSgXYtS1KvXXMe+oWQYKK7re2Meyc1ft7++PhcoqF7+/xfFTBUf1V5+n49mOS1izkeL7yukSH9ZKKu1pqWduH4hRq4nKcyw76GO/3aWREWGEkGYFazDk4Po4jUuVKSfjmSK+Y1qVMxO1wZ0+8lAqb2tXnPvTYxAcHc0e18hvQpBOp3quAk/sOlGBGTGkP5ts9jFo7+mZDy1cmOx9louRcYQEy91kV6PNPY+M9JHvrI6X8F1E++PgVDlv2FsE/7YB+TenWlfYfh/HY1iUMTW+DSsBENOs8hIMN4ev7sV2PnMpgBje/j43c9b3vygSx9ciAR6+dLRIkGNHLSqWAe+uQbdUXqO1ty/fJNmfUxhuH4JUauZohrG9pOP0Xa3yvo1aQRLg2b0nNZdmzKDGHxgK6085hHkLUHngOTWTigM63b92ROgI4vM2S/Mf+prkqXlnH8PLgzzdsPZU1qTxZ844Gjbh80VP6/GhXlek3gk5IHGdmpBY1bdOT9L3/h1N2s1jfaPkgk3L/IoYUf4daqKU27TcS7zMfMGFYj52JXpn4WTQczwO4om3zjX115Kkz7yO0/BUVVmh6zV/JJGR8mv9eWZq6j2WYximWTWpN1ik2FYx0Br1EDWHSrPSObnefzXjM4V78nHUqrkJLOsnjaDuzGz2FEdVPs20/i+86Xmfvtbm6/NgDVmDvUoMuw7lS/HcaF13a7FBQKjkawscVWSCAuIY+lhTaGA9tCGTOwBxW8NnBHqEoXN3t8lviTCKB6h45dnbm6sTebwh+gBVJvniderxiDqGtQt/JtLt6QsHatjubqSeL/P/q5ILy+Y4pEcvR+tl5eyuRZixjuYE7E8skEP9AbqVI8ASsnE5Dzr0WDkE74qXBGdx/Cu5UT8Zt6nwpDXiVrnN3obOLHjIjnxMb4cPkLdzo67GPXk2wRNY34cu9pPnvRxBoLrJN2vvw+YKD+Ksp0/4pRqg2M8nqItp1+ug656icPE6eqlL9/les6x/hfYUKLb3z4+xuQMm9xeO5Yvtx5Dy0CFlaWqFKTSdHN/jyVFNESa8vs2hjRD8xwnX+Wy/MBKYPHIb/z1fqLPNfNkqc+hcTCEotnqaSpqzB4+mBS1n7InmsN6GxiiaUG0LkCJN6+xk3BjSrl1HDltUhRIIyOf8CYPkb7HxRcv3zoUxDk2F+s9hlDlv2mdPzuMD91s8NauM+xJZNZfT5H7y0wcvTRR0pNJEG0wlp3Z7VI9DGjxtDpfGi1hwleD2VthhmlKOLXS1I5tW4toQla4Hn+/Ude/lNKwGf9n1xIEIFb7F93iLG/daSJxQGOvjiKJKf8fyUSSXfukFSpNR6t/Nhw6gbxt27qZzKIeDOAwzez/xEXwf4TVxlWpxxqrrxa8MrRT3Ck6/CuxO0age7tZkXXPgb6TwFRlXKlf9uHbBywiQtxWfU78NdxPl7WlUZz/QkGMq9HEpWUQLX7idyODeVeqoZHiVbYlhDgPqRFrmHq701Zv+AXOpcoi/+MIRx9rDv6suPzdInMtFhuhB1m5pd/cLloQpSCAgAaKSWZZGyxL6GCR7n1Lok4720c/3wKfWptYoXohpvlcX44m73qF+xwtNPy4N7j/AcPwQb3WRvwbFmSsqVVuG7dj2fJ8tg+q4ZX20h+HTOVPQ/zXWrRoqpA/8VrGXhtOj17BJFUqg2fzF/CupIT+WDpBXKdWxc1AqSG+BE9cy59Y/9g0C2RoS8TNdRzd8WpbEmW+XigxRQbWw3pHRzYvftJVpbMSNaOnsTuR1laapp6sm3iywIMIpR0Y/LHtmwZv5O7IhTPfa0CZlZWqFNTSMl1kZpB8JyufLjTkc+2rsZFG0eSBCCRmpyC1tIanVOKYGaFlTqVGykSlMKIfpB1T0YbPvFKw6REBVqNmseiNZmMGrSK6ByXz4qB1GRSzctQs99URqo2MHLHHbQOrbHITCNV/7fFVFLTzbG0yHVKUyCMj38wrI/h/pdrc+aH/OhTAIzbX8z2GUOW/ekELv6A3r9aYFuxEQM8V7LOZjxDf402uEssB+P6vI5g44CDJoF/inTHyZzq/X9izYeZ/DJmKWdz7E4UgsLEL33Ee9y4U1jFc0Ebz+PHr8qVnj7midoZB2sBUmVobNWVhQdn0C7beWfe/IuPhq3mb3nNafz7xtILhUSi73cMThvAmLGrOPLVHQ7/sYwVuyKIl9VgArYu/flsTE+aVrJCpZVQ21bAJCT/PlRdrS/DGlxg44wbOa/qFbZ9XpBX/zGmr4F0oVQZHE1rMPpPX0ZkZ0fQYK4KxCY7v5SaTIoEWq1ISnIKEjZoJd0TFBlc3bEOv5Er6HFzPlMCE/T8XnZ83pzHBoKB+slKV1AANFJiJBfvONG2TTlWX72Te2d7FsLWfZks79Mcn7hOaI59R/iLHU0pkfhEFY1Kl0TFvdy/nxdSEsdmvo9v65l49fan99QI+qxdhv38wax4S5blgl1Luja5xa6ZZ3kiAg/8WfnLSd6f1Y26Ky8QVgQTJlkkB7J/fyjSveNcFR1f/V1TD/dOVhya3ocfg54DKioMXMFa9w6U3LObrOVKBomPH/Ige+FnEpcmu51Mmrjj5tSM97wu8rXO3w+df5eV/fqxrEjaSSI9NQ2tpSUvLobkSno065aeZN/M8XQ6Ph3veIn0q5e5VaYJziUFIh5luVDTWs7UeHaFnXdFqJz93bz0y4GWjMTbnNl1gltDWlPfTiA6zxtoigbx/lWum0xghmcUSz/YzDURLGrVpXLM9dcvs2ussTZN5U7uK7oCIWv8vyQXfeIN97/CypcvfQqAUfuNjK/C2mcMufY/T3jE/QS4f+82S7d25eTgdjj9Fs3VQmpkVJ/XUFG6oysusaGszHGOshAIVjiP+Jlfhjxn9dgv2PJPEW4R5Sd+Cbkcgc2BFm0RmZwDlT2lS5lA9hRZcChFSTGep8kyO1/qKeYM7PPyXgkpMyUrlsnF2PeNpReadO4FbWRW0BaWOg/g++WrmZX0LhOP6D2IJbf2MW/D5KWjMPt5HEMO3SBFVFFxxJ/srKuf0RgWtBzSF4cTsziie0UVCt8+L8mj/xjT10C6FPuIJ8/D2PD+aLbm4qxMAbTwQkgpt+0XwYbmn3nS9soujpX+D9N7+fLZnhj5xzAN1E9WuoICoEK8yo51ATh9vICve7hQwcGeUhXr0KpZFZ2Jo8g/u3dyp90YvnQTOXTg0quOqo3Bz/cqdYdNoE9dB0zVJliXqYGzk9xHH6pwrFKR+Gs3SFdXpcY7t/mnKGYhRYSUepc7iVVp16kKlirArBwd3m2Oxa1r3NONbIID7T5fyJy+VYvuxk9dpAR8Foxh4iadS9eApl4XXM192XsihtjYWGJjH3HxwCGuNXKnY0l5LQDkWf/0Y5No6OxMrbpZH5dP9vE0cikeDd8vooVKFum3b/CgbDWqGnyCiETi6VWsutoez48aYAGI173YFeHM6Kn9qOdoTYmKbfl0Qg/EQ7sIfPm0FvLUTx+1VXla9XWn+uMrXNY9c5uHPoXmWSgHjz8i42ogQY812FRsx/jxnXl45Dg39CqqrlSdyuJNrt8zZEE+kTX+X6Gvj+z+V1D98qFPgTBif7HbZwxj9msq09KtMdXL2mFpZo5d5bZ82KcBSVcuoX9StUAY0ecVAiY25WnUawrLPGsSuPxPwnU3iQuqj2BHs09Xs2ZwCivHf8O+uyosLS2xtDBDnUv/zDcy41f6k1iSyzemeQUzQIWpuanM+JZNQe0HEErQafgQ6tmowKwC3Ye/i22gD+d0b2kwVL70jPiHD3mQ/Xn4JDnn/ZbGMPZ9Y+mFQkW5+q2o7WiOCpHEmOs8SFFjZppzWZJn+5jYYW+VzP1bj0kV1VhVdmNU7+wnSepiSD9AKNWNYV2T2L0lmNfuJCls+xjDmL4G0rWPvNkdXI0Rnj2p62ACqDBzqErzRpUwGGpfIlCy01R+6PIP86bN5ptpuyg1YS7Dq+fj2egG6icrXUEBUIGWBwem8Z95F6gyegVeJ0/hvXM5nm5OOTqz9uEhtl2sTqPkQ3jlmCWI/LN+El8dNmfIisOcCw3Ee9MPDHGxlunM1VSuVpY712KQSlWjSuI1rhfyHHp+UbuM5c+9+9gzvT3WdUfy+9597P2pF2VVwLNgFk9YQ3yPlZwICOSs93rGWu3ni2/28EB3saKywqlBC1rUdMy/MyowJrh06YSFv3eOM7TamFN432xIt46OMtuAQtXfoH4yEa8FEZTchHaNjTzLRnuPPT9vIb3fJD6oqgbtXbZOmcQek8H8evQMZ3Z8Q+Mr8/l0cQi6axXDZN+TERVJxOntzGx0hfkTf+G87mSrEPoYJpkzCz1ZdKcdK04E4b99Gs7nZ/PVX3pHDVBRoXUr3rkYiKFnEOQfOeM/L33y0f8KrJ9cfQqKIfvfhH3GMGK/YEm1bl/yy25vzoUG47thMo2uLePTn/zyeAxufjGkTzaaZnzrfYELp7bxU38H/L4ZwWSvrPs/XlJAfQTHrnz6UWMcK7gze08A4edCsj5Bv/JBkTyrVl78yjj7G7P3mTBisx+hwac58m0HbARQOw1k+YHjnDk8nVYWLkzceRLf/YvoX1GvbgbsN+o/MwL561ApJm/zJeT0Vj622c/kuYfJscFvoHzDqKk5/BcOnjjCdx0sqD12Az5HdzGzs9zNxuJGoITLB/y07QRnz54l2GsWtUPnsfiYzg3u5N0+JPvy68rbdFrpQ2iQN9um1OKsV9Dr94MY1E9Njf5DaBK5lR3/5OJ1CtE+svtPQdE+ZO/X41mf1oP5u08Tdi6Ak1t+YFhDh9evQuWCulxPvv+2Ef6z5nLksZZnUWuZtl7go3njaFA0DytTUJCFUK1mrVyu++WCUJLey3fi4TuQsbse5XaxUEGhEKipOW4Lf9TZQO8JXsV+vOZfh2k9PLcvodTS95nm++96B4KCgoKCgoKCQkGRs7gGBOxajGFUrdNsOqosVBSKA5ErG35g9zuj+LTl27Kr97agocpAT9yvL2bpKWWhoqCgoKCgoPC/g9ErK+rKQ/n197E4i1fZNXsyi0/HGr4JUUFBQUFBQUFBQUFBoQgwulhRUFBQUFBQUFBQUFD4/0DmMTAFBQUFBQUFBQUFBYU3i7JYUVBQUFBQUFBQUFB4K1EWKwoKCgoKCgoKCgoKbyXKYkVBQUFBQUFBQUFB4a1EWawovN2oazJ6/XH8fH04ExRG5MYRFNX7shQUFBTeakxaM/vkPiY6v/6qQgUFBYX/FbKnfaZU7DSeJduOERIWznn/4+xdNYYmljkzFyeCfW9W7Z9CY42aWp9u5bcBpd7cuzZUJajp/jGLd/tzcfsYqunFBTOnrnz16z7OBJ8l9MwBfpvkRgWTnHmKC1P3RVyIusCecdWz3nwr2NB9STCXIvbweS2dimpcmHzwImEre+KgI5xQeiDrz61nqM7r5E1az+L0iWk017zKVxgE+6aMWboH/9ALXAw6xLop7lQsiD7m9fli+16+a1viVduLV1j7YRfad3Kl54IQdF8q/9+Ccf3UOA35jSNL3qNcsSzUDIx/VRkGrzvP5egoLkVdJCLYm90rJuCm38B59L+iwLg+hcWA/S8oRvsKS5mMZ8xKSuBIfByn4xP4JTWdSvqZCkXe+gilB7L+fBSXoyKJDvPHe9tSJvWoiVURaiRImYxITuBI/FPOxCewIi2d8vqZihl13c/Zt/X12FAkGIk/xYuamiNWccj7NGEXI4kOC8Dv6G5muf673nVVfO2jovywDURGR3H5xSfiONObFk3wbJEazx/PxNd2jdulxLP6ufa1v//beBP+QeF/AxUIOHSawfof2vN0oyfvtW9N215j+O6Pk1xN089efJg1aErV6BD+1jrSuKFEWPjTN/TyOzU1x6xi1bAyRJ+JJFk/WePMuJ+n4RL+Hb3atKBV35+40nwWP/+nRtbiodiRSI+5h03rNlkTVfOmtG+UwoPYnG+70dTtQkeuca++O+3t36AnEErgOmU+H0ibGe3WgjbD92IxeB4LhlXJpz5qqg2ZQv9H61jun/iG2v4tQJZ+Ire2/8wRp4l4utoV8SRCzvh/jvdXzaldrxHNPT5jh7YnP071yDFpL7b+J0ufwiDH/mK0r9BoqZYp8sTMitG2dnjYWBCTmcK0IpvoyNAnM4TZrg2o364PX2y4S+Opf7B8kFMRtY9E+9Rk+gjmfGFrTzcbU8yfpfB9LhO84sS0fEXKFMsPGok/AEhIxeYQRa78+TEerl2ZeSqNS78Oo1PXPszy/ne9fLb42kfAoZQdMX8Op4FLfeq61Kduw27MO5epn7FAPFapsNVKen1Zwk6SeCII/x3vtCtW/6Dwv4IKdWX6jXMn9rcpzD0QyYPkNJJjbxAecoUECTT1JuDlM5sOVq++pK4+lt0By+n1YraiLk2bsQvYetSfCxfDOee9mW/dSskKJpr6H7PRy4tDcz0o0+Yr9hzcwpdNqzBg6R7Wj3F+Ax1a5MraEbgPm8WG8Kev1VlduR0dSgewbn0YTzIl0h+eYdnPxyjp8S61dSunqsAHa0/jM6M15jp/LjwCxFwgonRb2pZSYdawHU1uh3IxXTePBucunVCdXM7GqPp0bW+f/wltQetv3pxubR+yecluouMkKnVxo/JzkXpdO1MpP42ncaF/v3fw236M2HxGSU3Z9ny2dCcnAwIJ8TvAumk9qWEJUIJeK4NY20dfDzUuE/dxeFIDZO+PFVQfY8jVL+Nvdu2NocNAd0rrd9LCYGT850ASSXsSjdeJaNRlyuLwsh4y+l9B9ZOrT0GRZX8x2ldoVARYWLHcVMMdQSBJbcpRjUAFUSwa3ylLHwCJzJSHRB5cyBfzw6g7+kNa6gpRUH2kDNwyVOwyN+OyABXSM6gkQO2MDCrq5y0oBuKXut44Nnn7E7CwK3Z1x7MvNJyI8+fY/3l2bNI0w3P7Uc4EhRJ1+nv6dvuaLUdPEuB/lNntLV79Rp72G44/LyjdYTLrD54i5OxpDq/+nHal9Vo3z/L//Qi2jRm1aDu+gWcJO+uP78759KuSZb/R9kHAodU4lm87SnDIOcKDfdi1cDiNbPRGcJ76qSnpaMejmPukiyJi9kd3ESHYODNo1nqOnQninP8xts4ZiLO1vPIfqwRKSFrUaOmTHMfh1AxM0eIgqXises3LFAhD9TN1X8CJNT+wZKcPQUd/5ovxC9njcxqfZX2opAbBpjnT95/ktwEVs/QUbGg5bT+nV/fLp/814h8UFIygEqzr07jqbU753UbUTwUyo3ey/W4HBrg6ZAdoNVXd3ChzZh++TyVAjdPgBSztb8rBqX1p1bQVbqPmsyviqaxdgcyLqxj63hCWh99i06fd6T5pH3fPLqJf9558uCYq1zoVOWJm1u8IqteDhUpAEDPJ1DEmIzGBtHJOVNCd6UrJ3DofRGD0oyI/qiQIVwgIqUC7liWp1645D/1CSDDR3dZ2xr2TGj9vf3x8LtHQvX3+j6oUsP7qd6rgJP7DpRgRkxpD+bbPYxaO/pmQ8tXJjieyUFdrTUu7cPxC83k5T12TkUvm0SlmMQM6tKJlj6mccvJk1VdtKSGkcPNGLOUqV0Cleodukxfy45B6mGCBU+VS3L52S37/KqA+xpCvn5Z7gQHE1GtdpMczjY3/nAiY2tfmPffaxAQEc+fFF+T0vwLqJ1+fgiHL/mK0r+gRcRYlbqrVeduTD2TpkwOJWD9fIko0oJGTTgMVUB+VVqSCoOYfNZiIz5mULrDC2oJwUSyio26G45cYuZohrm1oO/0UaX+voFeTRrg0bErPZdmxKTOExQO60s5jHkHWHngOTGbhgM60bt+TOQE6vsyQ/YbiD4C6Kl1axvHz4M40bz+UNak9WfCNB466fdBQ+f9qVJTrNYFPSh5kZKcWNG7Rkfe//IVTd7N6o9H2QSLh/kUOLfwIt1ZNadptIt5lPmbGML2TEXnqZ4aNtQUu47cRFBxEwJGNzP9PMxxfNJSqND1mr+STMj5Mfq8tzVxHs81iFMsmtcZat5g8yn+mUpGq1WIvZeKiVZEkZlJFknDUCjzOtTPkE6P1U+FYR8Br1AAW3WrPyGbn+bzXDM7V70mH0iqkpLMsnrYDu/FzGFHdFPv2k/i+82Xmfrub2/Icgh55+AcFBSOoBBtbbIUE4hLyWFpoYziwLZQG/XpQQUWW43Szx2e/P4kAqnfo2NWZqxsXsCn8Aanpz4i/eZ7oh/noyeoa1K18m0s3JKxrVEdz9Qrx+ru6bwJBeG3HVLwZTHBKGwb1qYm1CkwdGzFiXA8qajRodJ2JFE/AyslM33lVZlDPB0I64afCqd5xCO+2SsTP7z66UU3j7EZnEz9ORDwn9pQPlxu40zHHGZ1GfLn3NMEB/gQH+HNmSS7n7gtafwtLLJ6lkqauwuDpg0lZ+yN7riWRZmKJpezLFmDiVJXy969y/Zl+imHU1bvQvfI5/lgVwKMMEBOj2PiLF9quvWhpruXWtduUcqqIpWNb+nVrSptB7tQ1K0+VCk+5fiNZ/lGHgupjjHzoJ96+xk2hIlXKFZ2TNzr+ATDDdf5ZLkdHEnFmK59Y7+OH9Rd5np1qtP9BwfXLhz4FQY79xWpfkSJR7VkqgyUz1pmqZG0WGUOOPvpIqYkkiFZY6x5ML6A+AmCOQJok0i/1GWnmVhxUq0hDwlL24DVAUcSvl6Ryat1aQhO0ID7nue5JITn25xJ/AJAS8Fn/JxcSRKRnt9i/7hDxLTrSROfCjazy/5VIJN25Q1Kl1ni0qoyNkEH8rZs8zseKTLwZwOGQOyRlghgXwf4TVylbqZzeYiUv/ZLwmuKOa+eOtGjZkfe/8cH+w2UsGFgBFaAq5Ur/tg/ZuGATF+IykZ7d4sBfxxE7d6WR7n11eZQvCiqeSBKOYiZV1WYcI5P6khZ7ScXjXDtD/pBTv8zrkUQlJXD/fiK3z4VyLzWWR4lW2JbIqkBa5Bqm/q5l5IJfWD6jCf4z53D0sXx/oE+u/kFBwQgaKSWZZGyxL6GCR7m5OYk4720c/3wKfWptYoXohpvlcX44m71rJNjhaKflwb3H+Q+Ogg3uszbg2bIkZUurcN26H8+S5bF9Vg2vtpH8OmYqex7mu9SiJT2cZRNXMvXrxRz61JrMh+HsOBjIvZppPMqHwywUAqSG+BE9cy59Y/9g0C2RoS8TNdRzd8WpbEmW+XigxRQbWw3pHRzYvftJVpbMSNaOnsTuR1laapp6sm3iywIKR2oyqeZlqNlvKiNVGxi54w5ah9ZYZKaRKvtYr4CZlRXq1BRS8jkBUdnZY5v0kEc6m5jaR/d5aFKHkjaQfPMmT8tVpnbLmlQ++xe7q7rRukYUlcvcJeBWbv39DZMf/cRUUtPNsbQoOidvfPxD1j0rbfjEKw2TEhVoNWoei9ZkMmrQKqIzDfe/fDbn6+RHnwJg3P5itq/IkKjyPIXFz+F3awtCi6iLGNfndQQbBxw0CfxTBDtOEgJpaKmensoQzBlvpkKrlbAA0orCxsLEL33Ee9y4UwxBQRvPY53ZufT0MU/UzjhYC5AqQ2Orriw8OIN2pln/zLz5Fx8NW83f8prT+PeNpRcKiUTf7xicNoAxY1dx5Ks7HP5jGSt2RRAvq8EEbF3689mYnjStZIVKK6G2rYBJiPzOI6XFkRVJRR6e+5Mlu3uzqVNL7LbuJKFUGRxNazD6T19GvPiCoMFcFYiNKRi7zKVVqYmVneXhcAAAIABJREFUMqiRqSVJY06INp1+GVpKCCqevKiiMX0NpAvG6gdIqcmkSKDViqQkpyBhg1YSdPZDM7i6Yx1+I1fQ4+Z8pgQm5PR7Bn4/N17zD/n8vsL/JhopMZKLd5xo26Ycq6/eyd1hPwth675Mlvdpjk9cJzTHviP8xT0TUiLxiSoalS6Jinu5fz8vpCSOzXwf39Yz8ertT++pEfRZuwz7+YNZcflt6akSqZd3MePDXdn/1lDrky0MvfArfxfBZEk2yYHs3x+KdO84V0XHV3/X1MO9kxWHpvfhx6DngIoKA1ew1r0DJffsznayGSQ+fsiD7IWfSVxa/trJAOL9q1w3mcAMzyiWfrCZayJY1KpL5Zjr+bhMLJGemobW0hJL+TEEAG3sY56WcKaMlcCLQ/SqMuX+j73zDovi7PrwPbtLBwuCJRbsBUTF3hALYoJGjT3WvDGWRJMo0WjUqIkmJraIJZpoojH2XhAroCBdilJib6ixoBQpUnb3+wPUBdndYQFf/d65r2uvGJ7Z2Tm/5zznPG1mqJLzhMSnapS3rpFg0xa3Do35J3ABAckfMPndZhin3ODGUxGJvowpln4KSyyNM0go7ohOB6La/wtU5KTe5uzeU9wa0ZFmFQTik3X7X3HvPypMsfQxAL3262lfJbWvdFDT+FkaS7MENlpasldezEakA736vIKMyl174JgYwZoX+wQNRyWTc0udwfRMBeusTLkJmCpzqSWXk1D4YEMoTv4SNDtwRaFCVXKTX0VWkcq2RpA/Jy9Y21JJmcyTNJHOl3GGhUMHvLhXQp2bzuPiXKe+7+srLzHZ3AvZwvyQ7Xg6DOH7VeuY//Q9ph4r9CCWourHtBPTPcdi8stERnjfIF0po+aYv9hjX/hA8Shzlahzc1AC6sSHPM6KZPMH49hhSDAQBB6hom2umn9MZVySybHLyiVHpsjP3ejXV0e5vuszBlDBcyHVRU2/CFa0/dyDzpf3cqLyf5jdz4/P9999uUKk4/dfpYj4UKzvS/yvIkN5ld0bg7D7dAnf9HGkhnVFbGs2oUObOhodRyVX9u0hwXk8X7kq8T588aWjqu7i73cV+1FTGGBvjbHcCMsqDXCwE/voQxk2dWqSfO0G2fK6NKh2myul0QspTeQKFALIzKrQYsBcFg97xsYNZwo+uUWwxvmLpSwcWLd0bmwtjDoF3yXjmbr1coFlZEXTnvQw9ePAqbskJiaSmPiQC4e9uebkRtdK4moAMPz6n0Vw5ORDcq4GE/JIgVVNZyZP7s6DYye5UYxqzL59g/tV61HXpHCJbpQ3T3D4SkvGfuZMVWOQWdkz8tM+GPseIfQZqFNvcjPLng72dwmLSCIu7AK1unTCJuEaxVpYMVQffRRDP3mt+tRW3uT6veJcuB5Etf+XyC2q02GgG/UfXeZSilq8/xmqXzH0MQg99pe5fSVGjVPmU1ZkCWywtOCoDMzVaszV6tK5Dj36vETAyKo6Tv1msNKjIcGr/iJKc1bZUH0EBSeMZeTIjIiQqbFU5TDuWQ6PjIy5VfhYQxCZv7IfJ5JWvSVta5gAMoxNjUXmt3wMtR9AKEe30SNoaiUDkxr0Hv0e5YN9Oad5e5+u86ufkfzgAffzPw8ep1GseTZ939dXXiJkvNOsA41tTJGhJPXude6nyzExLjgs0Vo/RhWoaJHGv7cekaGUY1HblbH97V/VSJt+cjs6uXegYdXymJmWx679GKYMtCHkRAhP1aB66MO+0HqM8eiLvbURIMPEui5tnWpRIJVpOz8y7suUtFTKiZFDllxBkjKXqoLwcrCiT18d5aKvTysClbrN5MeeV1g0awFzZu3FdsoPjK6vscdNx++/REd8EPV9if91ZKDi/uFZ/GfReeqMW43X6TP47FmFh6tdAWdWPfBm54X6OKV541Wgl6DkyqZpfH3UlBGrj3IuIhifrT8ywtFSZDCXU7teVRKu3UVtW486qde4XuBJV2WP3HECfx04yP7ZXbC0/5g/DhzkwM/9eP5qEqOO33I6IpKoMztZ+F4O2ydN5o/LhdZ3ZRbYNW9Hu4Y2rwbCMsMIx57dMAv0IULjXg/V3TP43GzBu11tRNYBJbj+NM4u9WBZgjOrT4UQuGsWDtEL+PrvG8XaO628FkJIWiucWxZ6RIiiOZP+9sLvzFl85nbErMVUDp315dT+WXQ1B5Q32PzVDE5WmcTfp4IIO/4Lbg9/ZdJPZ0hVA8pbXL1Tg7qqCMIeqnh2PpyrNeqiuHXj1add6cJgffQhVj8ZNTp2oNqFYIr7DALdiGn/+fesxMUSE7CLeU6XWTz1V6JziuF/BusnVh9D0WX/67CvZAiqbD55lou1KptZqUmcTn7+SWOgzmUCsejSJx9FG771Oc/5Mzv5ebA1/nPGMN3rfsFVCoP1EQgxs+RXeTY/pyRxLDWDxnJz5pnKda+CiEZc/soJ28CCg0aM2eZPRGgAx751wUoAud1QVh0+ydmjs+lg5sjUPafxO7SMwYXfXKvDfn35h5xg/va2ZfpOP8IDdvCp1SGm/3CUx5rxS8f5dSOn4ehfOXLqGN+5mNF4wmZ8j+9lXnexk41ljUA5xw/5eecpwsLCCPWaT+OIRSw/kVxgDUBb/ZDmx29rbtNtjS8RIT7snNGIMK+QF/fbvUCrfjKqunzBmj0nCQv3Y/d8F578MZmZBx/k+Z/qAQe+mcymzD4s3hdA5LkgTm//kVEtrAuu8ug4/0NBjYVcQbwAapmC84IKmUxGMW/fLBqx16cF+Tt9+f5bJwLn/8CxRyqexa1n1iaBTxZNpLnmPVO6EBMfJCT0INRr2Ehcl02oRP9Ve3D3G8qEvQ+LWiyUkCgBchpO3M6fTTbTf4rXG7K95g3CuCkeu1Zg6/kBs/zerncgSEhISEhISEgYipjBNSBQod14xjYKYOtxaaAiURYoubz5R/ZVG8uk9m/KrN6bgoI6Qz1wu74czzPSQEVCQkJCQkLifwe9Kyvy2iP57Y8JOCivsnfBdJYHJErLdxISEhISEhISEhISZY7ewYqEhISEhISEhISEhMR/A5HbwCQkJCQkJCQkJCQkJF4v0mBFQkJCQkJCQkJCQuKNRBqsSEhISEhISEhISEi8kUiDFQkJCQkJCQkJCQmJNxJpsCIhISHxGlDXzyJtcQpJW5JJ2phKhmPBZ5voK5f4H8SoIwtOH2SqQ/Fe9SjxuhGwdBzNir1+RERGEB18iG/aF3rBsYREWSGoyRmbSnpbNf9f3/uQP1gxpma3yazYeYLwyCiiA09yYO14WpkXPLgsESr2Z+2hGbRUyGk0aQcbhti+Js2NqNbpExZvOUJgeCTng7z5a7Y7tY1fHiFUbM14z/0ERpznQog3G2e4UdPoZXlZYuy2jPNx59k/sX7em28FK3qvCOVizH6+aKSRwBSOTD9ygcg1fbHWEE6oPJRN5zYx8sXrkMGo43wCTs2ireLlcaIwbsKk3ZHE7R5PPc3cKStHQ7dPWb4vkAu7CpUVB9NmfLnrAN91LqfxZvAqDN8YzaX4WC7GRhPpf4iNcwfSxOKlkTKbDny2ch+BEdH59fc+9fPzhF79Xpw/jotxF4gJ9WHf6im4vq4KRox/ybEbsYFjK97nnTKZXtDR/sXqo8X/SgP9+pQUHfY/p6T2CSqyP8xE+Y8FFcZUoOJ4K8z+0WyoOsqtcnk2LZXkLUkkbUrh6ZhsVEW1XSMlmT8n8+TnZyhL1U+06yNUHsqm6DguxcUSHxmIz05PpvVpiEbz1Iu8mgtT1uznbOg5ooOPs23hEBwsi3GC14Dc/gsO7ihBbNNFacVPg5DTcMxavH0CiLwQS3xkEP7H9zG/x9v1rquyqh+5owfHY+K4FF/oE7WKvpYaBwq29Pnyc+qfm0nPNq1wcvkQz4hSeQf9m41GfrgUF0N85FlObFnEGKfyCIiMD2YNGThvI8fPRhAbFcLZo9tZOrheXr5+GzBRkjXuKSl/JPNkWzLJK5+S5qoEQNUzjSe7k1797Ewhwx6omE3ab6lkaDyUV9UljeQlmeRq9EF1oWqWydPVKaR1U5E9MYWk9U/JbFT4KPTnB0PLxeanEiIDAetuc9n0YxeebPHg/S4d6dxvPN/9eZqrmYUPLztMmrembnw4/6hsaNlCTWTUk9fz8jvBigata/Noz1yGu3XGeaQnCR3ms2BwjbyRnFCOHjMW86F6G+Nc29Fp9AHMhi9iyag6r6kxqcm+ew+rjp3yOqqmrenilM79xIJvu1HY96Qr17jXzI0uFcsizShoMGom76mvk1SgYuQ0HL+WtaOqEH82ljTNomIhp96IGQx+uJFVgamF6j6H0IU9sG/Wju4freRmy1ksHWefp7+sBkN/WsYg1W4m93bBZehCIhvPYI1HG/L6mmL0y8Ln67Y0bupEW/fP2a3qy08z3Q3rlBYXUf6l5NauXzhmNxWPHhVKuRMhpv3r16fM/E+UPiVBjP2lYJ9MjaoCyOMUCEogR0DIFVEuqMn+KJ1nahOsPq1AhbkmqN/NIM09LxlqonTPIFstQ1aqL8ISoU9uOAt6NKeZ8wC+3HyHljP/ZNUwO3H1I5THfeYi3J+sYUiXNrR672sC7Tz4+ePG4r7/mjCuXpMqRSXwEiMmfqpRl1kyVHL5r09x79GLeWcyufjbKLr1GsB8n7fr5bNlVT/KmBW4t2iGvePzT3OcZ/mSGBNOdIbGgTJrKtsouRQexRMlqLPTycjRKP9/TQ6hC7vTxKEZzV2GMS+kOpOXfk47k/xinfFBjsO4xXzb4go/j+hGm87uDJvqyc6Ie7wa4d5Mcj9IJ6ORHLM55ak4tjzllpth+k+eM8pOWWI9rCLWwypgGSIg31Mu7/8/LI95PJBkjPluGdkjs1DKAYscMoeoMP7LFEV2gZ8pGrmSrDHZCDvLYXlSjvGKClT8ygKTG4UP1J8fDCovRn4qKTLktRk00Y3EDTP44XAs99MySUu8QVT4ZVLUoGg6BS/fBbhYvPySvP4E9gWtot/z3oq8Mp0mLGHH8UDOX4jinM82vnW1FbXHTNHsU7Z4eeH9gztVOn3N/iPb+ap1HYZ47mfTeIeyT1jqJ/h7zmHJgQhuJWWQet0Xr7A0atWrnvfbpm15t/MDtq3YR3ySmlo9XamdpaRpr+7U0rw4WQ0+XB+A79yOlO7irwB3zxNTuTOdbWWYtHCm1e0ILhRwZAUOPbshO72KLXHN6NWlYvE7tHquX243lNkf3Oe3bZcKnVvJ5fVjcBs1n81RT0TVeZEoHBk8qBr+u06QqC1LqrJIvn6aw8GJVKtVHQUgr9Obwc3jWb9oJ1H3U0hOCGKt5xEU7gPpYA7i9MtHrSTzcTxep+KRV6mKtaYxevQxGLH+lfMPew/cxWWoG5UNFrkI9LT/AmjVR4T/GaqfWH0MRZT9JbCvUjZpy1JI/v0pmTXVZHsk8WRbEknrMshRiCg3ziW7hQzTbSbIn4KyfTbKHMjtkFNwdqtaFhndZJgdKw1RNBClD4Ca3PQHxB5ZypeLI7Ef9xEFdsFo0wcFpmYybkVF8G+WGmVyPOEXUzA2M32hsWDlwLD5mzhxNoRzgSfYsXBo6a686Mhf8qYT2eoTSNDSXlSwn8zBiChios9x6Iv83KRog8eu45wNiSAu4HsGvvsN24+fJijwOAu6mL38Da32i4uflV2ms+nIGcLDAji67gucKxeqZ63nf/sRyrdk7LJd+AWHERkWiN+exQyqk9/V1Vc/CFh3mMiqnccJDT9HVKgve5eOxsmqkP9o1U+FUql8+aEW/Yc5cm77IRJUIKvaj6UHj+N/ZjPj6lvy3vJQYqKjOO87h46aq7/azi/Wf0qArvZj7LaEU7//yIo9voQc/4UvJy9lv28AvisHUEsOglVbZh86zYYhNfP0FKxoP+sQAesGFRF/1eQ8vUPoIT+ulbejVoHlE23xQU6V6lVICj+B/61UMtOfcOdiCOHXX+NMeQlR2aoQ4owx/ldAyBSQ3VSguJtvuxpQ5n8AVPn/1ujwy/zMMFVmkdlFRW6/THLizDCLK0Z8E4DcvP8AkCJDVrh/oy8/GFouNj+VAjLBshkt697mjP/tIkeyufF72HXHhSE9rPPFkFPX1ZUqZw/i90QNyLEbvgTPwcYcmTmQDq074Dp2MXtjnoh6033uhbWMfH8Eq6JusXVSb3pPO8idsGUM6t2Xj36PK/KayhR5TZo5mHP90k2UgLxaHeyUV7h4V4lRg5F8O+ARS8f9Qnj1+uTHyzzUadyKDiE4/iGlPaEiCJcJCq+Bc/tKNHVuywP/cFKMNJxZ4YBbNzn+PoH4+l6khVuX4q8K6Lp+WXUGfjOctPXLOZksvJpQlbl59STIXi0TibxeR9pXiMI/QkeQkplQsYEbg5wtiAyOJQcwadgEuwdxxGqslGRfiuWyaUOa1MxPV/r0e4GAccXGvO/WmLtBoSRoOp8ufUqAaP9Cxb3gIO427Viq2zP1tf+CaNFHjP8ZqJ94fQxDlP0lse+xMZZflafCeCvMEgSMl1fEenhFKk40xyhXRLmNEpVSjvwRUCsvYZgvNMPIVonquf2CiqyPshD2m2H0FNSFr60EiNKnAGoS/f2IKdccJzuNCtKmj/oJx37fgdWo+fynXX3s3/uKSU2CWfb3BXIBZJXps2ANn1XxZfr7nWnTYxw7zcayclpHNHfhGI7u/KWMXceIHp3oPPsMmf+spl8rJxxbtKbvyvzclBvO8iG9cHZfRIilOx5D01g6pDsdu/RlYZBGLNNmP+iPn/K69GyfxC/Du9O2y0h+z+jLkjnu2BToC+o4/1uNjHf6TeGzSkf4uFs7Wrbrygdf/cqZO3neqLd+UJPy7wW8l36Ca4fWtH53Kj5VPmXuqAYFJ0JF6mfWejhDKhxnq18yakB1/yDT+vWii8toNlx9ivfUdji2cKJ594UEaZ5I2/nF+o+h6G0/MmyaCHiNHcKyW134uE00X/Sby7lmfXGpLEP9NIzls3ZTYfJCxtQ3pmKXaXzf/RI/fLuP268EBDmm1g3oOao39W9Hcv6V2S54NT7kEH3yNIL7VGZ+0BxbkVuf3iSMQo2gcyYZXXNRGbI9WSnHdJMJqqFPSessx3y7EUJR0hWFUo7JVmNU/0nlaVclyuY5KMsXOkZffihJuZj8VErIBKvylBdSSErRMrRQ3eXwzgiaD+pDDRl5gdO1Ir6HAkkFkFWjay8Hrm5Zwtao+2RkPyP5ZjTxD17xZO3IG2Bf+zYXb6ixbFAfxdXLJIutrFLFhAYjZ/ORxX7Wej3IG2yZmWP2LINMeR2Gzx5O+vqf2H/tKZlG5phr7stTJxO0Zjqz91wVmdSLgZBN1Jko6ncdwXsdUvH3/xfNrKZwcKW7kT+nYrJIPOPLpeZudC2wR8eJrw4EEBoUSGhQIGdXFLHvXuv1y6jS+2vGyjbz03NNtCEIr844i8TIri7V/73K9SK3+RrRbo4v/8RGErx3MmZ/T+CrPfdQIWBmYY4sI410zcOzMkhXmmNpnn81evQDE3osDuNSfCwxZ3fwmeVBftx0gSzNQ7TqU0LE+hegvH2Nm0JN6rxTelFAb/sH9Omj1//AcP2KoY8hiLG/TO3Th4kadTYIMiXPPs5C2G+OSYKAYKRGne8GKucMnslMMA+QGdz+tCFGn8KoM1JJUVpgqTmzqlUfNWnxh9hxqS5j5y/j1/ndSD22j9D7eUfJbHswuPMDtizZyvmkXNTPbnH475Mou/fCyZCOQWFKI3+9IIMzG9cTkaICZRZZmtv8tNqvgbb4qU7Bd9NfnE9Ron52i0MbvUlu15VWmhPvYs7/VqLmaUICT2t1xL1DbayEHJJv3eSRrhFFIZQ3gzgansDTXFAmxXDo1FWq1nqn0GBFhH6CDb1G9yJp706KfTuKmPPr8h8DEdN+cq/HEvc0hX//TeX2uQjuZSTyMNWC8uXyvDEz9ndm/qHi4yW/smpuKwLnLeT4I814kJ+f484TcWI9n9uFM++rP7mkxdCC8UHNk1NzGfbVURR9F+N9cgdLxnWm+ls0aBHCLCj3izFql3RS1jwlrX9O8Qctt40xfqyCeGOMkgsX6kYWYUa5yeUwvyCgts/k6S+ppLd9WT/68kOJykXkp9JCoU5PI43yVCwng4dFeZeaJJ+dnPxiBgMabWW10hVX85P8GJY/6hcqYFNBxf17j3R3ZItCsMJt/mY82leiamUZPXYcwqNSdco/q4dX51h+Gz+T/Q+KfVYDMaX+4J/5/aNcfh3vSdjz3m9GGhmmVWg4aCYfyzbz8e4EVNYdMcvNJKMUgokoBMgI9yd+3g8MTPyTYbeUjHxRqKCpWw/sqlZipa87KoyxKq8g28Waffse5x2SG8v6cdPY9zBPS0VrD3ZOfXECnQiVXJn+aXm2T97DHSWUTQwRMLGwQJ6RTnqRg9QcQhf24qM9Nny+Yx2OqiSeqgHUZKSlozK3RGOXIphYYCHP4Ea6GmzRox/k3ZPRic+8MjEqV4MOYxex7Pdcxg5bS3xZ13Fx/EuZQUa2KeZmr4QMg9Hf/kG3Prr9r8jqLA7F0ccA9Ntfxvbp45mAYKxC6ZrJM8EEKx8ZlFOjVgp52wnKZ5MxSI3JzyZa9xqXBP36vIpgZY21IoUrYmacZDUYvHw9Q6/Npm+fEJ7aduKzxSvYWGkqH3qeJ8e2CjbGDRj3lx9jnn9HUGAqC8bKGHROg4uhJPmrMMp73Ego6QUVgSqZRxq9c/WTRzyWO2BtKUCGCI0terH0yFyc84N37s2/+WTUOv4RV536v6+vvESoSfX7juGZQxg/YS3Hvk7g6J8rWb03hmRRFSZQ3nEwn4/vS+taFshUauTla2AUXvwYKq83kFHNz7Nl7g0dA44SoM1/9Omro1zQ134AdUYa6WpQqZSkp6WjxgqVWnMHRQ5Xd2/E/+PV9Lm5mBnBKYXiXn5+3qZnMjOfV+NDDvdDtzA/dDueTdyZNO8n/q7xDf3mB+Tn+TcfWawJFrEmmNfJJnNcOqlVLCj/u/gVElXHTJ7JjJA3yuRZPQVm14rpn1ky5E9kKHwsMXsnjZReOZiFmyArpyc/6Msf+sr15adSRKFOjeVCgh2dO73DuqsJRTvbs3B2HMxl1YC2+CZ1Q3HiO6Ke74lTp5KcKsOpciVk3Cv6+9pQP+XEvA/w6zgPr/6B9J8Zw4D1K6m4eDirtQ3LywLBAocxv/DriCzWTfiS7VdeTpso/73KdaMpzPWIw/PDbVxTglkje2rfvV7EMmgZkhbMoUMRqO+d5KrS5uXfFU1x62aB9+wB/BSSBcioMXQ1691cqLR/H3nDlRxSHz3gfv7AzygpU3Q9GbVyw9WuDe97XeAbjb97R7/HmkGDWFkq9aQmOyMTlbk5zxdDiiQ7no2epzk4bzLdTs7GJ1lN9tVL3KrSCodKAjEP8yKDcSMHGjy7zJ47Sqid/11t+hVARU7qbc7uPcWtER1pVkEgXusNNKVDsfxLYYmlcQYJRY/oDEJU+39BEfok6/a/kspXLH0MQK/9etpXSe3TS6IcuSKT9BEKzGabIleC2k6J8oEcuRJokkNO1VyyVySheb9vyrZszGaWw+ymxh8NQK8+ryCjctceOCZGsKbAPsqiESq0p1erW+ydF8ZjJXA/kDW/nuaD+e9iv+Y80YkPeZwVyeYPxrGjLMQuTv4SitgCWwAVKv0mFx9ZRSrbGvE8+wvWtlRSJvMkTaQeGWdYOHTAi3sl1LnpeVqLRd/39ZWXmGzuhWxhfsh2PB2G8P2qdcx/+h5TjxV6EEtR9WPaiemeYzH5ZSIjvG+QrpRRc8xf7LEvfKA+zGg/YiDWp+Zz7LFI3YuNFv/Rp6+OcrWe9mMMefdP5Bepi5p+Eaxo+7kHnS/v5UTl/zC7nx+f779rYF9UV3xQkvTPYZb+2ZUPvmhNbVkAMYUPecMRbhhjdiiHrGG5KGVGKMRcv1UOmcOUmKywwqRKBqkfZWE8Py/W60VQo3RQwl153vasCkpyHFUID2V5AyV9+aFqCcvv6clPpYgM5VV2bwzC7tMlfNPHkRrWFbGt2YQObepodByVXNm3hwTn8XzlqsT78MWXjqq6i7/fVexHTWGAvTXGciMsqzTAwU7sow9l2NSpSfK1G2TL69Kg2m2ulEYvRCxCBdpMWsfvw9NZM3kOB+/IMDc3x9zMBLkAPIvgyMmH5FwNJuSRAquazkye3J0Hx05yQ/MyBWucv1jKwoF1y+ahAOoUfJeMZ+rWywWChKJpT3qY+nHg1F0SExNJTHzIhcPeXHNyo2slcTUAaL3+7BPTaOHgQCP7vI/jZwd5EuuJe4sPSmmgkkf27Rvcr1qPus+fIFIkalID1rL2ahc8PmmOGaC87sXeGAfGzRxEUxtLytXszKQpfVB67yVYs3Vp0a8wcovqdBjoRv1Hl7mkuedWiz4lRqx/AfJa9amtvMn1e7osKCai2v9LCusj2v8M1a8Y+hiEHvvL3D59ZCswDpVBggKjJDXqKjlkDslGFmyEXAWEWFBxSEWsB+d/fjJGuGZG+eElH6gAevV5iYCRVXWc+s1gpUdDglf9RZTmJLEWfdQZd0hIrYtztzqYywCTd3B5ry1mt65xTwWqhz7sC63HGI++2FsbATJMrOvS1qkWOkOFWETmr+zHiaRVb0nbGiaADGNTY5H5LR8t9otCKEe30SNoaiUDkxr0Hv0e5YN9Oad5S4Ou86ufkfzgAffzPw8ep+XdDyQWfd/XV14iZLzTrAONbUyRoST17nXup8sxMS44LNFaP0YVqGiRxr+3HpGhlGNR25Wx/fOfJKmJLv0AwfZdRvV6yr7toRh0J4me8+tEn746ykvefgQqdZvJjz2vsGjWAubM2ovtlB8YXb+4+5y0xAeZLc1d2tP4nQqYyWWY2DRjaP9W5F6/wj2dMwdvCIKK3Ja5KG3ztj2pK+SS1TUX7sqLXokojKAmZ1gGOTETFLdcAAAgAElEQVRmmF4TkAWbYZaVRUZPMV8GUKNsk0nazymkvZtL9sgMspNMsdxilOf/+vJDScv15adSRAYq7h+exX8WnafOuNV4nT6Dz55VeLjaFXBm1QNvdl6oj1OaN14FeglKrmyaxtdHTRmx+ijnIoLx2fojIxwtRQZzObXrVSXh2l3UtvWok3qN64WfZFCGCDa9mPRJS2xquLFgfxBR58LzPiG/8WEVGZDG2aUeLEtwZvWpEAJ3zcIhegFf/11oKVhmgV3zdrRraFP8YGQwRjj27IZZoE+BPbSqu2fwudmCd7vaiKwDSnT9cscJ/HXgIPtnd8HS/mP+OHCQAz/3Q+PVLnpRXgshJK0Vzi31PMtGdY/9v2wne9A0PqwrB9UddsyYxn6j4fx2/Cxnd8+h5eXFTFoeXmAmQDf592TExRITsIt5TpdZPPVXojU7WyXQRzci/QsZNTp2oNqFYHQ9g6D4iGn/2vQphv8ZrJ9YfQxFl/2vwz59CBhtscD8QQ5pa5JJ/ikD5WVzLL1L91e0o0uffBRt+NbnPOfP7OTnwdb4zxnDdK/7BVcptOnzLJTlU34nuc8aTgUFE+aziQkWh/hyzn7uqwDVAw58M5lNmX1YvC+AyHNBnN7+I6NaWL86i24Q4vJXTtgGFhw0Ysw2fyJCAzj2rQtWAsjthrLq8EnOHp1NBzNHpu45jd+hZQyuWejqtNmPiPiZE8zf3rZM3+lHeMAOPrU6xPQfjlJggl/H+XUjp+HoXzly6hjfuZjReMJmfI/vZV53sZONZY1AOccP+XnnKcLCwgj1mk/jiEUsP5F3g/tztNUPaX78tuY23db4EhHiw84ZjQjzCil4PyLo0U9Og8EjaBW7g91XDIw6Ws4v2n8MpYTtR/5OX77/1onA+T9w7JGKZ3HrmbVJ4JNFE2ku9mFlOuODMTW6fcYvW70Jjowi/Mgy+jzbztQFhfz7DUbVOpO0hSkkb0kieUU62VkmWG4wRibi+tWNnpHRWoH5rvwtYyoZJptNUPfPIEvbBhBN1DKMN1pRfnwFrI4qMF5dDqsNJigK3MRblry+/CTUa6jxNhpdCJXov2oP7n5DmbD3YVGLhRISJUBOw4nb+bPJZvpP8Sr77TVvG8ZN8di1AlvPD5jl93a9A0FCQkJCQkKi7FC1yEL5rwlGDwqX/P9AzOAaEKjQbjxjGwWw9bg0UJEoC5Rc3vwj+6qNZVL7N2VW701BQZ2hHrhdX47nGWmgIiEhISEhIfESWfT/34EKiFhZkdceyW9/TMBBeZW9C6azPCBR902IEhISEhISEhISEhISpYDewYqEhISEhISEhISEhMR/A5HbwCQkJCQkJCQkJCQkJF4v0mBFQkJCQkJCQkJCQuKNRBqsSEhISEhISEhISEi8kUiDFQkJCQkJCQkJCQmJNxJpsCIhISFR5ghYOo5mxV4/IiIjiA4+xDftNV+Aqq9c4n8So44sOH2QqQ6l/5I1iVJAqh8JiddC/mDFmJrdJrNi5wnCI6OIDjzJgbXjaWVe8OCyRKjYn7WHZtBSIafRpB1sGGL7mt61YUS1Tp+weMsRAsMjOR/kzV+z3altrHGIrBwN3T5l+b5ALuwaT73XGJeM3ZZxPu48+yfWz3vzrWBF7xWhXIzZzxeNNC5E4cj0IxeIXNMXaw3hhMpD2XRuEyM1Xidv1HE+Aadm0Vbx8jhRGDdh0u5I4nYX0qC09DFtxpe7DvBd53IabwavwvCN0VyKj+VibDSR/ofYOHcgTSxeGimz6cBnK/cRGBGdX3/vUz+/n6dXvxfnj+Ni3AViQn3Yt3oKrjWNXpy/rBEqtma8534CI85zIcSbjTPcKPjzcuxGbODYivd5p0ymF3S0f7H6aPG/0kC/PiVFh/3PKal9gi19vvyc+udm0rNNK5xcPsQz4pmoct32y6g+ajOx8XFcev6JOcns1sVt3LrQro9QeSibouO4FBdLfGQgPjs9mdanIRrNUzxa4otu+18PcvsvOLijBLFNF6UVPw1CTsMxa/H2CSDyQizxkUH4H9/H/B5v17uuyqp+5I4eHI/RaFvPP1Gr6GtZ+Oj/QTTyw6W4GOIjz3JiyyLGOJV/q/xH4s1HBgLW3eay6ccuPNniwftdOtK533i++/M0VzMLH152mDRvTd34cP5R2dCyhZrIqCev5+V3ghUNWtfm0Z65DHfrjPNITxI6zGfB4Br5Izk5DcevZe2oKsSfjSWt0NfLHjXZd+9h1bFTXkfVtDVdnNK5n1jwbTcK+5505Rr3mrnRpWJZhAkFDUbN5D31dZIKVExp6SOn3ogZDH64kVWBqYXqPofQhT2wb9aO7h+t5GbLWSwdZ583+JDVYOhPyxik2s3k3i64DF1IZOMZrPFoQ15fU4x+Wfh83ZbGTZ1o6/45u1V9+Wmmu2Gd0uIilKPHjMV8qN7GONd2dBp9ALPhi1gyqk6efQAoubXrF47ZTcWjR4VSTgJi2r9+fcrM/0TpUxLE2F8K9smsqWyj5FJ4FE+UoM5OJyNHRLle+wWsbStw96/RNHdshr1jM+xbvMuic7kaJy8JIvTJDWdBj+Y0cx7Al5vv0HLmn6waZlfM+tESX/Ta/3owrl6TKmUyUSAmfqpRl1kyVHL5r09x79GLeWcyufjbKLr1GsB8n7fr5bNlVT/KmBW4t8hvV47NsHdsjvMsXxJjwonOeH5UWdbP20AOoQu708ShGc1dhjEvpDqTl35OO5PCx0lIGI4MeW0GTXQjccMMfjgcy/20TNISbxAVfpkUNSiaTsHLdwEuFi+/JK8/gX1Bq+j3vLcir0ynCUvYcTyQ8xeiOOezjW9dbUXtMVM0+5QtXl54/+BOlU5fs//Idr5qXYchnvvZNN6h7BOS+gn+nnNYciCCW0kZpF73xSssjVr1quf/tpLL68fgNmo+m6OeaLdJVoMP1wfgO7cjpbt5Q4C754mp3JnOtjJMWjjT6nYEF7I1j1Hg0LMbstOr2BLXjF5dKha/Q6vn+uV2Q5n9wX1+23ap0LlF6qMPhSODB1XDf9cJErUFflUWyddPczg4kWq1qqMA5HV6M7h5POsX7STqfgrJCUGs9TyCwn0gHcxBnH75qJVkPo7H61Q88ipVsdY0Ro8+BmPalnc7P2Dbin3EJ6mp1dOV2llKmvbqTi1N58/5h70H7uIy1I3KBotcBHrafwG06iPC/wzVT6w+hiLKfsPtk1Xtx9KDx/E/s5lx9S15b3koMdFRnPedQ0cj/eX67ZdTyaYCD+/+S7ZSiTL/U2ov7hWlD4Ca3PQHxB5ZypeLI7Ef9xEFdrFp0ec5WuOLXvtLAR35S950Ilt9Agla2osK9pM5GBFFTPQ5Dn2Rn5sUbfDYdZyzIRHEBXzPwHe/Yfvx0wQFHmdBF7OXv6HVfnHxs7LLdDYdOUN4WABH132Bc+VCxms9/9uPUL4lY5ftwi84jMiwQPz2LGZQnTz79dYPAtYdJrJq53FCw88RFerL3qWjcbIq1IK16qd60aaUSiVKatF/mCPnth8iQaORGVw/Yv2nBAhWDgybv4kTZ0M4F3iCHQuH4mCZZ7+x2xJO/f4jK/b4EnL8F76cvJT9vgH4rhxALTkIVm2Zfeg0G4bUzNNTsKL9rEMErBtURPtTk/P0DqGH/LhW3o5aBi2vSkgUjUywbEbLurc5438bZeFSIDd+D7vuuDCkh3V+EpFT19WVKmcP4vdEDcixG74Ez8HGHJk5kA6tO+A6djF7Y56ISpi5F9Yy8v0RrIq6xdZJvek97SB3wpYxqHdfPvo9rshrKlPkNWnmYM71Szdf/rYyN+/fgkxrMkGdxq3oEILjH6I5YVoaCMJlgsJr4Ny+Ek2d2/LAP5wUI81pbQfcusnx9wnE1/ciLdy6FH9VQNf1y6oz8JvhpK1fzslk4VUNxOijB3m9jrSvEIV/hI7lPJkJFRu4McjZgsjgWHIAk4ZNsHsQR6zGSkn2pVgumzakSc38dKVPvxcIGFdszPtujbkbFEqCpvPp0qcEyKvVwU55hYt3lRg1GMm3Ax6xdNwvhFevT34+zkfFveAg7jbtWKrbM/W1/4Jo0UeM/xmon3h9DEOU/SWwT3X/INP69aKLy2g2XH2K99R2OLZwonn3hQTl6C/Xb78JVpZmOE7eSUhoCEHHtrD4P22wMbQhFkKUPgVQk+jvR0y55jjZaVSQFn0AnfFFv/0lRXf+UsauY0SPTnSefYbMf1bTr5UTji1a03dlfm7KDWf5kF44uy8ixNIdj6FpLB3SnY5d+rIwSCOW6bJfX/yU16Vn+yR+Gd6dtl1G8ntGX5bMccdG0wd1nf+tRsY7/abwWaUjfNytHS3bdeWDr37lzJ08b9RbP6hJ+fcC3ks/wbVDa1q/OxWfKp8yd1SDghOhIvUzaz2cIRWOs9Uv+eXKU0nqR6z/GIqsMn0WrOGzKr5Mf78zbXqMY6fZWFZO60jeLjYZNk0EvMYOYdmtLnzcJpov+s3lXLO+uFSWoX4axvJZu6kweSFj6htTscs0vu9+iR++3cftVwKCHFPrBvQc1Zv6tyM5/8psl4SE4SgEq/KUF1JIStEytFDd5fDOCMYP7UMNr80kCHXp6VoR3xWBpALIqtG1lwNXt/Rna9R9VEDGzWiSC51GJ/IG2Ne+zYUbaix71Edx9TTJ/xU/N6HByNl8ZLGfKV4PXh1sCcKrM6rPUScTtGY6QYX/XhoI2USdiWJc7xG8VzsV/5n/UmPEy2KFgyvdjfyZG5NF4l1fLn3pRlfrg+x9nC+iwomvDgTw+XODFGZYPt3z4vuAjuuXUaX314yVbWas1wNUzoXLNdCljx6M7OpS/d+rXNfYxv8SI9rN8eWfOaDOvcXRHybw1Z57qBAwszBHlpFGuubhWRmkK82xNM+/Gj36gQk9FodxaTGgzuFR+B98vekCWZqHaNWnhJiZY/Ysg0x5HYbPHk76+o/Yf6053Y3MMVcAGitAytvXuCm4UucdOVx+JVMYhN72D+jTR6//geH6FUMfQxBjf5napw+99j/Fa4YbQUIqTzKNqNxqOAuXrWTJs8GM3X7n1RhWTMToUxh1RiopSgssNWdWteqjJ77otb/Q8cWlNPLXCzI4s3E9ESkqIKv48UNb/FSn4LvpL86nKIFbHNrozYQNXWlldpjjz7ciiTn/W4mapwkJPK3VEfcO/mw+c4PkWzcLH6QT5c0gjt7M/5+kGA6dusqoJu8g5/LLAbgY/QQbeo3uRdLeMWjeblZ69aPDfwxEZtuDwZ0fsGXIVs4n5V3f4b9P8unKXjj9EEgokHs9lrinKdT7N5XbiRHcy1DwMNWC8uUE+BcyY39n5h+t2bTkV7qXq0rg3BEcf6QZD/Lz82w1uZmJ3Ig8yryv/uRS6aQoCQkAFOr0NNIoT8VyMnhYlHepSfLZyckvZjCg0VZWK11xNT/Jj2H5o36hAjYVVNy/96j4iVGwwm3+ZjzaV6JqZRk9dhzCo1J1yj+rh1fnWH4bP5P9D4p9VgMxpf7gn/n9o1x+He9JWIHe738ZATLC/Ymf9wMDE/9k2C0lI18UKmjq1gO7qpVY6euOCmOsyivIdrFm377HeYfkxrJ+3DT2PczTUtHag51TX5xAJ0IlV6Z/Wp7tk/dwRwmazx0oPQRMLCyQZ6STXuQgNYfQhb34aI8Nn+9Yh6MqiadqADUZaemozC3R2KUIJhZYyDO4ka4GW/ToB3n3ZHTiM69MjMrVoMPYRSz7PZexw9YSX1pb/7WRkUaGaRUaDprJx7LNfLw7AZV1R8xyM8ko/NvKDDKyTTE3K7JLYxD62z/o1ke3/xVZncWhOPoYgH77y9g+fYiwX52ZRF5LV/Lg3F+s2Nefrd3aU2HHHp6U8AL16/MqgpU11ooUroiYcdIbX0TYXyJKkr8Ko7zHjQRd8/IGokrm0aOX51U/ecRjuQPWlgJk6NcYi14sPTIX53xxc2/+zSej1vGPuOrU/3195SVCTarfdwzPHML4CWs59nUCR/9cyeq9MSSLqjCB8o6D+Xx8X1rXskCmUiMvXwOj8OLHUHm9gYxqfp4tc28UXGUsaf08R5v/6NNXR7lgWwUb4waM+8uPMfmHIygwlQVjlX+8OiONdDWoVErS09JRY4VKrbnCmcPV3Rvx/3g1fW4uZkZwSqG4l5+ftxUxwQs6r09UuYQEoFCnxnIhwY7Ond5h3dWEop3tWTg7DuayakBbfJO6oTjxHVHPZ7TUqSSnynCqXAkZ94r+vjbUTzkx7wP8Os7Dq38g/WfGMGD9SiouHs7q1zksFyxwGPMLv47IYt2EL9l+pcjp/f8uacEcOhSB+t5JriptXv5d0RS3bhZ4zx7ATyFZgIwaQ1ez3s2FSvv35Xdickh99ID7+QM/o6RM0fVk1MoNV7s2vO91gW80/u4d/R5rBg1iZanUk5rsjExU5uY8Xwwpkux4Nnqe5uC8yXQ7ORufZDXZVy9xq0orHCoJxDzMC6HGjRxo8Owye+4ooXb+d7XpVwAVOam3Obv3FLdGdKRZBYF4rTfQlA7Kf69y3WgKcz3i8PxwG9eUYNbIntp3r7+6zK6wxNI4g4SiR3QGIar9v6AIfZJ1+19J5SuWPgag13497auk9unDEPuVuUrUuTkit23pRq8+ryCjctceOCZGsKbAPsqi0RtfbhXf/mJRnPwlFLEFtgAqVKVxTYWRVaSyrRHk16hgbUslZTJP0kQ6X8YZFg4d8OJeCXVuOo+Lc536vq+vvMRkcy9kC/NDtuPpMITvV61j/tP3mHqs0INYiqof005M9xyLyS8TGeF9g3SljJpj/mKPfeED9WFG+xEDsT41n2OaK6pQ8vp5gRb/0aevjnJ14kMeZ0Wy+YNx7CgiWBkDqOC5kOqipl8EK9p+7kHny3s5Ufk/zO7nx+f774qPLzquT1S5hAQgQ3mV3RuDsPt0Cd/0caSGdUVsazahQ5s6Gh1HJVf27SHBeTxfuSrxPnzxpaOq7uLvdxX7UVMYYG+NsdwIyyoNcLAT++hDGTZ1apJ87QbZ8ro0qHabK6WShUQiVKDNpHX8PjydNZPncPCODHNzc8zNTJCLMyAPwRrnL5aycGDdsnkogDoF3yXjmbpVY+kaUDTtSQ9TPw6cuktiYiKJiQ+5cNiba05udK1UDAO0XH/2iWm0cHCgkX3ex/GzgzyJ9cS9xQelNFDJI/v2De5XrUddnU8QUZMasJa1V7vg8UlzzADldS/2xjgwbuYgmtpYUq5mZyZN6YPSey/BL57Wglb9CiO3qE6HgW7Uf3SZS5p7brXoU2KeRXDk5ENyrgYT8kiBVU1nJk/uzoNjJ7lR6ELltepTW3mT6/d0WVBMRLX/lxTWR7T/GapfMfQxCD32l7l9+tBnv9yOTu4daFi1PGam5bFrP4YpA20IORGSv/pYQvTo8xIBI6vqOPWbwUqPhgSv+osozUliLfrojS/67C8pIvNX9uNE0qq3pG0NE0CGsamxyPyWjxb7RSGUo9voETS1koFJDXqPfo/ywb6c07ylQdf51c9IfvCA+/mfB4/TKNailL7v6ysvETLeadaBxjamyFCSevc699PlmBgXHJZorR+jClS0SOPfW4/IUMqxqO3K2P75T5LURJd+gGD7LqN6PWXf9lBeuZOkpPWjD3366ihXPfRhX2g9xnj0xd7aCJBhYl2Xtk610JlqXyBQqdtMfux5hUWzFjBn1l5sp/zA6PrFeHa4jusTVS4hAchAxf3Ds/jPovPUGbcar9Nn8NmzCg9XuwLOrHrgzc4L9XFK88arQJZQcmXTNL4+asqI1Uc5FxGMz9YfGeFoKTKYy6ldryoJ1+6itq1HndRrXC/pPuRiINj0YtInLbGp4caC/UFEnQvP+4T8xof5z0KUO07grwMH2T+7C5b2H/PHgYMc+LkfGq8uAZkFds3b0a6hTfGDkcEY4dizG2aBPgX20KrunsHnZgve7Wojsg4o0fWL0kcPymshhKS1wrmlnmfZqO6x/5ftZA+axod15aC6w44Z09hvNJzfjp/l7O45tLy8mEnLw9Ecq+gm/56MuFhiAnYxz+kyi6f+SrRmZ6sE+ugmjbNLPViW4MzqUyEE7pqFQ/QCvv670FYDZNTo2IFqF4LR9QyC4iOm/WvTpxj+Z7B+YvUxFF32vw779KHPfhlVXb5gzZ6ThIX7sXu+C0/+mMzMg1q2ZBQbXfrko2jDtz7nOX9mJz8PtsZ/zhime+Xd//ECg/XRZ39JEZe/csI2sOCgEWO2+RMRGsCxb12wEkBuN5RVh09y9uhsOpg5MnXPafwOLWNwzULBT4f9euNnTjB/e9syfacf4QE7+NTqENN/OEqBCX4d59eNnIajf+XIqWN852JG4wmb8T2+l3ndxU42ljUC5Rw/5OedpwgLCyPUaz6NIxax/ITGDe5orx/S/PhtzW26rfElIsSHnTMaEeYV8ur9IDr1k9Ng8Ahaxe5g95UivK4E9SPafwxF9YAD30xmU2YfFu8LIPJcEKe3/8ioFtavrkIVgfydvnz/rROB83/g2CMVz+LWM2uTwCeLJtK8dB5WJiEhCqFew0bi5t+ESvRftQd3v6FM2PuwqMVCCYkSIKfhxO382WQz/ad4lfn2mrcO46Z47FqBrecHzPJ7u96BICEhISEhISFhKGIG14BAhXbjGdsogK3HpYGKRFmg5PLmH9lXbSyT2r8ps3pvCgrqDPXA7fpyPM9IAxUJCQkJCQmJ/x30rqzIa4/ktz8m4KC8yt4F01kekFhK2wskJCQkJCQkJCQkJCS0o3ewIiEhISEhISEhISEh8d9A5DYwCQkJCQkJCQkJCQmJ14s0WJGQkJCQkJCQkJCQeCORBisSEhISEhISEhISEm8k0mBFQkJCQkJCQkJCQuKNRBqsSEhISJQ5ApaOo1mx14+IyAiigw/xTXvNF6DqK5f4n8SoIwtOH2Sqw6uvKpR4A5DqR0LitZA/WDGmZrfJrNh5gvDIKKIDT3Jg7XhamRc8uCwRKvZn7aEZtFTIaTRpBxuG2L6md20YUa3TJyzecoTA8EjOB3nz12x3ahuLLS9bjN2WcT7uPPsn1s97861gRe8VoVyM2c8XjTQCpMKR6UcuELmmL9YawgmVh7Lp3CZGarxO3qjjfAJOzaKt4uVxojBuwqTdkcTtHk89zdgsK0dDt09Zvi+QC7sKlRUH02Z8uesA33Uup/Fm8CoM3xjNpfhYLsZGE+l/iI1zB9LE4qWRMpsOfLZyH4ER0fn18z718/t5evV7cf44LsZdICbUh32rp+Ba0+jF+csaoWJrxnvuJzDiPBdCvNk4w42CPy/HbsQGjq14n3fKZHpBR/sXq48W/ysN9OtTUnTY/5yS2ifY0ufLz6l/biY927TCyeVDPCOeiSrXb78x1V0msmzrUUIiooiJOMasNsVt3LrQro9QeSibouO4FBdLfGQgPjs9mdanIRrNUzza4stz9JWXIXL7Lzi4o4x+t7Tip0HIaThmLd4+AUReiCU+Mgj/4/uY3+PtetdVWdWP3NGD4zFxXIov9IlaRV/Lwkf/D6KRHy7FxRAfeZYTWxYxxqn8W+U/Em8+MhCw7jaXTT924ckWD97v0pHO/cbz3Z+nuZpZ+PCyw6R5a+rGh/OPyoaWLdRERj15PS+/E6xo0Lo2j/bMZbhbZ5xHepLQYT4LBtfIG8npKy9z1GTfvYdVx055HVXT1nRxSud+YsG33Sjse9KVa9xr5kaXimURJhQ0GDWT99TXSSpQMXIajl/L2lFViD8bS5pmUbGQU2/EDAY/3MiqwNRCdZ9D6MIe2DdrR/ePVnKz5SyWjrPPG3zIajD0p2UMUu1mcm8XXIYuJLLxDNZ4tCGvrylGvyx8vm5L46ZOtHX/nN2qvvw0092wTmlxEcrRY8ZiPlRvY5xrOzqNPoDZ8EUsGVUnzz4AlNza9QvH7Kbi0aNCKScBMe1fvz5l5n+i9CkJYuwvBftk1lS2UXIpPIonSlBnp5ORI6Jcr/0CFbvN5a95rbm9cQp9OrbCsXUfFkfmapy8JIjQJzecBT2a08x5AF9uvkPLmX+yaphdMetHW3x5jr7yssW4ek2qlEnAFxM/1ajLzGYll//6FPcevZh3JpOLv42iW68BzPd5u14+W1b1o4xZgXuLZtg7Pv80x3mWL4kx4URnPD+qLOvnbSCH0IXdaeLQjOYuw5gXUp3JSz+nnUnh4yQkDEeGvDaDJrqRuGEGPxyO5X5aJmmJN4gKv0yKGhRNp+DluwAXi5dfktefwL6gVfR73luRV6bThCXsOB7I+QtRnPPZxreutqI684pmn7LFywvvH9yp0ulr9h/Zzlet6zDEcz+bxjsUM+EZgPoJ/p5zWHIggltJGaRe98UrLI1a9arn/ba+8ufIavDh+gB853akdDdvCHD3PDGVO9PZVoZJC2da3Y7gQrbmMQocenZDdnoVW+Ka0atLxeJ3aPVcv9xuKLM/uM9v2y4VOreSy+vH4DZqPpujnoiq8yJRODJ4UDX8d50gUVvgV2WRfP00h4MTqVarOgpAXqc3g5vHs37RTqLup5CcEMRazyMo3AfSwRzE6ZePWknm43i8TsUjr1IVa01j9OhjMKZtebfzA7at2Ed8kppaPV2pnaWkaa/u1NJ0sJx/2HvgLi5D3ahssMhFoKf9F0CrPiL8z1D9xOpjKKLsN9w+WdV+LD14HP8zmxlX35L3locSEx3Fed85dDTSX67XfnltBk/sxIWfp7Hy1CUSs1SgziVXqXERJUGUPgBqctMfEHtkKV8ujsR+3EcU2MWmRZ/naI8veegrLxE68pe86US2+gQStLQXFewnczAiipjocxz6Ij83Kdrgses4Z0MiiAv4noHvfsP246cJCjzOgi5mL39Dq/3i4mdll+lsOnKG8LAAjq77AufKhZxf6/nffoTyLRm7bBd+wWFEhgXit2cxg+rk2a+3fhCw7jCRVW/sBaQAACAASURBVDuPExp+jqhQX/YuHY2TVSEv0qqfCqVS+fJDLfoPc+Tc9kMkaMx3GVw/Yv2nBAhWDgybv4kTZ0M4F3iCHQuH4mCZZ7+x2xJO/f4jK/b4EnL8F76cvJT9vgH4rhxALTkIVm2Zfeg0G4bUfLEzof2sQwSsG1RE/FWT8/QOoYf8uFbejloGLa9KSBSNTLBsRsu6tznjf5ui8ltu/B523XFhSA/r/CQhp66rK1XOHsTviRqQYzd8CZ6DjTkycyAdWnfAdexi9sY8EfWm+9wLaxn5/ghWRd1i66Te9J52kDthyxjUuy8f/R5X5DWVKfKaNHMw5/qlm0X/trZydRq3okMIjn+I5oRpaSAIlwkKr4Fz+0o0dW7LA/9wUow0p7UdcOsmx98nEF/fi7Rw61L8VQFd1y+rzsBvhpO2fjknk4VXE6oyN08LQfZqmUjk9TrSvkIU/hE6lvNkJlRs4MYgZwsig2PJAUwaNsHuQRyxGisl2ZdiuWzakCY189OVPv1eIGBcsTHvuzXmblAoCZoVrEufEiCvVgc75RUu3lVi1GAk3w54xNJxvxBevT75+TgfFfeCg7jbtGOpbs/U1/4LokUfMf5noH7i9TEMUfaXwD7V/YNM69eLLi6j2XD1Kd5T2+HYwonm3RcSlKO/XJ/9QvlWtKt9lQTrz9iw/xh+Pt7sWjaeDjaGtsSCiNKnAGoS/f2IKdccJzuNCtKiD6A/vugrLxG685cydh0jenSi8+wzZP6zmn6tnHBs0Zq+K/NzU244y4f0wtl9ESGW7ngMTWPpkO507NKXhUEasUyX/frip7wuPdsn8cvw7rTtMpLfM/qyZI47Npo+qOv8bzUy3uk3hc8qHeHjbu1o2a4rH3z1K2fu5Hmj3vpBTcq/F/Be+gmuHVrT+t2p+FT5lLmjGhScbBSpn1nr4QypcJytfskvV55KUj9i/cdQZJXps2ANn1XxZfr7nWnTYxw7zcayclpH8naxybBpIuA1dgjLbnXh4zbRfNFvLuea9cWlsgz10zCWz9pNhckLGVPfmIpdpvF990v88O0+br8SEOSYWjeg56je1L8dyflXZrskJAxHJliVp7zwf+ydd3gUVduH75ndTQ8pJHQIHSWE3nuJAREBqUoRXxFQQYUIgqCAgqI06SD4ShGkhxY6SSCQThIgRYFQIyUQSO/Zne+PBNiEbEnjhc+5r2svLnJmzpznd855Tp9JIiFJx9BCc4dDO0NpNqQfNUTyKqarHd4H/UgGEKvSvbczMVsXsS38PunZmSTevEB03HMlWTeKBjSufZu/b0hYNaiPMuYKif+Tcm5Kg1Gz+MByH2s944oYbOkJlxLxXz2NWXtijGzUi4GQTfiZcOp3H8mbHZLx9b2HdqumdHalp8qXUxFZxJ/x5nIzN7oX2KPTgi/3nyXI348gfz/OLSti373O9ItUfusrxopb+KmwzYURhBLPeqqc6lL9XgzXtbbxP0NFu2+8+SsyjIC9kzD/YwJf7rmLBgFzSwvE9FTStC/PSidNbYGVRX5qDOgHpvRaGMzl6Egizu3gU6sD/LjpElnal+jUp5SYW2CemU6Gog4jZo0gbcNP7LuWQobKAotCxw7Ut69xU6hJnWpl0EvPx2D9BwzpY7D8Qcn1K4Y+JcEY+8vVPkMYsF+sVIVKpi50qBnE9yPepEefD1gR34cl899B65haiTFGn8JI6ckkqS2x0p5Z1amPIf9iKLyUlEX79ZR0zmzcQGiSBtRZZGnvxNNpvxa6/KeUhPemzVxMUiNl3uLgxiMktutOK+2Jd2PifyWRSImNJaVWR/p2qI21kEPirZs81DeiKIT6pj9HQ2JJyQV1QgQHT8VQpVa1QoMVI/QTHOj9fm8S9u5E+7hZ2eWPnvJTQkTHXgztHMfWRdu4mJCLlHmLQ3+cRN2zNy3yz73lXo8kKiWJe/eSuX0+lLvp8TxItsSmQl5pzIhcz4z/avhw0RpWzm6F35z5HH+oXRPz2+eoi4Se2MBnTiHM+fJ3Lus2VEam2CiltFRSscGugggPiipdEgleOzn5+XQGNdrGKrUrrhYn+TE4f9Qv2OJgq+H+3YfFb0gEa9zmbsG9fUWqVBLpteMg7hWrY5NZD8/Okfw6fgb74oodawkxo/7Qn1n/QS5rxi8nuEDv15jwckSA9BBfouf8wOD433n3lppRTwOVNHHrhVOViqzw7osGE6xtlGR3s8fD41HeJbmRbBg3FY8HeVoqW7uzc8rTCPQiVHRl2ic2bJ+0h3/UUD7vFRAwtbREkZ5GWpGD1ByC5vfmgz0OfLZjHS6aBFIkAIn01DQ0FlZo7VIEU0ssFencSJPAEQP6Qd6ZjE586pmBqkINOoxdwJL1uYx9dy3RZdBg6CU9lXSzyjQcMoMPxS18uDsWjX1HzHMzSC/8bHU66dlmWJgX2aUpEYbrP+jXR3/5KzI7i0Nx9CkBhu0vZ/sMYdB+AbIC2LjKi1sZAA/w33qQ27s70MxkL/eLHPwbj2F9nkewtsdemcRVI2acDPkXQ+GlpjTtV2HUd7kRW4xetLFoEnmo1TuXHj/kkcIZeysB0g1rjGVvFh+eTZd88XJv/sFHo9fxl3HZafh+Q+GlQiLZ5ztGZAxj/IS1HPsqlqO/r2DV3ggSjcowARuXoXw2vj+ta1kiaiQUNjVQhRTfhyrqDWZ0s4tsnX2j4ICjtPnzBF3lx5C+esIFx8o4mDRg3GYfxuRfjqDETAzAOv96KT2VNAk0GjVpqWlIWKORtFcwc4jZvRHfD1fR7+ZCpgckFfJ7+e3znzomE/Skz6hwGRlAKSVHcinWic6dqrEuJrbowpYZwo4Duawc1BbvhB4oT3xH+JM9/1IyickiLSpVRORu0ffrQkrhxJx38Ok4B8+BfgycEcGgDSuwWziCVS9yWC5Y4jzmF9aMzGLdhC/YfrVQC28o/EWQGsDBg6FId08So3Z49ndlE9x6WHJk1iB+CswCRGoMX8UGt25U3OdB3nAlh+SHcdzPH/ipEjKMzidVKzdcndrwtuclvtb6+5ELb7J6yBBWlEk+SWSnZ6CxsODJYkiRZEezcflpDsyZRI+Ts/BKlMiOucytyq1wrigQ8SDPhZo0cqZB5hX2/KOG2vn36tKvABpykm9zbu8pbo3sSFNbgWidB2jKBvW9GK6rJjPbPYrl7/3JNTWYN2pM7TvXn19mV1phZZJObNEjuhJhVP1/ShH6JOovf6WVr1j6lACD9huoX6W1zxCG7NfE3eYObalkJ0J6XuoFlQqlRk1uGaTNoD7PIVKpey9c4kNZXWAfZdEY8i/rnPSHl9r/FKf9EgxtQdOgKWVyikS0o5KjCvK7yIK9IxXViTxONTKD088wf/igp2clpNw0HhUnnYbuNxRearK5G7iVuYHbWe48jO9XrmNuyptMOVboRSxF5Y9ZJ6YtH4vpLx8z8sgN0tQiNcdsZk/jwhcawpz2Iwdjf2ouxx4V0r20+fMUHeXHkL56wqX4BzzKCmPLO+PYUYSzMgHQwBMhpaKmXwRr2n7mTucrezlR6T/MGuDDZ/vu6FkhKoSe9BkVLiMDiKhj2L3RH6dPFvF1Pxdq2NvhWPN1OrSpo9VxVHPVYw+xXcbzpauaI4f+flZQNXfw9Ymh8ejJDGpsj4lChVXlBjg7GfvqQxGHOjVJvHaDbEVdGlS9zdWy6IUYi2BLm4nrWD8ijdWTvuHAPyIWFhZYmJuiEIwIfxqPPV0+X8z8wXXL56UAUhLei8YzZduVAk5C2eQNepn5sP/UHeLj44mPf8ClQ0e41sKN7hWNywFAZ/qzT0ylubMzjRrn/Vw+PcDjyOX0bf5O6TsKWmTfvsH9KvWoq/cNIhLJZ9eyNqYr7h81wxxQX/dkb4Qz42YMoYmDFRVqdmbi5H6oj+wl4OnbWtCpX2EUltXpMNiN+g+vcFl7z60OfUpNZiiHTz4gJyaAwIdKrGt2YdKknsQdO8mNQglV1KpPbfVNrt/VZ0ExMar+P6OwPkaXv5LqVwx9SoQB+8vdPkMYsF9KPMv+szX54KshvF5BicKqLm+OHUClAJ9nE0qlwYA+zxBQWVenxYDprHBvSMDKzYRrTxLr0MeQfzEUXmqMbL+yH8WTWr0lbWuYAiImZiZGtm/56LDfKIQK9Hh/JE2sRTCtwVvvv4lNgDfntY806ItfyiQxLo77+b+4R6kUa1HS0P2GwkuFSLWmHXjNwQwRNcl3rnM/TYGpScFhic78UdliZ5nKvVsPSVcrsKztytiB+W+S1EaffoDg2IfRvVPw2B7EcydJSps/hjCkr55wzQMvPILqMca9P43tVYCIqX1d2raohd6m9ikCFXvM4Mc3rrJg5jy+mbkXx8k/8H79Yrw7Xk/6jAqXkQFE0HD/0Ez+s+AidcatwvP0Gbz2rMTd1alAYdbEHWHnpfq0SD2CZ4Fegpqrm6by1VEzRq46yvnQALy2/chIFysjnbmC2vWqEHvtDpJjPeokX+N6WTSyRiI49GbiRy1xqOHGvH3+hJ8PyfsF/sp7lUWD4U8RLXFq1o52DR2K74xKjAqXN3pg7udVYA+t5s4ZvG42p093ByPzgFKlX+Eygc37D7BvVlesGn/If/cfYP/PA4q1Z159LZDA1FZ0aWngXTaau+z7ZTvZQ6byXl0FaP5hx/Sp7FON4Nfj5zi3+xtaXlnIxKUhaI9V9JN/JiMqkoizu5jT4goLp6zhgnZnqxT66CeVc4vdWRLbhVWnAvHbNRPnC/P46o9CWw0QqdGxA1UvBaDvHQTFx5j6r0ufYpS/EutnrD4lRZ/9L8I+QxiwX3rM8XmT2Zw1iLUngwj12sAHJnuZMv84j4uYJC0++vTJR9mGb70ucvHMTn4eao/vN2OY5nm/4CpFuelTWoxrv3KCf2PeARVj/vQlNOgsx77thrUACqfhrDx0knNHZ9HB3IUpe07jc3AJQ2sWcn567DfoP3MC+OOII9N2+hBydgefWB9k2g9HKTDBryd+/Sho+P4aDp86xnfdzHltwha8j+9lTk9jJxvLG4EKLu/x885TBAcHE+Q5l9dCF7D0hNYBd3TnD6k+/Lr6Nj1WexMa6MXO6Y0I9gwseB4RDOinoMHQkbSK3MHuq0V4nVLkj9Hlp6Ro4tj/9SQ2ZfRjocdZws77c3r7j4xubv/8KlQRKKr15/tvW+A39weOPdSQGbWBmZsEPlrwMc3K5mVlMjJGIdRr2Mi4Jk2oyMCVe+jrM5wJex8UtVgoI1MKFDT8eDu/v76FgZM9y317zSuHSRPcdy3Dcfk7zPR5tb6BICMjIyMjIyNTUowZXAMCtu3GM7bRWbYdlwcqMuWBmitbfsSj6lgmtn9ZZvVeFpTUGe6O2/WlLD8jD1RkZGRkZGRk/j0YXFlR1B7Fr/+dgLM6hr3zprH0bLz+Q4gyMjIyMjIyMjIyMjJlgMHBioyMjIyMjIyMjIyMzP8CI7eBycjIyMjIyMjIyMjIvFjkwYqMjIyMjIyMjIyMzEuJPFiRkZGRkZGRkZGRkXkpkQcrMjIyMjIyMjIyMjIvJfJgReblRtGQcZtO4uvjzbnAMCK3jqGsvpclIyMj81Kj6si80weY4vz8pwplZGRk/i3kd/tMqNljEst2niAkLJwLfifZv3Y8rSwKXlyeCHYDWXtwOi2VChpN3MFvwxxf0Lc2VFTt9BELtx7GLySMi/5H2DyrL7VN8oMFa14fMJXVu04SEn6Bi36H2fh1H5xUBSIpN0zclnAx6iL7Pq6f9+VbwZq3lgXxd8Q+Pm+k1YApXZh2+BJhq/tjryWcUGk4m85vYpTW5+RVHedy9tRM2iqfXVdyDOhXHMya8sWu/XzXucKzvFdfYcMHb9C1Ry/6LwpB+6Py/z8wRj8FTiN/49iyt6lWLgM1PfVfrMyIjRe4HB3F31GXiAjywmPVZFxrFqoAOspfWSDYtWb88n34hV7kUuARNk53o/DjS4ce+59QJvap+Sg5Af/kDGoXDgJKGi5IuYxJTeJY4mPOJSaxKiOb6lrhpUe3PkKl4Wy6EMXlqEiiw/zw2rmcqf0aYllijYpCon52BvOTEzinU5vyRdH4cw7sGE+98hgziBVo6PYJSz38uLSrnJ6hEwUNx6zliNdZwi5FEh3mj+9xD+b2erW+dVV++SNSffQWIqOjuPzkF3GSWa3LpPGkXXoiv2eqn5s17pKWyLoszXN/f9V4Mf5B5t+ACAL2PWaz6ceuPN7qzttdO9J5wHi++/00MRmFLy8/TJu1pm50CH9pHGjZXCIs/PGL+fidYE2D1rV5uGc2I9w602XUcmI7zGXe0BpPHYW5ZTrnlo3HrX0bOo1aS3yPuXzT/0UNpiSy79zFumOnvI6qWWu6tkjjfnzBr90oG79Bd65xt6kbXe1eTMoAo/QzDgX1Rk5n6IONrPRLfjF5/zJglH5qbu36hWNOU3DvZVvG5c6Y+p+F11dtea1JC9r2/Yzdmv78NKNvgU57uZU/oQK9pi/kPelPxrm2o9P7+zEfsYBFo+vkDd5LjTH2l419dTPTcEUkUcftJQuX6JqeyiDBjC9s7OhjbYJZZhrfF9EBKhlG6JMbwrxezWjaZRBfbPmHljN+Z+W7TmWUP1A/M4XFWRouq5Sk6dCmvDGpXpPKZSNoIRQ0HL+WtaMrE30uktTCwQBISOXmENVc2fwJfXv1Zs6ZDP7+dTQ9eg9irter9fHZ8ssfAXtHW+5sfp9mLk1p7NKUxs37sOB8buELS8RDUcRGIxWqqxK2ksQjQfj/8U27cvYPMv8ORBS1GfKxG/G/TeeHQ5HcT80gNf4G4SFXSJJA2WQynt7z6Gb57CZF/Ql4+K9kwJPeiqISnSYsYsdxPy5eCue815986+poVGOpbPoJWz09OfJDXyp3+op9h7fzZes6DFu+j03jncu/QEuP8V3+DYv2h3IrIZ3k6954BqdSq171vGdLKYT9uYbt/jdIyMoh9cYpTkVA1eoOBe0Ta/DehrN4z+6ImfbfS40Ady4SUakznR1FTJt3odXtUC5la1+jxPmNHoinV7I1qim9u9oVv0Nb0vQb0s9YlC4MHVIV310niC9mK6ms0pXPlu/htH8AIb6H2DizPw0sACowYHUgGwYV1kOBy5QDHJ3aDKPnx0qqjyGM1S/nL/buv0O34W5UMqZiGYuB+l8ASU3Go2g8T0WjqFwF+6fpMKL8lVQ/s7b06RzHn8s8iE6QqPWGK7Wz1DTp3ZNaxSpgOjDK/tLbJ2oy+TJbZKOZ8vl7KUW4lINrjsheM1MuC1AjO4daAryWk0NN7etKilH6AEjkpsUReXgxXywMo/G4D2ivLYQBffQRY1aBwdaW7FSKCIXLZFmgp/1SNPmYbV5++C/ujW3jSRwIDSfiwnkOfp7fNinb4L7rOOcCQ4k6+z2D+3zN9uOn8fc7zryu5s+eodN+NVc2jMFt9Fy2hD/W2WZW6jaNTYfPEBJ8lqPrPqdLpUKFX2f8rz6CTUvGLtmFT0AwYcF++OxZyJA6efYbzB8E7Dt8zMqdxwkKOU94kDd7F79PC+tCtUynfgoqOtjy4M49stVq1Pk/7UGEYO3Mu3M3ceJcIOf9TrBj/nCcrYyL/6EoUEHSoEDDoNQEjqbnYIIGe0nkoViUJyg++tJn4raIU+t/ZNkebwKP/8IXkxazz/ss3isGUUsBgnVbZh08zW/DaubpKVjTfuZBzq4bUkz/a8A/yMgYQBSsmtKy7m3O+N5GXTgUyI3ew65/ujGsl31+I6mgrqsrlc8dwOexBChwGrGI5UNNODxjMB1ad8B17EL2Rjw2alYg99JaRr09kpXht9g28S3emnqAf4KXMOSt/nywPqrINJUripo0dbbg+uWbRTxbga3LCIa1vIe37/WC4VIqty4EEhD9oMy3KgnCFfxDatClfUWadGlLnG8ISSotR6Z0xq2HAl8vP7y9/6a5W9fib1Upq/Tr1U83inodaW8bjm9oMZfzFA35cNkCetxZyrBuHWjfbwZnnNxZ+1VnKghp3LwRT7XaNRDFqvSZtpifRjZBhTlOtR25fe2W8WksK30MoVM/DXcD/LnTpGOZbs80VP8LImBi9xpvu73GHf8gYp/cYEz5K6F+iqp1cFJf5e87alQNRvHtoIcsHvcLIdXrk99fKRVG2V9q+zT0T88izcyC0wKIz3W4Sx4uatTUEBRcVYBKncXUbIFVVuaEq9XUenZZiTFKnwJIxPv6EFGhGS2ctDJIrz6GyXt24RnoskB/+6WOXMfIXp3oPOsMGX+tYkCrFrg0b03/FfltU24IS4f1pkvfBQRa9cV9eCqLh/WkY9f+zPfX8mX67Ffn5sUliEXbp6jLG+0T+GVET9p2HcX69P4s+qYvDtplUF/8rzQi1QZM5tOKh/mwRztatuvOO1+u4cw/eSXCYP4gkXTvEkcWf4Rrh9a07jMFr8qfMHt0g4KTQTr1M8XayhyXSTsJDArE/9hWFv6nDQ5PMkqsRL95q/m0sjfT3u5Mm17j2Gk+lhVTO2KlHY2O+DNFkXSNBjspFxeNSIo6lzqShING4GGRhaGYGEyfiMPrAp5jh7HkVlc+bHOBzwfM5nzT/nSrJCKlBLN05m5sJ81nTH0T7LpO5fuel/nhWw9uG+cQCqHDP8jIGEAUrG2wEZJISNIxtNDc4dDOUJoN6UcNkTzH6WqH90E/kgHEqnTv7UzM1kVsC79PenYmiTcvEB1XjJKsaEDj2rf5+4aEVYP6KGOukPhcg/0iMKXBqFl8YLmPtZ5xWoMtE7p/50VQUDB+/x1E8oaZrLuQpXUfICXiv3oas/bEGNmoFwMhm/Az4dTvPpI3OyTj63sP7VZN6exKT5UvpyKyiD/jzeVmbnQvsEenBV/uP0uQvx9B/n6cW1bEvvsySb8u/QyjcqpL9XsxXM8sHKIfRf03eKv2eX5f68+DHFAnR7F1jSea3gNob6bh1rXbODrVxMKhM0P6tKbTu240Nq1OnRqPuX4j1fitDmWijyH066e+fY2bQk3qVCs7J2+w/gNgSq+FwVyOjiTi3A4+tTrAj5su8aQGGCx/UHL9zC0wz0wnQ1GHEbNGkLbhJ/ZdSyFDZYGF0ctiujHG/tLa55idzijMWGYiFlneShMuAGYIZEhqhqRnkmFmyWGFSAYSFoUvLgHG6FMYKT2ZJLUlVtob0/XoUxwKu61SUxbt11PSObNxA6FJGlBnkaW9U8gY+wWhaPukJLw3beZikhop8xYHNx4hsV13Wmkt3BgV/yuJREpsLCm1OtK3Q22shRwSb93kYTFGZOqb/hwNiSUlF9QJERw8FUOVWtUKDVZ06ZeC53Q3evXsTrv23XnnG2/sPljBouF523RFx14M7RzH1kXbuJiQi5R5i0N/nETdszcttM/V6YhfLYg8kiQc1LnUVZhyglyaShrsJJGHRRaG4mFM+nKvRxKVksS9e8ncPh/K3fR4HiRbYlMhLwEZkeuZ8V8NHy5aw8rZrfCbM5/jD433B4Up0j/IyBhAKaWlkooNdhVEeFCUm5NI8NrJyc+nM6jRNlapXXG1OMmPwfmzRoItDrYa7t99+FznyiCCNW5zt+DeviJVKon02nEQ94rVscmsh2fnSH4dP4N9ccWOtYSYUX/oz6z/IJc145cTnKYdlk3A0vcY+Ks5NjVbMMx9NRutJzHq1+gXM4slQHqIL9FzfmBw/O+8e0vNqKeBSpq49cKpSkVWePdFgwnWNkqyu9nj4fEo75LcSDaMm4rHgzwtla3d2TnlaQRlhD79DCFgammJIj2NtGJ2sERbO2xS4nigNYmpeXCPONXrVLSG1Js3eVytNq+1b0jt4D/wqOtKxwZR1K78D/63iirv/yuM0E+dTnq2GRbmZefkDdd/yDuz0olPPTNQVahBh7ELWLI+l7HvriU6V3/5K2Z2Pk96KulmlWk4ZAYfilv4cHcsGvuOmOdmkF4G28YN2186+wRNNp9navCwNOUuUPi9E6UNlxDIQEP97HRGYsYkUxGNRsIcyCiDYmJYn+cRrO2xVyZx9X8z41Q8StN+FUZ9lxux5dAiaBJ5qNU7lx4/5JHCGXsrAdKN0NiyN4sPz6ZLfuHJvfkHH41ex1/GZafh+w2FlwqJZJ/vGJExjPET1nLsq1iO/r6CVXsjSDQqwwRsXIby2fj+tK5liaiRUNjUQBVifOWQMhLIa0nVxJ3fzDKPgWzr0R7bHXtIcqyMg0kDxm32YcyTGwQlZmIA1iZgqIOgERXESzk0yNWQojQjRJPNkBwNFQSRR0+SaEhfPeGCofQBUnoqaRJoNGrSUtOQsEYjCVrzoTnE7N6I74er6HdzIdMDkgr6PT3PL4rn/EMx75f5d6KUkiO5FOtE507VWBcTW7TDzgxhx4FcVg5qi3dCD5QnviP8yZkJKZnEZJEWlSoicrfo+3UhpXBizjv4dJyD50A/Bs6IYNCGFdgtHMGqyy+wpAqWOI/5hTUjs1g34Qu2X31+ej8r6QH3kuDe3dss39Gb0yO64PRbNDEvKpmpARw8GIp09yQxaodnf1c2wa2HJUdmDeKnwCxApMbwVWxw60bFfR75TjaH5Idx3M8f+KkSMoqXT4YwQj/9SGSnZ6CxsMDC+DYEAE38Qx5XcKaypcCTTfRi5WpUznlMfIqE+tY1Yh3a4tbhNf7ym8fZxHeY1KcpJkk3uJFiREP/IjBWP6UVVibpxBZ3RKcHo+r/UzTkJN/m3N5T3BrZkaa2AtGJ+stfcc8fFUZ9L4brqsnMdo9i+Xt/ck0N5o0aU/vO9RJuQyiIQfsN1C9D9qlys+mmzqV38mMma/19V0I2v1WwYZO6dOHrRQW3pHSmZShZZ23GTcBMnUsthYJYretLikF9nkOkUvdeuMSHsvrpPsGXmOK0X4J2B64oNGjKw2TRjkqOKp5shhPsHamoTuRxqoHC94T0M8wfPujpWQkpN41HxUmnofsNK5UDdAAAIABJREFUhZeabO4GbmVu4HaWOw/j+5XrmJvyJlOOFXoRS1H5Y9aJacvHYvrLx4w8coM0tUjNMZvZ07jwhcajzlUj5eagBqT4BzzKCmPLO+PYYcgZFIUg8BANbXMl/jITuSwqcMrKJUdU5rfdGNZXT7ih9JkAaOCJkFJR0y+CNW0/c6fzlb2cqPQfZg3w4bN9d56tEOl5/vMU4R+Kdb/MvxURdQy7N/rj9Mkivu7nQg17Oxxrvk6HNnW0Oo5qrnrsIbbLeL50VXPk0N/PCqrmDr4+MTQePZlBje0xUaiwqtwAZydjX30o4lCnJonXbpCtqEuDqre5Wha9EGMRbGkzcR3rR6SxetI3HPhHxMLCAgtzUxQCoKxNe9eW1K9ii4WpGba1O/PBoGakXPmb+9rJFOzp8vli5g+uW7yD5cYiJeG9aDxTtl0psIysbPIGvcx82H/qDvHx8cTHP+DSoSNca+FG94rG5QBQ8vQb0s9Ism/f4H6VetQ1LRyiH/XNExy62pKxn3ahigmI1o0Z9Uk/TLwPE5QJUvJNbmY1pkPjOwSHJhAVfIlaXTvhEHuNYi2slFQfQxRDP0Wt+tRW3+T63eIk3ABG1f9nKCyr02GwG/UfXuFykmR8+SupfpmhHD75gJyYAAIfKrGu2YVJk3oSd+wkN8pCBgP2l9a+bBMrutrZ0zb/19nKlASFOcPsbFivKH04gpITJiI5oopQUcJKk8O4zBweqky4pZWOEmNAn2cIqKyr02LAdFa4NyRg5WbCtWeVdejzP8fI9iv7UTyp1VvStoYpIGJiZmJk+5ZPaewXKtDj/ZE0sRbBtAZvvf8mNgHenNc+3qcvfimTxLg47uf/4h6lUqxFSUP3GwovFSLVmnbgNQczRNQk37nO/TQFpiYFhyU680dli51lKvduPSRdrcCytitjBzZ+XiNd+imc6NS3Aw2r2GBuZoNT+zFMHuxA4IlAUiTQPPDCI6geY9z709heBYiY2telbYtaFGjKdMWPyH1RTUu1gggFZCmUJKhzqSIIzwYrhvTVE250+nQiULHHDH584yoLZs7jm5l7cZz8A+/X19rjpuf5z9DjH4y6X+bfjgga7h+ayX8WXKTOuFV4nj6D156VuLs6FSjMmrgj7LxUnxapR/As0EtQc3XTVL46asbIVUc5HxqA17YfGeliZaQzV1C7XhVir91BcqxHneRrXC/wpqvyRXDozcSPWuJQw415+/wJPx+S9wv8lfcqiyBYUK/Pl6zx8OJ8aBA+W6bR4toKJv7sW/A1k6IlTs3a0a6hw/OOsNxQ4fJGD8z9vAjVmozX3DmD183m9OnuYGQeUOL0G9TPSNTXAglMbUWXloVeEaJsxsQ/PPE5cw6v2R0xbz6Fg+e8ObVvJt0tAPUNtnw5nZOVJ/LHKX+Cj/+C24M1TPzpDMkSoL5FzD81qKsJJfiBhsyLIcTUqIvy1o3n33aljxLqYwjj9ROp0bEDVS8FUNx3EOjHmPqff2YlKpKIs7uY0+IKC6es4UJOMcpfifVL5dxid5bEdmHVqUD8ds3E+cI8vvrjRhntzddn/4uwr7QIBJpbsUaRzc9JCRxLTuc1hQVzzBT6VwmMRp8++Sjb8K3XRS6e2cnPQ+3x/WYM0zzvF3x+KfRR5GawJjmJP9JzsFRnsjI5ia1pWVQqfGGJMK79ygn+jXkHVIz505fQoLMc+7Yb1gIonIaz8tBJzh2dRQdzF6bsOY3PwSUMLfzlWj32K1wmsHn/AfbN6opV4w/57/4D7P95AE8/jZUTwB9HHJm204eQszv4xPog0344yiNt/6Unfv0oaPj+Gg6fOsZ33cx5bcIWvI/vZU5PYycbyxuBCi7v8fPOUwQHBxPkOZfXQhew9ERigTUAXflDqg+/rr5Nj9XehAZ6sXN6I4I9A5+et3uKTv1EqnT7nNV7ThIc4sPuud14/N9JzDiQf6ZQE8f+ryexKaMfCz3OEnben9Pbf2R0c/uCqzx64n8gSFgqlEQLIIlKLgoaRFFEx/p68TA2fTpQVOvP99+2wG/uDxx7qCEzagMzNwl8tOBjmmmfmdKHMf5BRsYAQr2GjYzrsgkVGbhyD319hjNh74OiFgtlZEqBgoYfb+f317cwcLKnwe01/zpMmuC+axmOy99hps+r9Q0EGRkZGRkZGZmSYszgGhCwbTeesY3Osu24PFCRKQ/UXNnyIx5VxzKx/csyq/eyoKTOcHfcri9l+Rl5oCIjIyMjIyPz78Hgyoqi9ih+/e8EnNUx7J03jaVn4+XlOxkZGRkZGRkZGRmZcsfgYEVGRkZGRkZGRkZGRuZ/gZHbwGRkZGRkZGRkZGRkZF4s8mBFRkZGRkZGRkZGRualRB6syMjIyMjIyMjIyMi8lMiDFRkZGRkZGRkZGRmZlxJ5sCIjIyPzApDqZ5G6MImErYkkbEwm3aXgu00Mhcv8C1F1ZN7pA0xxLt6nHmVeNAJWLu+zbK8PoWGhXAg4yNftC33gWEamvBAkcsYmk9ZW4v/rdx/yBysm1OwxiWU7TxASFs4Fv5PsXzueVhYFLy5PBLuBrD04nZZKBY0m7uC3YY4vSHMVVTt9xMKth/ELCeOi/xE2z+pLbZPC1wEmrzNxdxhRu8dT7wW1HSZuS7gYdZF9H9fP+/KtYM1by4L4O2IfnzfSSoTShWmHLxG2uj/2WsIJlYaz6fwmRj39HDKoOs7l7KmZtFU+u84odNkvVqCh2ycs9fDj0q5SaGPWlC927ee7zhW0vgxemREbL3A5OpK/Iy8Q5nuQjbMH87rlMyNFhw58usIDv9AL+fn3NvXz2wmD+j2NP4q/oy4REeSFx6rJuNZUPY2/vBHsWjN++T78Qi9yKfAIG6e7UfDxCpxG/saxZW9TrVymF/TUf2P10VH+ygLD+pQWPfY/obT2CRqy38tA/ZcltmNssRtvjflf2hVVT7h1LplTk0ncmkDCpiRSxmSjeVJ362eQtCOBx7sL/f5MJdvYL0wbRLc+QqXhbLoQxeWoSKLD/PDauZyp/RqiVT0Noqjajcmr93Eu6DwXAo7z5/xhOFsVEYEu//MCUDT+nAM7yum5ZeU/S4SChmPWcsTrLGGXIokO88f3uAdze71a37oqr/xRuLhzPCKKy9GFfuEr6W+ldaHgSL8vPqP++Rm80aYVLbq9x/LQMvkG/cuNVvtwOSqC6LBznNi6gDEtbBAw0j+YN2TwnI0cPxdKZHgg545uZ/HQennt9auAqZqscSkk/TeRx38mkrgihVRXNQCaN1Kf9827E3i8M4n0xiA1SydxfRrZ2mWpeibJv6eQWVnrb3rQNM0gZVUSqT00ZH+cRMKGFDIaFbqmZSap85NI2JrA4615z37VEEHAvsdsNv3Ylcdb3Xm7a0c6DxjPd7+fJiaj8OXlh2mz1tSNDuEvjQMtm0uEhT9+MR+/E6xp0Lo2D/fMZoRbZ7qMWk5sh7nMG1qj0LKTkgajZ/CmdJ2EF5KwJ0hk37mLdcdOeR1Vs9Z0bZHG/fiCX7tRNn6D7lzjblM3utqVRzOjy34FDcevZe3oykSfiyRVO6hYKKg3cjpDH2xkpV9yobzPIWh+Lxo3bUfPD1Zws+VMFo9rnOfMxBoM/2kJQzS7mfRWN7oNn0/Ya9NZ7d6GvL6mMfpl4fVVW15r0oK2fT9jt6Y/P83oW7JOaXERKtBr+kLek/5knGs7Or2/H/MRC1g0uo6Ws1Zza9cvHHOagnsv2zLuRBhT/w3rU27lzyh9SoMx9peBfaKExhYUUUoENZAjIOQaES5IZH+QRqZkivUnttjONkXqk05q37zGkBhzbEbYYf/us5/tahXiVRXKMukrGaFPbgjzejWjaZdBfLHlH1rO+J2V7zoZlz+CDX1nLKDv49UM69qGVm9+hZ+TOz9/+Fqh+3X5nxeDSfWaVC6XiQJj/KeEVG42q7my+RP69urNnDMZ/P3raHr0HsRcr1fr47PllT/qiGX0bd6Uxi5Pfs3oMtOb+IgQLqRrXSjaU8lBzeWQcB6rQcpOIz1HK/z/NTkEze/J685NadbtXeYEVmfS4s9oZ5ofrNc/KHAet5Bvm1/l55E9aNO5L+9OWc7O0Lvke7iXntx30khvpMD8GxvsxtpQYak5Zn/lFUbxlFW+X7bFKlBAsadC3v/fs8EiGoRLZpjH5pDZ64m1EjlvZyGdNcc07tkzdKJQkzUmG2FnBaxOKjBZZovdl5aY3nh2idQ6jeTxuSgOWmHzHzvsR9tgcflZ+KuCiKI2Qz52I/636fxwKJL7qRmkxt8gPOQKSRIom0zG03se3Syf3aSoPwEP/5UMeNJbUVSi04RF7Djux8VL4Zz3+pNvXR2N2mOmbPoJWz09OfJDXyp3+op9h7fzZes6DFu+j03jnY1r8EqD9Bjf5d+waH8otxLSSb7ujWdwKrXqVS/wbIXTcGa9c59f/7xcdGdRrMF7G87iPbsjZbv4K8Cdi0RU6kxnRxHT5l1odTuUS9na1yhxfqMH4umVbI1qSu+udkWnUR8G0q/bfjVXNozBbfRctoQ/NirPi0TpwtAhVfHddYJ4Xa2kJovE66c5FBBP1VrVUQKKOm8xtFk0GxbsJPx+Eomx/qxdfhhl38F0sADj9MtHUpPxKBrPU9EoKlfBXtsYA/qUGLO29Okcx5/LPIhOkKj1hiu1s9Q06d2TWtoFMOcv9u6/Q7fhblQqschFYKD+F0CnPkaUv5LqZ6w+JcUo+0thX8VsUpckkbg+hYyaEtnuCTz+M4GEdenkKI0IN8klu7mI2Z+mKFJA3T4bdQ7kdshB/UR/DaDO/0lqst3UKI+bIBbOv5JglD4AErlpcUQeXswXC8NoPO4DCuyC0aUPSszMRW6Fh3IvS0KdGE3I30mYmJsV0Fi3/ykD9LRfiiYfs83LD//FvbFtPIkDoeFEXDjPwc/z2yZlG9x3HedcYChRZ79ncJ+v2X78NP5+x5nXVWtpS6f9xvnPSt2msenwGUKCz3J03ed0qVSo8OuM/9VHsGnJ2CW78AkIJizYD589CxlSJ7+rayh/ELDv8DErdx4nKOQ84UHe7F38Pi2sC5UinfppUKvVz37UYuC7LpzffpBYDYhVBrD4wHF8z2xhXH0r3lwaRMSFcC56f0NH7dVfXfEbW35KgWDtzLtzN3HiXCDn/U6wY/7wpyuXJm6LOLX+R5bt8Sbw+C98MWkx+7zP4r1iELUUIFi3ZdbB0/w2rGaenoI17Wce5Oy6IUX4X4mclH8IOujDNRsnahVYPtHlHxRUrl6ZhJAT+N5KJiPtMf/8HUjI9Rc4U15KNI4ahCgTTO4JCBkC4k0lyjv5tks8883wzFc/mSuVREx2mSL1ziLHHKiUTWYLBWYHlMb7OQHIzfsHgCQR8Un/RlSTNTgX5WZLzIMViDk8S9MrhihYNaVl3duc8b1dZPpzo/ew659uDOtlny+GgrqurlQ+dwCfxxKgwGnEIpYPNeHwjMF0aN0B17EL2Rvx2Kgv3edeWsuot0eyMvwW2ya+xVtTD/BP8BKGvNWfD9ZHFZmmckVRk6bOFly/fPPZs8XqDP56BKkblnIyUSi6QZFSuXUhkIDoB5T1hIogXME/pAZd2lekSZe2xPmGkKTSKspKZ9x6KPD18sPb+2+au3Ut/qqAvvQbsl+dm6eVID4fZiSKeh1pbxuOb6geJyWaYtfAjSFdLAkLiCQHMG34Ok5xUURqrZRkX47killDXq+Z31wZ0u8pAiZ2r/G222vc8Q8iVrvw6dOnFCiq1sFJfZW/76hRNRjFt4MesnjcL4RUr09+e5yPhrsB/txp0rFMt2caqv8F0aGPMeWvhPoZr0/JMMr+0tj3yASrL22wHW+NeayAyVI77EfYYfexBapcI8Id1GjUChQPgVpZpPcQsZhvjspRjaYI+6XGWWRaqzA7XziBJcMofQogEe/rQ0SFZrRw0kqgLn2kxxxbvwPr0XP5T7v6NH7zSya+HsCSPy7xdOHJkP8pFfrbL3XkOkb26kTnWWfI+GsVA1q1wKV5a/qvyG+bckNYOqw3XfouINCqL+7DU1k8rCcdu/Znvr+WL9NlPxj2n4q6vNE+gV9G9KRt11GsT+/Pom/64lCgL6gn/lcakWoDJvNpxcN82KMdLdt1550v13Dmn7zSaDB/kEi6d4kjiz/CtUNrWveZglflT5g9ukHBiVAj9TNvPYJhtsfZ5pOIBGjuH2DqgN507fY+v8WkcGRKO1yat6BZz/n4a0ekK35jy09JESvRb95qPq3szbS3O9Om1zh2mo9lxdSO5O08EnF4XcBz7DCW3OrKh20u8PmA2Zxv2p9ulUSklGCWztyN7aT5jKlvgl3XqXzf8zI/fOvB7eccggIz+wa8Mfot6t8O4+Jzs13wvH/I4cLJ0wh9pzDjnWY4FrX9/iVHFaSCzhmkd89FU4LtycIVU8xu5JDZTU3OW1loTptj+rjwVTpQKzDdZoLmP8mkdFejbpaD2kYr3DqXnGoKFBUySFmcROLaJJKnZJJjq3XNK4IoWNtgIySRkKRjaKG5w6GdoTQb0o8aInmO09UO74N+JAOIVene25mYrYvYFn6f9OxMEm9eIDruuZKsG0UDGte+zd83JKwa1EcZc4XEosp5uWNKg1Gz+MByH2s94/IHWyKV3/qKseIWfnr6tyKQEvFfPY1Ze2KMbNSLgZBN+Jlw6ncfyZsdkvH1vYd2q6Z0dqWnypdTEVnEn/HmcjM3uhfYo9OCL/efJcjfjyB/P84tK2Lfvc70G2k/gCAYPxtQCJVTXarfi+F6kVtXVLT7xpu/IsMI2DsJ8z8m8OWeu2gQMLe0QExPJU378qx00tQWWFnkp8aAfmBKr4XBXI6OJOLcDj61OsCPmy6RpX2JTn1KibkF5pnpZCjqMGLWCNI2/MS+aylkqCywKHSmSH37GjeFmtSpVkQvtYQYrP+AIX0Mlj8ouX7F0KckGGN/udpnCFMJKRsEUU3mh1kI+ywwjRUQVBJS4WIgaMh+KxvRyxRlUSuHJcAYfQojpSeTpLbESntmVac+EqnRB9lxuS5j5y5hzdweJB/zIOj+k6uK4X9KQlm0X09J58zGDYQmaUCdRZb2Nj+d9muhy39KSXhv2szFJDVS5i0ObjxCYrvutNKeeDcm/lcSiZTYWFJqdaRvh9pYCzkk3rrJQ30jikKob/pzNCSWlFxQJ0Rw8FQMVWpVKzRYMUI/wYHe7/cmYe9Oin0cxZj49ZWfEiI69mJo5zi2LtrGxYRcpMxbHPrjJOqevWmR37HOvR5JVEoS9+4lc/t8KHfT43mQbIlNhbzSmBG5nhn/1fDhojWsnN0KvznzOf5Quybmt89RFwk9sYHPnEKY8+XvXNZhaEH/IPH41Gze/fIoyv4LOXJyB4vGdab6KzRoEYItqfCLCVK3NJJWp5A6MKd4gxZJxHS3KVL/VNJbKzD3LOzY9SOGmlNhUgUsLglIjTNI+SWZtLb5+WOnQaPKJaeKCotZNth+Zo15YjZpn2ShKdLZvLwopbRUUrHBroIID4oqXRIJXjs5+fl0BjXaxiq1K64WJ/kxOH/UL9jiYKvh/t2HxW9IBGvc5m7BvX1FqlQS6bXjIO4Vq2OTWQ/PzpH8On4G++KKHWsJMaP+0J9Z/0Eua8YvJzi/9ytUdGXaJzZsn7SHf9TwP6lDAqSH+BI95wcGx//Ou7fUjHoaqKSJWy+cqlRkhXdfNJhgbaMku5s9Hh6P8i7JjWTDuKl4PMjTUtnanZ1Tnkaglxdjv4CppSWK9DTSihyk5hA0vzcf7HHgsx3rcNEkkCIBSKSnpqGxsEJrlyKYWmKpSOdGmgSOGNAP8s5kdOJTzwxUFWrQYewClqzPZey7a4kugwZDL+mppJtVpuGQGXwobuHD3bFo7DtinptBeuFnq9NJzzbDwrzsvIzh+g/69dFf/orMzuJQHH1KgGH7y9k+Q2QKCCYa1K4ZZAqmWHuJUEFCUgvPL+XXyCaroRLTdcVr7PRhWJ/nEaztsVcmcdWYGSexBkOXbmD4tVn07xdIimMnPl24jI0Vp/De8otklbf/KU37VRj1XW7EFqMXbSyaRB5q9c6lxw95pHDG3kqAdCM0tuzN4sOz6ZIvXu7NP/ho9Dr+Mi47Dd9vKLxUSCT7fMeIjGGMn7CWY1/FcvT3FazaG0GiURkmYOMylM/G96d1LUtEjYTCpgaqkOL7UEW9wYxudpGts288V/XKBF3lx5C+esIFx8o4mDRg3GYfxuRfjqDETAzAOv96KT2VNAk0GjVpqWlIWKORtFcwc4jZvRHfD1fR7+ZCpgckFfJ7+e3zn8ZNJjzvH3K4H7SVuUHbWf56XybO+Yk/anzNgLln89v5lx8x0hTLSFMs6mSTMS6N5MqW2KxXIRib/lummN7OJDPWFJOUwoFGkCWieCyi9LLCvFoqSb1zMA8xzcvDHBVmO1UosgBEVEdMEH/OJVdlikkZTWq9CJRSciSXYp3o3Kka62Jiiy5smSHsOJDLykFt8U7ogfLEd4Q/MVJKJjFZpEWliojcLfp+XUgpnJjzDj4d5+A50I+BMyIYtGEFdgtHsErXsLw8ECxxHvMLa0ZmsW7CF2y/+mzaRNXKDVenNrzteYmvtW45cuFNVg8ZwooXlc7UAA4eDEW6e5IYtcOzvyub4NbDkiOzBvFTYBYgUmP4Kja4daPiPg/yhis5JD+M437+wE+VkGF0Pr0Y+yWy0zPQWFjwZDGkSLKj2bj8NAfmTKLHyVl4JUpkx1zmVuVWOFcUiHiQ5xlMGjnTIPMKe/5RQ+38e3XpVwANOcm3Obf3FLdGdqSprUC0zgM0ZYP6XgzXVZOZ7R7F8vf+5JoazBs1pvad688vsyutsDJJJ7boEV2JMKr+P6UIfRL1l7/SylcsfUqAQfsN1K/S2meQeAUKZQZpI5WYzzJDoQbJSY06ToGigP0SOX2y0ARZYJKk/ffSYVCf5xCp1L0XLvGhrC6wj7JoBNv29G51i71zgnmkBu77sXrNad6Z24fGqy8SWd7+pzjtl2BoC5oGTSmTUySiHZUcVTwZnQr2jlRUJ/I41cjCl36G+cMHPT0rIeWm5WltLIbuNxRearK5G7iVuYHbWe48jO9XrmNuyptMOVboRSxF5Y9ZJ6YtH4vpLx8z8sgN0tQiNcdsZk+x34ZkTvuRg7E/NZdjj4zUvdjoKD+G9NUTLsU/4FFWGFveGceOIpyVCeSdn8gPkoqafhGsafuZO52v7OVEpf8wa4APn+27U8IBmz7/oCbhr0Ms/r0773zemtriWSIKX/KSI9wwwfxgDlnv5qIWVSiNTb8kIKSBkKavA1QEgoTaWQ13FEgCYKsmx0WD8EDMGyg9UiCSi8YaeNKtVVIgz18VRNQx7N7oj9Mni/i6nws17O1wrPk6HdrU0eo4qrnqsYfYLuP50lXNkUN/Pyuomjv4+sTQePRkBjW2x0ShwqpyA5ydjH31oYhDnZokXrtBtqIuDare5mpZ9EKMRbClzcR1rB+RxupJ33DgHxELCwsszE1RCJB9YirNnZ1p1Djv5/LpAR5HLqdv83cKNpSCPV0+X8z8wXXL56UAUhLei8YzZduVAk5C2eQNepn5sP/UHeLj44mPf8ClQ0e41sKN7hWNywFAZ/qNtr+UZN++wf0q9aj75A0iRSKRfHYta2O64v5RM8wB9XVP9kY4M27GEJo4WFGhZmcmTu6H+sheArTf1qJDv8IoLKvTYbAb9R9e4bL2nlsd+pSazFAOn3xATkwAgQ+VWNfswqRJPYk7dpIbhRKqqFWf2uqbXL+rz4JiYlT9f0ZhfYwufyXVrxj6lAgD9pe7fYbIVmISJEKsElWChFQ5h4xh2YgBKhTaPWu7HDI7CJieUBnpd43EgD7PEFBZV6fFgOmscG9IwMrNhGtPEuvQR0r/h9jkunTpUQcLETCtRrc322J+6xp3NS/A/xjZfmU/iie1ekva1jAFREzMTIqnsw77jUKoQI/3R9LEWgTTGrz1/pvYBHhzXvtIg774pUwS4+K4n/+Le5T67DyQMRi631B4qRCp1rQDrzmYIaIm+c517qcpMDUpOCzRmT8qW+wsU7l36yHpagWWtV0ZOzD/TZLa6NMPEBz7MLp3Ch7bgyjRSRID8evFkL56wjUPvPAIqscY9/40tlcBIqb2dWnbohZ6m9qnCFTsMYMf37jKgpnz+GbmXhwn/8D79Yuzzwl0+gfRkWbd2vNaNVvMFSKmDk0ZPrAVudevclfvzMFLgqAht2Uuase8bbmSbS5Z3XPhjgLxhaRfQt0mg9Sfk0jtk0v2qHSyE8yw2prfDqSqMA3XkDkmC7UlYK4me2A2mghV3pnIVwgRNNw/NJP/LLhInXGr8Dx9Bq89K3F3dSpQmDVxR9h5qT4tUo/gWaCXoObqpql8ddSMkauOcj40AK9tPzLSxcpIZ66gdr0qxF67g+RYjzrJ17j+ApemBIfeTPyoJQ413Ji3z5/w8yF5v8Bfea8470IULXFq1o52DR2K74xKjAqXN3pg7udVYA+t5s4ZvG42p093ByPzgFKlX+Eygc37D7BvVlesGn/If/cfYP/PA9D6tItB1NcCCUxtRZeWBt5lo7nLvl+2kz1kKu/VVYDmH3ZMn8o+1Qh+PX6Oc7u/oeWVhUxcGoL2WEU/+WcyoiKJOLuLOS2usHDKGi5od7ZKoY9+Ujm32J0lsV1YdSoQv10zcb4wj6/+KLzVQKRGxw5UvRSAvncQFB9j6r8ufYpR/kqsn7H6lBR99r8I+wwhoNpqiUVcDqmrE0n8KR31FQusjhR8irpXJrnXTDG9VeDPZYA+ffJRtuFbr4tcPLOTn4fa4/vNGKZ53i+4SqFLn8wglk5eT2K/1ZzyDyDYaxMTLA/yxTf7uP9CGnvj2q+c4N+Yd0DFmD99CQ06y7Fvu2EtgMJpOCsPneTc0Vl0MHdhyp7T+BxcwtAQ2uAFAAAgAElEQVSahZyfLvsxwn/mBPDHEUem7fQh5OwOPrE+yLQfjlJggl9P/PpR0PD9NRw+dYzvupnz2oQteB/fy5yexk42ljcCFVze4+edpwgODibIcy6vhS5g6Ym8A+5P0JU/pPrw6+rb9FjtTWigFzunNyLYM7DgeUQwoJ+CBkNH0ipyB7uvltDr6Ijf6PJTUjRx7P96Epsy+rHQ4yxh5/05vf1HRje3f34VqggU1frz/bct8Jv7A8ceasiM2sDMTQIfLfiYZsa+rEyvfzChRo9P+WXbEQLCwgk5vIR+mduZMq9Q+X6J0bTOIHV+EolbE0hclkZ2lilWv5XR2xgNIYmYbLTGZrwt1keVmKyqgPVvpiifHOKVBEx+s8QsO5uU1YkkrE0lU2mC1W8mxm9Re0kQ6jVsZFyShYoMXLmHvj7DmbD3wau2giTz0qOg4cfb+f31LQyc7Fn+22teNUya4L5rGY7L32Gmz6v1DQQZGRkZGRmZ8kPTPAv1PVNUxnyf5RXEmME1IGDbbjxjG51l23F5oCJTHqi5suVHPKqOZWL7l2VW72VBSZ3h7rhdX8ryM/JARUZGRkZGRuYZ4oX/vwMVMGJlRVF7FL/+dwLO6hj2zpvG0rPx+g8hysjIyMjIyMjIyMjIlAEGBysyMjIyMjIyMjIyMjL/C4zcBiYjIyMjIyMjIyMjI/NikQcrMjIyMjIyMjIyMjIvJfJgRUZGRkZGRkZGRkbmpUQerMjIyMjIyMjIyMjIvJTIgxUZGRmZckfAyuV9lu31ITQslAsBB/m6vfYHUA2Fy/wrUXVk3ukDTHF+/lOFMi8Bcv7IyLwQ8gcrJtTsMYllO08QEhbOBb+T7F87nlYWBS8uTwS7gaw9OJ2WSgWNJu7gt2GOL+hbGyqqdvqIhVsP4xcSxkX/I2ye1ZfaJk/CRaqP3kJkdBSXn/wiTjKrtVI7knLDxG0JF6Musu/j+nlfvhWseWtZEH9H7OPzRloOUunCtMOXCFvdH3st4YRKw9l0fhOjtD4nr+o4l7OnZtK2uCaYvM7E3WFE7R5PPW3fLFagodsnLPXw49KuQmHFwawpX+zaz3edK2h9GbwyIzZe4HJ0JH9HXiDM9yAbZw/mdctnRooOHfh0hQd+oRfy8+9t6uf38wzq9zT+KP6OukREkBceqybjWlP1NP7yRrBrzfjl+/ALvcilwCNsnO5GwccrcBr5G8eWvU21cple0FP/jdVHR/krCwzrU1r02P+E0tonONLvi8+of34Gb7RpRYtu77E8NNOocEP2K6p2Y/LqfZwLOs+FgOP8OX8YzlYlSaQudOsjVBrOpgtRXI6KJDrMD6+dy5naryFa1bMMMKF6t49Zsu0ogaHhRIQeY2ab4jqv0qFo/DkHdpTCt+mjrPxniVDQcMxajnidJexSJNFh/vge92Bur1frW1fllT8KF3eOR2i1/U9+4Svpb1X46n8hWu3D5agIosPOcWLrAsa0sHmlyo/My48IAvY9ZrPpx6483urO21070nnAeL77/TQxGYUvLz9Mm7WmbnQIf2kcaNlcIiz88Yv5+J1gTYPWtXm4ZzYj3DrTZdRy/o+9M4+Lqvr///PeGXaQRURzwz0Dcd9wXxBLTcu1NNNP5lKZKWmallpafnLLNU0rlzT3HXcBRUEWERWkNDdEXJF9EZg79/cHqAPCzDCA3/p97vPxmIcPOfeeOe/XOef9PtudG+c5mzmDqufP5AScKjkQv+F9mng0xs2jMW5NX2feOU2hjMoLmZz4u9i1a583ULVsSadmGdxPKPi2G7VbD7pwnbuNvenkWB5uQk394dN4Q75BUoGKUdFgzCpWDa9MzJlo0nWTSoSKusOmMujhOpYHpRaq+1xC53bHrXEbuo1cxq3m01k42i1v8iFWZ8h/FzFQu4PxvTvTechczjecykqfVuSNNY3RLxu/L1rTsFEzWvf6lB3avvx3Wi/TBqUlRahA96nzeVf+g9FebWj//l6shs5jwfDaefYBIBG7/UeOuE7Cp7tDGQcBY/q/YX3Krf0ZpU9pMMb+MrBPdMLFWeJKeCSJEsg5GWTmGpFuyH7Bnl7T5tErcSWDO7WixRtfEOTqww8fNHx5+mjCmdO9CY079uezjXdoPu03lr/jWmbf79h1JhtmteT2uon0adcCj5Z9mH/+ZfnfPMyr1aByuSwUGOM/ZeRyC4YSVzd8RK/uPZl1Kou/fh5O1579me3373r5bHnVjxS1hF5N8+O+R2PcPJrQcbo/CVHhXMh8elV51s+/gVxC53bjNffGNOn8DrNCqjF+4ae0sSh8nYKC6YioajFwnDcJv0zluwPR3E/PIj3hJpHhV0mRQd1oIr7+c+hs8/wmVb2x7A5eTr+noxWVC+3HLmDr0SAuXorknN8ffO1VyagzZurGH7HJ15dD3/Wicvsv2HNwC5+3rM3gpXtYP8a9jAKeHuREApd+xYK9EcQmZZJ6wx/fsHRq1q2W/90qKjo78DD+HjmShJT/eeHFmGJ13l17Gv+Z7SjbwxsCxF8kyqUDHSqJWDTtSIvbEVzK0b1GjXuPrognl7PpcmN6dnIs+YDWQPlVrkOY8fZ9fv7jSqG8Ja6uHYH38NlsjEw0qs6LRO3BoIGvELj9GAnFOX5tNsk3TnLgbAKv1KyGGlDV7s2gJjGsnbeNyPspJMcFs2rpQdS9BuBpDcbpl48skfU4Bt8TMagqV8FJ1xgD+piMZWte7/CAP5bsJiZJpmYPL2plSzTq2Y2auo0/90927Y2n8xBvXEwWuQgM9P8CFKuPEe3PVP2M1cdUjLLfdPvEKv1YuO8ogac2MrqeLW8sDiXqQiQX/b+inZnhdMP2q7G0EomNjOBetoyUHEP4XymYW1m+WEZTMEofABlNxgOiDy7ks/nncRs9kgKn2IrRxyCqWgwa155LP0xm2YkrJGRrQdagkQpfWAr0xC9Vo3Fs9gsieGFPHNzGsy8ikqgL59g/IT82qVvhs/0oZ0IiuHz6Wwa8/iVbjp4kOOgoczpZPf+OYu03zn+6dJ7C+oOnCA87zeHVE+joUqjxF5v/vx/BvjmjFm0n4GwY58OCCNg5n4G186OzofpBwMlzHMu3HSU0/ByRof7sWvg+zewK9Y5i9dM+i/mSJCFRk7fe8eDclv3E6QwCTK4fY9tPKRDs3Hln9nqOnQnhXNAxts4d8mzn1dx7ASfWfM+Snf6EHP2Rz8YvZI//afyX9aemCgS71szYf5JfBtfIXxyxo+30/ZxePbAI/yuTm3aH0P0BXLd3pWbZbq8q/I8jCraNaV7nNqcCb1OU/9fE7GT7nc4M7u6UH/xU1PHyovKZfQQkyoAK16ELWDrInIPTBuDZ0hOvUfPZFZX44oC+CDSXVvHem8NYHhnL5k9603vyPu6ELWJg776MXHO5yDKVK6oaNHa35saVW/nfbYGdrRUe47cREhpC8JFNzP9PK5wLRxU5ndgLIZyNeYjugmlZIAhXCQ6vTse2FWnUsTUPAsNJMdNd1nbHu6uKQL8g/P3/oql3p5LvCugrv1iNAV8OJX3tYo4nCy8GVEmTp5UgvphmJKq67WjrEElghJ7tPNECx/reDOxow/mz0eQCFg1ew/XBZaJ1dkpyrkRz1bIBr9XID1eG9HuGgLljQ970bkh8cChxuo1Pnz6lQPVKbVylv/krXsKs/nt83f8RC0f/SHi1euTH43y03D0bTHyjdmV6PNNQ/y9IMfoY0/5M1M94fUzDKPtLYZ/2/j4m9+tJp87v88u1NA5NaoNH02Y06TaX4FzD6QbtlxM5smYrdsNn85829XB743M+ee0si36/RFnsPRilTwFkEgIDiKrQhGauOhVUjD6GEOxb0KbWNeKcPuaXPUcI8DvE9kVj8HzBAZuK/vglRa9mWPf2dJhxiqw/V9CvRTM8mrak77L82KQJZ/HgnnTsNY8Q2174DEln4eButOvUl7nBOr5Mn/2G/KeqDj3aJvHj0G607vQeazL7suCrXjjrtkF9+f+rEanabyIfVzzIB13b0LxNF97+/CdO3clrjQbrB5mUe5c4tPBDvDxb0vL1SfhV/oiZw+sXXAg1Uj+rlkMZ7HCUzQHJz3eeSlM/xrYfUxFd6DNnJR9X9mfKmx1o1X0026xGsWxyO/JOsYk4vybgO2owi2I78UGrC0zoN5NzjfvS2UVETgtj8fQdOIyfy4h65jh2msy33a7w3de7uf2CQ1Bh6VSfHsN7U+/2eS6+sNqloGA6asHOHnshhaSUYqYW2ngObItgzJA+VPfdSJxQhx5ejvgvCSIVQHyFLj3dubbpLTZH3kcLZN66QHKhbPSiqo9brdtcuilj270e6msnSf4/aecW1H9vBiNt9jDR90H+ZCsN36neBAupJGaZ4dJiKHMXLWPBk0GM2nLn+YRMTiZ45RSCn+VVhgg5RJ6KZHTvYbxRK5XAafeoPux5strdi25mgcyMyiYh3p8rn3nTxWkfux7ni6huxud7T/Pp08KqrbBN2/nsfkBP+UUq9/6CUeJGRvk+QNuxcLoOgmDyaq6Zax2q3bvGDZ1j/M8xo81X/vz5FciaWA5/N5bPd95Fi4CVjTViZjoZupdnZ5IhWWNrnV8aA/qBBd3nh3FlPiDn8ij8V75Yf4ls3UuK1aeUWFlj9SSTLFVths4YSsbakey53oRuZtZYqwGdHSDp9nVuCV7UrqqCqy9ECpMw2P8BQ/oYbH9gun4l0McUjLG/XO0zhEH7ZdJj9rP1ylKmzF7E+06WRC2fQuj9l9k+CiJnppIi2WCru7Jqoj6iSxVcLDzwrLGVKUPnEaupRIfJq1k09zH9P97FfeOLVTRlEb+ekcmpdWuJSNEC2SX3H8X5TzkF//UbuJgiAbHsX3eIsb90oYXVAY4+PYpkTP7/SmTS4uJIq9mOXp6BbDx1k+TYW4Uv0ot0K5jDt/L/kxTF/hPXGP5aVVRcfT4BN0Y/wZme7/ckadcIdB83K7v60dN+TESs1J1BHR6wafBmLiblle/A78f5aFlPmn0XRCiguRHN5bQU6t5L5XZCBHcz1TxMtcG+ggD3ICt6DdN+bcn6BT/RrUIVgmYO4+gj3Y6XH59nyGiyErh5/jCzPv+NK2XjghQUAFDLGemkY49jBREeFtW6ZJL8tnF8wlT6v7qZFZIXXtbH+T4sf9YvOODsoOX+3UdG7aQUQLDDe/ZGfNpWpIqLSPet+/GpWA37J3Xx7RDNz2OmsedBiXM1EUvqDfqBNSM1/DRmKWE6o185K4nHAEg8OLeBJbvfYnPXtjhs3Uniy5hUCZAZHkjMrO8YkPAb78RKvPcsUU0j7+64VqnIMv9eaDHHzl5NTmcndu/OKzWaaNaOnszuh3laqlv6sG3Sswz0IlT0YspH9mwZv5M7Ejz73YEyRcDCxgZVZgYZReqZS+jcnozc6cynW1fjoU0iTQaQyUzPQGtti84pRbCwwUaVyc0MGSphQD/IeyajPR/7ZmFWoTqeo+axaI2GUe+sIqYslqf1kZlOpmVlGgycxgfiRj7YEYfWqR1WmiwyC3+3lElmjiXWVkUOaUzCcP8H/frob39FVmdJKIk+JmDY/nK2zxCG7BerM2jxWoZcn0HfPiGkVWrPx/OXsK7iJN5depEi5/4lwLA+LyLYOeGkTuHvMllxEiD7LOtW+BGbBfCQ4E37ub3Dkybmu7hfWgNLE78KI93lZpy+dXkT0Sbz6NHzfOXERzxWueNkK0CmERrb9GThwZl0zHfemlu/8+Hw1fxpXHUavt9QeqmQSQ34hqFZgxkzdhVHvojj8G/LWLErimSjKkzA3mMQn47pS8uaNohaGZV9dczCS+5DVXUHMLzJRTbNvFlwl7G09fOU4tqPIX31pAuVKuNsXp/RGwIYkX85ghpL8Sx2+dfLmelkyKDVSmSkZyBjh1bWPUGRy7Ud6wj8YAV9bs1n6tmUQn4vPz7/8XSBtxB6ymdUuoICoJZTo7kU50qH9lVZfS2u6Mb2JJyt+zQs798a/6SuqI99Q+TTFU05leRUkWYuFRG5W/T9xSGncWzW2wS0m4XvW0G8NS2K/muX4Th/KCte5rRcsMF9xI/8NCyb1WM/Y8vf+iOgpJGQNblGHosoI9LPsn9/BPLd41yTnJ//Xd0I7642HJrRn/+GZAMi1YesYK13Zyru2Z0/ycol9dED7udP/MySsoyuJ7MW3ni5tuJN30t8qfP3QxfeYOXAgSwrk3qSycnMQmttzdPNkCLJiWHd0pPsmzWersdn4Jcsk3PtCrGVW+BeUSDqYZ4LNX/VnfpPrrLzjgS18u8tTr8CaMlNvc2ZXSeIHdaOxg4CMcU+QFM2SPeuccNsIjN9LrP03T+4LoHVq27Uir/x4ja72hZb80ziip7RmYRR/f8ZReiTrL/9lVa+EuljAgbtN9C/SmufIQzZLzi0pWeLWHbNCuOxBNwPYuVPJ3l79uu4rbxIaZ9DN6jPC4i4dOmOR0IEKwucozQN7YPbxNMaF0cRMvO+XTAzQ62V0JSF9iWJX0IRR2ALoEVbepNfRHTEpZIZ5EccwakSFaVkEtONFCDzFHOH9H/2rISsychrK8Zi6H5D6aUmh7shm5gdsoWl7oP5dvlqZqe9waQjhX6Ipaj6sWzPlKWjsPhxHMMO3SRDEqkxYgM73QpfaAgr2g4bgNOJ2RzR3VGF0tfPM4ppP4b01ZMuJzzkcfZ5Nr49mq1FOCtzAC08FVIuavlFsKP1pz50uLqLYy7/YUa/AD7dE2/8+EdP+YxKV1AARKRr7FgXjOtHC/iyjwfVnRypVOM1PFvV1hk4Svy9eydxHcfwuZfEoQN/PW+o2ngCA67hNnwi/d2cMFeZYVu5Pu6uxv70oYhz7RokX79JjqoO9V+5zd9lMQoxFsGBVp+sZs3QDFaO/4p9d0Ssra2xtrJAJQAqV9r38qRBFXusLO1xbTuCiQOcCTkWkr+6/zQfJzpOWMjcAXXK50cB5BT8F4xh0madrWtA3agH3S0D2HsinoSEBBISHnLpwCGuN/OmS0XjagAotvw5xybT1N2dV93yPh4f7yMxeim9mr5dRhOVPHJu3+R+lbrU0fsLIjKpp1ex6lonfD5sghUg3fBlV5Q7o6cNpJGzLRVqdOCTiX2QDu3i7LNfa6FY/QqjsqmG5wBv6j26yhXdM7fF6FNqnkRw8PhDcq+dJeSRGrsaHRk/vhsPjhznZqGCqmrWo5Z0ixt39VlQQozq/88prI/R7c9U/Uqgj0kYsL/c7TOEAfvlzDvEpdahY9faWIuARVU6v9Eaq9jr3NU78jYSA/o8R8DMrhrN+k1lmU8Dzi7fQKTuIrGJ+sjJp9l7ugYjvxjIaxXUqGzr8MaofricDXi+YFYajIxfOY8TSK/WnNbVLQARc0tzI+NbPibaD4BQga7vD6ORnQgW1en9/hvYn/XnnO4jDfryl5+Q/OAB9/M/Dx6nl+x5JkP3G0ovFSJVG3vS0NkSEYnU+Bvcz1BhYV5wWlJs/Zg54GiTzr3YR2RKKmxqeTHqrfxfktRFn36AUOl1hvdMY/eWUF54kqS09WMIQ/rqSdc+9GN3aF1G+PTFzckMELFwqkPrZjXRG2qfIVCx6zS+7/E386bP4avpu6g08Tver1eC347XUz6j0hUUABG03D8wnf/Mu0jt0SvwPXkKv53L8fFyLdCYtQ8Ose1SPZqlH8K3wChB4u/1k/nisCXDVhzmXMRZ/DZ/zzAPWyOduYpadasQdz0euVJdaqde50ZZBCEjEZx78smHzXGu7s2cPcFEngvP+4T8zLuVRUCkSucJrNx5nLDwAHbM7kzir+OZtq/Qlqdog2uTNrRp4FxyZ2QyZnj06IpVkF+BM7Ta+FP43WrK612cjawDSlV+lcdYNuzdx54ZnbB1+4Bf9+5j7w/90Hm1i0Gk6yGEpLegY3MDv2WjvcueH7eQM3Ay79ZRgfYOW6dOZo/ZUH4+eoYzO76i+dX5fLI4HN25in7yn8m4HE3U6e3ManaV+ZN+4oLuYKsU+ugnnTMLfVgU15EVJ0II2j4d9wtz+OL3QkcNEKnezpNXLp1F328QlBxj+n9x+pSg/Zmsn7H6mIo++1+GfYYwYP+TUBZPXENyn5WcCD5LmN96xtrs57Ov9pT+eQ5Avz75qFvxtd9FLp7axg+DnAj8agRTfPOe/3iGqfrIiRydM5EN2f1ZdTyUCL+1jDTfxaS5R8voCK5x8Ss37Bfm7DNjxB+BRISe5sjXnbETQOU6hOUHjnPm8Aw8rTyYtPMkAfsXMahGIeenx36D/jP3LL8fqsSUbQGEn97KR3b7mfLdYQos8OvJXz8qGrz/EwdPHOGbzlY0HLsR/6O7mNXN2MXG8kaggse7/LDtBGFhYYT6zqZhxDwWH9N5wJ3i64f0AH5eeZuuK/2JCPFj29RXCfMNefF5EL36qag/aBgtorey4+8ivE4p6sfo9mMq2gfs/XI867P6MH/3ac6fC+bklu8Z3tTpxV2oIlBV7cu3XzcjaPZ3HHmk5cnltUxfL/DhvHE0KZsfK1NQMAqhboNXjXP5QkXeWr6TXgFDGLvrYVGbhQoKpUBFg3Fb+O21jbw10bfcj9f86zBvhM/2JVRa+jbTA/5d70BQUFBQUFBQUDAVYybXgIBDmzGMevU0m48qExWF8kDi6sbv2f3KKD5p+09Z1funoKb2EB+8byxm6SlloqKgoKCgoKDwv4PBnRVVrff4+dexuEvX2DVnCotPJ+h/CFFBQUFBQUFBQUFBQaEMMDhZUVBQUFBQUFBQUFBQ+L/AyGNgCgoKCgoKCgoKCgoKLxdlsqKgoKCgoKCgoKCg8I9EmawoKCgoKCgoKCgoKPwjUSYrCgoKCgoKCgoKCgr/SJTJisI/G1UDRq8/TmCAP2dCzhO9aQRl9b4sBQUFhX80Zu2Yc3Ifk9xffFWhgoKCwv8K+cM+c2p0Hc+SbccIPx/JhaDj7F01hhbWBS8uTwTHt1i1fyrN1Spe/WQrvwyu9JLetWHGK+0/ZP6mgwSFn+di8CE2zOhFLXPda8yp1nkcizYfJiQikqiII0xvpda9oNww917ExcsX2TOuXt6bbwU7ei8J5a+oPUx4VSeAqT2YcvAS51f2xUlHOMFlCOvPrec9ndfJm7WbzekT02ldRiYIji0Zs3QPQREXuRRyiHVTvalhVvgqI7BszGfb9/JNhwrP6166ytqRPejUtTt9F4Sj+1L5/18wrJ8K12G/cGTJm1Qtl4manv4vVmbougtcibnMX5cvERXqx+4VE/EqXMHFtL+ywLA+pUWP/U8pR/vKgldys5iTlsKx5ETOJCczSVP4itJQvD6CyxDWX7jMlcvRxJwPwm/bUib3aYBNGWqk0ubyUXoKh5KTOJWczJrMbBq+5N+wVLlNYN/WMdQtjzmDWIEG3h+xeHcQl7aX03cUi4oGI1ZxyO805y9FE3M+mMCju5nd/d/1rqvyqx+RasM3Eh1zmStPP1HHmdGybIJnm8xkfnsivbBq3DEjmdXZ2hf+/m/jZfgHhf8NRBBw6jqT9d93InGTD292akeHfmP45reTXMsqfHn5YdGkJXViwvlT60zzpjLnIxNfzsvvBDvqt6zFo50zGerdgY7vLSXOczZzBlXPdxQCjl1nsmFWS26vm0ifdi3waNmH+efLdDSgB5mc+LvYtWufN1C1bEmnZhncTyj4thu1Ww+6cJ27jb3p5PgSPYFQge5T5/Ou/AejvdrQ/v29WA2dx4LhtfMmV0ajou6wqQx6uI7lQakvp+7/CRiln0Ts9h854joJn+4OZTyIMKb/Z+P3RWsaNmpG616fskPbl/9O61Vg0F5u7c8ofUqDMfaXo31lgENuBj9larhjacs79k50cHBgedmMpTBKH004c7o3oXHH/ny28Q7Np/3G8ndcy6h+ZLwy0/ESrRhl70g3e1vCpExmPZHKKH/jMK9Wg8rlMnJU0WDMKlYNr0zMmWjSCycDICOXm0OUuLrhI3p178msU1n89fNwuvbsz2y/f9fLZ8uvfgScKjkQv+F9mng0xs2jMW5NX2feubKJ/49EEXutXGhSIuMgyzwWhP8/3mlXrv5B4X8FEVUtBo7zJuGXqXx3IJr76VmkJ9wkMvwqKTKoG03E138OnW2e36SqN5bdwcvp93S0onKh/dgFbD0axMVLkZzz+4OvvSoZtSqgbvwRm3x9OfRdLyq3/4I9B7fwecvaDF66h/Vj3Mu/QcuJBC79igV7I4hNyiT1hj++YenUrFst77tVtRg0rj2XfpjMshNXSMjWgqxBIxXKR6zOu2tP4z+zHZaFkkqHAPEXiXLpQIdKIhZNO9LidgSXcnSvUePeoyviyeVsutyYnp0cSz6gNbX8lq15vcMD/liym5gkmZo9vKiVLdGoZzdqlqTy1B4MGvgKgduPkVDCKKmu0olPl+7kZPBZwgMPsG56X+pbA1Sg38oQ1vYvrIcKj0n7ODy5CUaP6UzVxxDG6pf7J7v2xtN5iDcuxnQsYzHQ/wsgS2Q9jsH3RAyqylVwelYOI9qfqfoZq4+pGGV/OdpXaiT6PcnlspUta8xUJOYXrGyGUhipD4CMJuMB0QcX8tn887iNHklbXSFM1kfGEohTmXFfAElQc14lYI78Yh2Yip74pWo0js1+QQQv7ImD23j2RUQSdeEc+yfkxyZ1K3y2H+VMSASXT3/LgNe/ZMvRkwQHHWVOJ6vn31Gs/RJX147Ae/hsNkYmFhszXTpPYf3BU4SHnebw6gl0dCnU+IvN/9+PYN+cUYu2E3A2jPNhQQTsnM/A2nn2G6wfBJw8x7F821FCw88RGerProXv08yuUOspVj8VFZ0deBh/jxxJQsr/6E4iBDt33pm9nmNnQjgXdIytc4fgbmtc/o9EgQqyFhVa+qcncTgzF3O0OMkij8SyaeH6ymfuvYATa75nyU5/Qo7+yGfjF7LH/zT+y/pTU7Ubp80AACAASURBVAWCXWtm7D/JL4Nr5Okp2NF2+n5Orx5YQv9rwD8oKBhAFGwb07zObU4F3qbw+BtAE7OT7Xc6M7i7U35wUFHHy4vKZ/YRkCgDKlyHLmDpIHMOThuAZ0tPvEbNZ1dUolGrAppLq3jvzWEsj4xl8ye96T15H3fCFjGwd19GrrlcZJnKFVUNGrtbc+PKLSRAsG9Bm1rXiHP6mF/2HCHA7xDbF43B07lQWJHTib0QwtmYh2V+VEkQrhIcXp2ObSvSqGNrHgSGk2Km48jU7nh3VRHoF4S//1809e5U8qMqJpZf9UptXKW/+Stewqz+e3zd/xELR/9IeLV65McTo1DVbUdbh0gCI0q4nadqwAdL5tE1fjGDO3vSts80Trn6sOqLDlQQMrh1M4Gqtaojiq/w+pSF/HdYI8ywwrVWJW5fjzW+fZmojyGM10/L3bPBxDdqV6bHMw31/4IImDs25E3vhsQHhxL39AZj2p+J+hmvj2kYZX852ldaBFlDC0lFvJzFstRk9qWk8FtGFq2Mcb5GYJQ+BZBJCAwgqkITmrnqVJDJ+oj4WVpil53BUI3EqzmZfCiZ8ZOFuowmZPrjlxS9mmHd29Nhximy/lxBvxbN8Gjakr7L8mOTJpzFg3vSsdc8Qmx74TMknYWDu9GuU1/mBuv4Mn32S5q8vASx6MmKqg492ibx49ButO70Hmsy+7Lgq14467ZBffn/qxGp2m8iH1c8yAdd29C8TRfe/vwnTt3Ja40G6weZlHuXOLTwQ7w8W9Ly9Un4Vf6ImcPrF1wILVY/C+xsrfAYv42Q0BCCj2xi/n9a8Sz8iy70mbOSjyv7M+XNDrTqPpptVqNYNrkdtrrZFJP/E1EkU6vFUdbgoRVJkzTUlmWctQKPimwMJcRg+UScXxPwHTWYRbGd+KDVBSb0m8m5xn3p7CIip4WxePoOHMbPZUQ9cxw7Tebbblf47uvd3DbOIRSiGP+goGAAUbCzx15IISmlmOimjefAtgiaDOxDdZE8x+nliP/+IFIBxFfo0tOda5sWsDnyPpk5T0i+dYGYByVoyar6uNW6zV83ZWzr10N97SrJhVd1XwoW1H9vBiNt9rDK9wFaQHSpgouFB541Qvl26Bt0fX0kyxJeZ9Hct9F5DATkZIJXTmHGzmtGBvUSIOQQeSqSel2G8YZnKoGB99CNamp3L7qZBXIiKpuEU/5caeJNlwJndJrx+d7ThAYHERocxJklRZy7N7X8VtZYPckkS1WboTOGkrH2v+y5nkaWmTXWRm9bgJlrHardu8aNJ4VT9KOq14Petc7x26pgHuaClHqZTT/5ou3Zj7aWWmKv36aSaw2snTsw8PWWtH/HGzeLatSunsiNm+nGH3UwVR9DlEA/6fZ1bgk1qF217Jy8wf4PgAXd54dxJSaaqDNb+dh2H9+vv0R2fqrB9gem61cCfUzBGPvL1b5SImq1OMsaWmnVzLdzoJ+9HWuEHOZmZuNS+GITMEafwsiZqaRINtjqHkwvhT4ZKnN2qSSGZ6SzMDOHNHMLzpXFQA7KJn49I5NT69YSkaIFKZts3dmUMfYLQtG7RXIK/us3cDFFQn4Sy/51h0hu04UWOhs3RuX/r0QmLS6OtJrt6OVZCzshl+TYWzwqwYxMuhXM4fA40jQgJUWx/8Q1qtSsWmiyUpx+afhO9aZ7ty60aduFt7/yx3HkMhYMyTsmLlbqzqAOD9i0YDMXkzTIT2I58PtxpG49aab7XF0x+UuCyGNZxlnSUEdlwTE0NJa1OMoij4psDCXDmPJpbkRzOS2Fe/dSuX0ugruZCTxMtcG+Ql4BsqLXMO1XLR8s+InlM1sQNGsuRx8Z7w8KU6R/UFAwgFrOSCcdexwriPCwKDcnk+S3jeMTptL/1c2skLzwsj7O92H5q0aCA84OWu7ffWTUTkoBBDu8Z2/Ep21FqriIdN+6H5+K1bB/UhffDtH8PGYaex6UOFcTsaTeoB9YM1LDT2OWEpbx9O8CZJ9l3Qo/YrMAHhK8aT+3d3jSxHwX90s4uDYJATLDA4mZ9R0DEn7jnViJ954lqmnk3R3XKhVZ5t8LLebY2avJ6ezE7t2P8y7RRLN29GR2P8zTUt3Sh22TnmVQOjLTybSsTIOB0/hA3MgHO+LQOrXDSpNFptFLnwIWNjaoMjPIMHr2kIfo4Ih92gMe6ixiah/e44HZa1S0g/Rbt0isWouGbRtQK+x3dtfxol39y9SqfIfg2KLa+0umJPpJmWTmWGJtVXZO3nD/h7xnVtrzsW8WZhWq4zlqHovWaBj1zipiNPrbXwmr80VKoo8JGLa/nO0rCwQz/rA0J04AEAmztCAuNZdGsgX+pWwqhvV5EcHOCSd1Cn+XyYqTln4ZabytsuFdezMytLmMykhnhdaWD63UzybMJlOa+FUY6S4340owijYWbTKPdEbncuIjHqvccbIVINMIjW16svDgTDrm/2iM5tbvfDh8NX8aV52G7zeUXipkUgO+YWjWYMaMXcWRL+I4/NsyVuyKItmoChOw9xjEp2P60rKmDaJWRmVfHbNw4zuGnJVEXiSVeHBuA0t2v8Xmrm1x2LqTlEqVcTavz+gNAYx4eoOgxlI8i505GNrm0ooqEuRc6mu0pKktCdfmMDBXSwVB5PHTIhrSV0+6YKh8gJyZToYMWq1ERnoGMnZoZUFnPTSXazvWEfjBCvrcms/UsykF/Z6e7y+KF/xDCe9X+N9ELadGcynOlQ7tq7L6WlzRDvtJOFv3aVjevzX+SV1RH/uGyKfPTMipJKeKNHOpiMjdou8vDjmNY7PeJqDdLHzfCuKtaVH0X7sMx/lDWXHlJbZUwQb3ET/y07BsVo/9jC1/P5+BaB/cJp7WuDiKkJlnnWBmhloroTEiTpQZ6WfZvz8C+e5xrknOz/+uboR3VxsOzejPf0OyAZHqQ1aw1rszFffszneyuaQ+esD9/ImfWVJWyepJD9K9a9wwm8hMn8ssffcPrktg9aobteJvlGCbWCYnMwuttTXWxscQALQJj0is4E5lG4Gnh+jFylWpnJtIQpqMFHudOOfWeHs25M+gOZxOfpvxrzfGPOUmN9NeZgUWTYn0U9tia55JXElndHowqv8/Q0tu6m3O7DpB7LB2NHYQiEnW3/5K+vxRYUqkjwkYtN9A/yqtfaVFK4rcJ5dKMjxblpdl1FAmK+wG9XkBEZcu3fFIiGDls3OCpiPIuXTTqDhgbUYSgGjGL1Zm9M7IoaGVmouFbygpJYlfgu4Arii0aEtv8ouIjrhUMuNpjQpOlagoJZOYbmTjyzzF3CH9nz0rIWsyeFySchq631B6qcnhbsgmZodsYan7YL5dvprZaW8w6UihH2Ipqn4s2zNl6SgsfhzHsEM3yZBEaozYwE63whcaj6SRkDW5SICc8JDH2efZ+PZotpriDASBR2hprZH501LkiqjCNVtDrqjOj90Y1ldPuqHymQNo4amQclHLL4IdrT/1ocPVXRxz+Q8z+gXw6Z745/5Fz/e/SBH+oUT3K/yvIiJdY8e6YFw/WsCXfTyo7uRIpRqv4dmqts7AUeLv3TuJ6ziGz70kDh3463lD1cYTGHANt+ET6e/mhLnKDNvK9XF3NfanD0Wca9cg+fpNclR1qP/Kbf4ui1GIsQgOtPpkNWuGZrBy/FfsuyNibW2NtZUFKgHk5NPsPV2DkV8M5LUKalS2dXhjVD9czgY8n7ABCE50nLCQuQPqlM+PAsgp+C8Yw6TNVwsMQtSNetDdMoC9J+JJSEggIeEhlw4c4nozb7pUNK4GANPL/ySCg8cfknvtLCGP1NjV6Mj48d14cOQ4N0tQjTm3b3K/Sl3qWBRO0Y906xgH/m7OqI87UsUcRDs33vuoD+b+Bwl9AnLqLW5lu+HpFk9YRBKXwy5Rs1N7nOOuU6KNFVP1MUQJ9FPVrEct6RY37pak4AYwqv8/R2VTDc8B3tR7dJUrKbLx7c9U/Uqgj0kYsL/c7SslsmDOQTMt72Zm00AGUZbo8SSHSmbmXCqi/kqMAX2eI2BmV41m/aayzKcBZ5dvIFJ3VdlEfWRE4gUJz1wJawBZS7scDZYqFfcKX2wKRsavnMcJpFdrTuvqFoCIuaW5kfEtHxPtB0CoQNf3h9HITgSL6vR+/w3sz/pzTvfxPn35y09IfvCA+/mfB4/TS/a8j6H7DaWXCpGqjT1p6GyJiERq/A3uZ6iwMC84LSm2fswccLRJ517sIzIlFTa1vBj1ltuLGhWnn8qV9r08aVDFHitLe1zbjmDiAGdCjoWQJoP2oR+7Q+sywqcvbk5mgIiFUx1aN6tJgVBWXP6I3BclmksqolSQrVKTJGmoIgjPJyuG9NWTbnT5ikWgYtdpfN/jb+ZNn8NX03dRaeJ3vF9P54ybnu9/jh7/YNT9Cv/riKDl/oHp/GfeRWqPXoHvyVP47VyOj5drgcasfXCIbZfq0Sz9EL4FRgkSf6+fzBeHLRm24jDnIs7it/l7hnnYGunMVdSqW4W46/HIlepSO/U6Nwr80lX5Ijj35JMPm+Nc3Zs5e4KJPBee9wn5mXcriyAncnTORDZk92fV8VAi/NYy0nwXk+YeJVF3EUK0wbVJG9o0cH7REZYbZnj06IpVkB8ROsfRtPGn8LvVlNe7OBtZB5Si/OmcWejDoriOrDgRQtD26bhfmMMXv98s0cqudD2EkPQWdGxe6CdC1E345HdfAk6dwW9mO6yaTmL/GX9O7JlOF2tAusnGz6dyvPIn/H4imLCjP+L98Cc++e8pUmVAiuXanerU0UYQ9lDLk4vhXKteB3XszRd/7UofJutjCGP1E6nezpNXLp2lpL9BoB9j+n/+MyuXo4k6vZ1Zza4yf9JPXMgtQfszWT9j9TEVffa/DPtKi4C/tS1bhWwWpSQRkJLGu1gww9o8byei1OjTJx91K772u8jFU9v4YZATgV+NYIrv/YK7FKbqI5jxk40lKTlp7ElO4kRKKiNlc760tuBh4WtNwrj4lRv2C3P2mTHij0AiQk9z5OvO2Amgch3C8gPHOXN4Bp5WHkzaeZKA/YsYVPjNtXrsV3mMZcPefeyZ0Qlbtw/4de8+9v7Q7/kzkbln+f1QJaZsCyD89FY+stvPlO8O87hM4o+KBu//xMETR/imsxUNx27E/+guZnUzdrGxvBGo4PEuP2w7QVhYGKG+s2kYMY/Fx5IL7AEUVz+kB/Dzytt0XelPRIgf26a+SphvyIvHB4vVT6RK5wms3HmcsPAAdszuTOKv45m2L++ZVrQP2PvleNZn9WH+7tOcPxfMyS3fM7ypEwVagJ78HwoyNio1MQLIopqLghZRFCmTE+bGlq8YVFX78u3XzQia/R1HHml5cnkt09cLfDhvHE10n5nShzH+QUHBAELdBq8aN2QTKvLW8p30ChjC2F0Pi9osVFAoBSoajNvCb69t5K2Jvv/nx2v+cZg3wmf7EiotfZvpAf+udyAoKCgoKCgoKJiKMZNrQMChzRhGvXqazUeViYpCeSBxdeP37H5lFJ+0/aes6v1TUFN7iA/eNxaz9JQyUVFQUFBQUFD438Hgzoqq1nv8/OtY3KVr7JozhcWnE5TtOwUFBQUFBQUFBQWFcsfgZEVBQUFBQUFBQUFBQeH/AiOPgSkoKCgoKCgoKCgoKLxclMmKgoKCgoKCgoKCgsI/EmWyoqCgoKCgoKCgoKDwj0SZrCgoKCgoKCgoKCgo/CNRJisKCgoKLwG5Xjbp81NI2pRM0rpUMj0K/raJoXSF/0HM2jHn5D4muZfsVY8KLxsBW4/3WbIrgIjzEVw4u58v2xZ6wbGCQnkhyOSOSiWjtUxx730wFF8Mpf9fkz9ZMadG1/Es2XaM8PORXAg6zt5VY2hhXfDi8kRwfItV+6fSXK3i1U+28svgSsVpXsaY8Ur7D5m/6SBB4ee5GHyIDTN6Ucs8L1Xl4cPRqMtciSn0iVxOX9uCOZUH5t6LuHj5InvG1ct7861gR+8lofwVtYcJr+oEMLUHUw5e4vzKvjjpCCe4DGH9ufW89+x1yGDWbjanT0yntfr5dUZh/hqf7DjP5R1jqKsbO8UKNPD+iMW7g7i0vVBaSbBszGfb9/JNhwo6bwavzNB1F7gSE81f0Rc4H7ifdTMH8JrNcyNFZ08+XraboIgL+fX3JvXy44RB/Z7lf5m/Ll8iKtSP3Ssm4lXD7Fn+5Y3g2JIxS/cQFHGRSyGHWDfVm4Jfr8J12C8cWfImVctleUFP/zdWn2LaX1lgWJ/Sosf+p5TWPkFLzrtZSH/a4DDCAccxdlj9qdtR9aTbaXgyOZXkTUkkrU8hbUQOWp2+K7+SQ+b0VJLXJ5P0Syppw3MLpJee4vURXIaw/sJlrlyOJuZ8EH7bljK5TwN0uqdBVK90ZuLKPZwJPceFs0f5Y+5g3G2fZ1D+9W8YldsE9m0thW/TR1n5T5NQ0WDEKg75neb8pWhizgcTeHQ3s7v/u951VV71Y3T8FyrR57NPqXduGj1ataBZ53dZGlEm76D/Z6MTH65cjiLm/BmObZrHiGb2CBjpH6waMGDWOo6eiSA6MoQzh7ewcFDdvHj9T0fQkj0ricQdSSRuTyJxQwqpX2SRU7no9KS1qaSNzkayKpALqDRkLk0iaWoOcgk7nrZxFmkrUkjvqiVnXApJa9PIerXQRfrii6F0A/HHYHoZIYKAU9eZrP++E4mbfHizUzs69BvDN7+d5FpW4cvLD4smLakTE86fWmeaN5U5H5n4cl5+J9hRv2UtHu2cyVDvDnR8bylxnrOZM6g6IiBFLaFX08a4eTz9NKHjdH8SosK5kFk4s/JAJif+Lnbt2ucNVC1b0qlZBvcTCr7tRu3Wgy5c525jbzo5lrC1G4Wa+sOn8YZ8g6QCFaOiwZhVrBpemZgz0aTrJpUIFXWHTWXQw3UsD0otVPe5hM7tjlvjNnQbuYxbzaezcLRbnjMTqzPkv4sYqN3B+N6d6TxkLucbTmWlTyvyxprG6JeN3xetadioGa17fcoObV/+O62XaYPSkiJUoPvU+bwr/8Forza0f38vVkPnsWB4bR1nLRG7/UeOuE7Cp7tDGQ8ijOn/hvUpt/ZnlD6lwRj7y8A+UUbrAKrLagQJyBUQNEakCzI5IzN4Iltg95EDDjMtkF/PJL2XlHefSuKJTxbSFWsqjHLAcaoVKrcM0vvmp5caI/TRhDOnexMad+zPZxvv0Hzabyx/x9W4+hHs6TVtHr0SVzK4UytavPEFQa4+/PBBw/zFhfKuf+Mwr1aDyuWyUGCM/5SRyy0YSlzd8BG9uvdk1qks/vp5OF179me237/r5bPlVT9Gx3/RCRdniSvhkSRKIOdkkJmrk/7/NbmEzu3Ga+6NadL5HWaFVGP8wk9pY5GfrNc/qHAfPZ+vm/7ND8O60qpDL96ZtJRtEXcpKw9W/giYL3PAaYgjjhNssZBzyBipO+kQMPvVHqchDjjMtkJsmEX6W4Wsq5NLLirE+jnk2BVM0otKIntEDsK2CtgeV2G+xAHHz22wuFnouuLii6F0Q/HHUHoZIqKqxcBx3iT8MpXvDkRzPz2L9ISbRIZfJUUGdaOJ+PrPobPN85tU9cayO3g5/Z6OVlQutB+7gK1Hg7h4KZJzfn/wtVclo86YqRt/xCZfXw5914vK7b9gz8EtfN6yNoOX7mH9GPfyD0hyIoFLv2LB3ghikzJJveGPb1g6NetWy/9uLZIkPf9Qk7fe8eDclv3E6Y53xeq8u/Y0/jPbUbabvwLEXyTKpQMdKolYNO1Ii9sRXMrRvUaNe4+uiCeXs+lyY3p2ciz5gNZA+VWuQ5jx9n1+/uNKobwlrq4dgffw2WyMTDSqzotE7cGgga8QuP0YCcVFSW02yTdOcuBsAq/UrIYaUNXuzaAmMaydt43I+ykkxwWzaulB1L0G4GkNxumXjyyR9TgG3xMxqCpXwUnXGAP6mIxla17v8IA/luwmJkmmZg8vamVLNOrZjZq6jT/3T3btjafzEG9cTBa5CAz0/wIUq48R7c9U/YzVx1SMsr8U9lXMIX1RCslr0siqIZPjk0TiH0kkrc4kV21EurmGnKYiln9YoEoDqW0OUi5oPHORRKBqLrmOaiwOqBEl4LEZVlvM0bbPQfPS9AGQ0WQ8IPrgQj6bfx630SMpcAqmOH1QY2klEhsZwb1sGSk5hvC/UjC3sszTuLzrH/TGL1WjcWz2CyJ4YU8c3MazLyKSqAvn2D8hPzapW+Gz/ShnQiK4fPpbBrz+JVuOniQ46ChzOuksnxZrv3H+06XzFNYfPEV42GkOr55AR5dCxheb/78fwb45oxZtJ+BsGOfDggjYOZ+BtfOHuobqBwEnz3Es33aU0PBzRIb6s2vh+zSzK9SDi9VPf/wXq/Rj4b6jBJ7ayOh6tryxOJSoC5Fc9P+Kdrq7f8Xlb2z7KQWCnTvvzF7PsTMhnAs6xta5Q57tXJp7L+DEmu9ZstOfkKM/8tn4hezxP43/sv7UVIFg15oZ+0/yy+Aa+YsHdrSdvp/TqwcW0f9kctPuELo/gOv2rtQssH1SnH9QUblaZZLCjxEYm0pWRiJ3/goh/MZLXCkvK2QQUlSYh6rASYu2cJCQBYR4MywuCWirSAUWAzRtciHCCsvrEjnNCwdeAwiAJu8fAFJExKfjG0PxxVC6ofhjKL0MEQXbxjSvc5tTgbeLnMlqYnay/U5nBnd3yhdDRR0vLyqf2UdAogyocB26gKWDzDk4bQCeLT3xGjWfXVGJRr3pXnNpFe+9OYzlkbFs/qQ3vSfv407YIgb27svINZeLLFO5oqpBY3drbly5VeR3W7UcymCHo2wOSC648iSnE3shhLMxDynrBRVBuEpweHU6tq1Io46teRAYToqZTk9Qu+PdVUWgXxD+/n/R1LtTyXcF9JVfrMaAL4eSvnYxx5OFFwOqpMnTShBfTDMSVd12tHWIJDBCj5MSLXCs783AjjacPxtNLmDR4DVcH1wmWmenJOdKNFctG/BajfxwZUi/ZwiYOzbkTe+GxAeHEqfbAPTpUwpUr9TGVfqbv+IlzOq/x9f9H7Fw9I+EV6tHfjzOR8vds8HEN2pXpsczDfX/ghSjjzHtz0T9jNfHNIyyvzT2PTbH9nN7HMbYYRUnYL7YEaehjjiOs8ZMY0S6s4RWUqF6BNTMJrOriPVcK8wqSWhVgACyVkDQcUZCuoBQSYvW1M6og1H6FEAmITCAqApNaOaqU0HF6SMncmTNVuyGz+Y/berh9sbnfPLaWRb9fgkN5V//huKXFL2aYd3b02HGKbL+XEG/Fs3waNqSvsvyY5MmnMWDe9Kx1zxCbHvhMySdhYO70a5TX+YG6/iy4uwHw/5TVYcebZP4cWg3Wnd6jzWZfVnwVS+cC4wF9eT/r0akar+JfFzxIB90bUPzNl14+/OfOHUnrzUarB9kUu5d4tDCD/HybEnL1yfhV/kjZg6vX3Ah1Ej9Csd/7f19TO7Xk06d3+eXa2kcmtQGj6bNaNJtLsG6GRWXv7Htx1REF/rMWcnHlf2Z8mYHWnUfzTarUSyb3I68U2wizq8J+I4azKLYTnzQ6gIT+s3kXOO+dHYRkdPCWDx9Bw7j5zKinjmOnSbzbbcrfPf1bm6/4BBUWDrVp8fw3tS7fZ6LL6x2wYv+IZcLx08i9JrEtLebUCn/+P2/FjuJnLYS4iU1YuEBsCAj18whu5mMOkr9fHKh0pDTUsYsTI1ZuApN29wXJzrFIamw2GyO9j+ppHWRkJrkItnrpBuKL4bSDcUfQ+lliFqws8deSCEppbCy+WjjObAtgjFD+lDddyNxQh16eDnivySIVADxFbr0dOfaprfYHHkfLZB56wLJhbLRi6o+brVuc+mmjG33eqivnSS5qHZe7lhQ/70ZjLTZw0TfBy9OtgRner7fk6RdI3jhOKqcTPDKKQQX+nOZIOQQeSqS0b2H8UatVAKn3aP6sOfJancvupkFMjMqm4R4f6585k0Xp33sepwvoroZn+89zadPDVJbYZu289n9gJ7yi1Tu/QWjxI2M8n2AtmPhdB0E4cUVZyMxc61DtXvXuFFYVwDMaPOVP39+BbImlsPfjeXznXfRImBlY42YmU6G7uXZmWRI1tha55fGgH5gQff5YVyZD8i5PAr/lS/WXyJb95Ji9SklVtZYPckkS1WboTOGkrF2JHuuN6GbmTXWakBnB0i6fZ1bghe1q6rg6guRwiQM9n/AkD4G2x+Yrl8J9DEFY+wvV/sMYSEj54AgSjz5IBthjx0WcRpyzWRkFXBPjdmTDLK7SqiPqxDsNTwZkINWpaLokW/JMEafwsiZqaRINtjqrqwWq49Mesx+tl5ZypTZi3jfyZKo5VMIvZ/fvsu5/sskfj0jk1Pr1hKRogWyS+4/ivOfcgr+6zdwMUUCYtm/7hBjf+lCC6sDHH16FMmY/P+VyKTFxZFWsx29PAPZeOomybG3Cl+kF+lWMIdv5f8nKYr9J64x/LWqqLj6fAJujH764r8hjMlfX/sxEbFSdwZ1eMCmwZu5mJTXfg78fpyPlvWk2XdBhAKaG9FcTkuh7r1UbidEcDdTzcNUG+wrCHAPsqLXMO3Xlqxf8BPdKlQhaOYwjj7S9Qf58XmGjCYrgZvnDzPr89+4IlFkey7oH2QST8zknbQhjBs3n0MTkzi5aQVLNpwhvrR9+6UhkzMhmcQJgAxijCU2vjqTEWRyR6WQOAqQRMx/s8PWT8c5180lV22GzTUB8ZEZ6qE55FYwxyLl+SX6ECOsqDDeguyP03jilkVa1yzMVttiE1YGAcBQ/DGUrm/mX0LUckY66djjWEGEh0UNgGSS/LZxfMJU+r+6mRWSF17Wx/k+LH/WLzjg7KDl/t1HLw7uDSHY4T17Iz5tK1LFRaT71v34VKyG/ZO6+HaI5ucx09jzoMS5mogl9Qb9wJqRGn4as5SwAqPfPFR18E4WhQAAIABJREFUBzC8yUU2zbxp5CpjGSFAZnggMbO+Y0DCb7wTK/Hes0Q1jby741qlIsv8e6HFHDt7NTmdndi9+3HeJZpo1o6ezO6HeVqqW/qwbdKzDPQiVPRiykf2bBm/kzsSlM/Ch4CFjQ2qzAwyipyk5hI6tycjdzrz6dbVeGiTSJMBZDLTM9Ba26JzShEsbLBRZXIzQ4ZKGNAP8p7JaM/HvlmYVaiO56h5LFqjYdQ7q4jRPddZHmSmk2lZmQYDp/GBuJEPdsShdWqHlSaLzMLfLWWSmWOJtVVRIcA0DPd/0K+P/vZXZHWWhJLoYwKG7S9n+wzxREAw1yJ5ZfFEsMDOT4QKMrIkgATkqrFabEnmyAxSBsvwWI1FkBmiK4gvRZ8XEeyccFKn8LcxK05idQYtXsuQ6zPo2yeEtErt+Xj+EtZVnMS7Sy+SW871X6r4VRjpLjfjyjA6P0WbzKNHz/OVEx/xWOWOk60AmUZobNOThQdn0jHfeWtu/c6Hw1fzp3HVafh+Q+mlQiY14BuGZg1mzNhVHPkijsO/LWPFriiSjaowAXuPQXw6pi8ta9ogamVU9tUxCy+5Dy33+F9c+zGkr550oVJlnM3rM3pDACPyL0dQYymexS7/ejkznQwZtFqJjPQMZOzQyronKHK5tmMdgR+soM+t+Uw9m1LI7+XH5z+KWOAtghf9Qy73QzcxO3QLS1/rxSez/svv1b+k3+zT+XH+n46A+TJ7bE8LYKMl960M0qc/ocJ0S1TavHSzXytg5yeT9X0amkI74Zo2OUgVZdJW5yIgI9sCLbRY+JdgspEtokoUUfvZYlU1nZSeuViFWyCWVj9D8cdQehmillOjuRTnSof2VVl9La7oxvYknK37NCzv3xr/pK6oj31D5NNZr5xKcqpIM5eKiNwt+v7ikNM4NuttAtrNwvetIN6aFkX/tctwnD+UFVfK2FJ9CDa4j/iRn4Zls3rsZ2z5u6hlEyvaDhuA04nZHNFdUX1ZpJ9l//4I5LvHuSY5P/+7uhHeXW04NKM//w3JBkSqD1nBWu/OVNyzm7zpSi6pjx5wP3/iZ5aUZXQ9mbXwxsu1FW/6XuJLnb8fuvAGKwcOZFmZ1JNMTmYWWmtrnm6GFElODOuWnmTfrPF0PT4Dv2SZnGtXiK3cAveKAlEP8+rF/FV36j+5ys47EtTKv7c4/QqgJTf1Nmd2nSB2WDsaOwjEFPsATdkg3bvGDbOJzPS5zNJ3/+C6BFavulEr/saL2+xqW2zNM4krekZnEkb1/2cUoU+y/vZXWvlKpI8JGLTfQP8qrX0GSVChUmeRMUyN1QxLVBLIrhLSAxWqfPuFWxbYzH76NCtIA1PJvmr1LL00GNTnBURcunTHIyGClQXOURaN4NCWni1i2TUrjMcScD+IlT+d5O3Zr+O28iLny7n+SxS/hCKOwBZAi7YsylQY0RGXSmY8jf6CUyUqSskkphvZ+DJPMXdI/2fPSsiajDytjcXQ/YbSS00Od0M2MTtkC0vdB/Pt8tXMTnuDSUcK/RBLUfVj2Z4pS0dh8eM4hh26SYYkUmPEBna6Fb7QEC8j/hfTfgzpqyddTnjI4+zzbHx7NFuLcFbmAFp4KqRc1PKLYEfrT33ocHUXx1z+w4x+AXy6J97Esag+/yCR9OcBFv7WhbcntKSWeJqowpf808kQMfMzQ/W6Bo0dqHR3R3JVWG4xJ2VMFjmhNpinkXcErBWYr6yAdXTeZVrvdNLa5KINMGKyIchI7hLEq/Ie6HeQyPXQIjwUC0yITMZQ/DGUXoaISNfYsS4Y14/+X3v3GRfF1S9w/De7SwcLgl2xFxAVO/aCGEvsJfY8MZZEkyjRaNSoeTSa2GuM0cQSe0MUsQIK0gVU0Fiwi4qiIgIqsLv3BagLwu7QcuO95/v57As9u8Oc/zlzysyZmUV838ORitYlsa1UF+emVXUGjmqu7d/L3TZj+NZFjdehy+8qqiYWP98Y7IdPpK+9NcZKIyzL1MTBTu6jDxXYVK1EwvWbpCqrUbPcHa4VSi8kk1SCpuN/4/chyayZMBOPewrMzc0xNzNBqZMByfYjhnd5wf4dIeS4klSyps3Xi5nXr1rRPBRA+xyfRWOYtE3n0jWgqteZTqa+HDgZS3x8PPHxj7hwyIvrTq60LyWvBIBc9z/1+GQaOjhQ2z7j4/ilB0+jV9CtYZ9CmqhkSL1zk4dlq1Pt3ZgrB1oS/deyNqYtbp83wAxQ3/BkX5QDo6f1p56NJcUqtWb8xB6ovfYRpPu0llzil53SogLO/Vyp8fgqV3TX3OYSnwJ7Fc7hE49Iiwki+LEKq0ptmDChI3FHT3Az244qK9egivoWN+7ry0EeyTr+38keH9n1L7/xy0N88sVA/os8f4akqjAOUcBdFUbPtGjLpPFyYCqKIKPMs3aAEpAAEw3pHVNI6iJhesBIZvtrgIH4vCNhZFUBp15TWelWi6BVm4nUPUmcS3y0Kfe4m1iNNh2qYq4ATMrTrmszzG5f576Goi9/mf1X6pN4kio0ollFE0CBsalx3uKbS/5lkYrRYcRQ6lkpwKQi3Ud0pXiQD2d1OyJ929e+IiEujoeZn7gnSeTpopSh3xtKLxAF5es7U8fGFAVqEmNv8DBZiYlx1mlJruVjVIKSFkk8uP2YFLUSiyoujOqd+SRJXfrih4z+3xAD29fLUHz1pGseebM/pDoj3Xpib20EKDCxrkYzp8ro7WrfkijVYRrzO19jwfS5zJy+D9uJPzGiRl6fHZ5L+6CwpUG7FtQpXwIzpQITm/oM6t2Y9BvXMo7/D42ZhrROaaifKVHm8Gg/KdIUs7tpvOydnjEtrJ5GmrERJqEKFAkZH5WfMcraaaTp3nuSKy3qpi9J+uU5SR+lkzoshdRnplhuLaT231D/Yyi9EClAw8ND0/nPgvNUHb0az1On8d67CjcXuyyVWRPnxa4LNXBK8sIzSy+h5tqmyXx3xJShq49wNjwI723zGepoKTNYSqpUL8vd67FobatTNfE6N/7BtYqSTRfGf94Im4quzHUPJPJsWMYneB2D3z4LUUnNAUNpHL2TPddy6SEVFtg1aE7zWjZ5b4zyzQjHzh0wC/DOsoZWE3sa71sN+ai9jcwyoED7r3Qcy+YDHrjPaIul/Wf8ccCDA7/0QufVLgaprwcTnNSYNo0MPMtGcx/3ZTtI7T+ZwdWUoLnHzqmTcTcawrpjZzizZyaNri5k/NIw5D9ZOvOejIvRRPnvZrbTVRZO+pVzuoOtAsRHvyTOLHZjyd02rD4ZTMDu6Ticm8t3f2VfaqCgYktnyl0IQt8zCPJOzvGfW3zyUP/yHT+58ckvffn/J/JniITRVgvM49JIWpNAws8pqK+aY+ml81fqp5DwVwLP1r8guSWY/mKJ6Z13yQWjLz6ZVE35wfs850/v4pcB1vjNHMkUz4z7P97KLT6vQlg68XcSeqzhZGAQod6bGGtxkG9muvNQA0Vf/vL6r7TQDcz1MGLkdj/CQ/w5+kM7rCRQ2g1i1aETnDkyA2czRybtPYXvwSUMqJSt8cst/8hoP9OC+MvLlim7fAnz38kXVgeZ8tMRspzg17N9/ZTUGvErh08e5cd2ZtQZuwWfY/uY3VHuycaiJlHMcTC/7DpJaGgoIZ5zqBO+gKXHsz7gJrfyIcmXdWvu0GGND+HB3uyaWptQz+D37wfRGz8Z/b8huWxfdv3JL00cB76fwKaXPVi435+Is4Gc2jGf4Q2t378KlQNl+Z789wcnAub8xNHHGl5dXM/0TRKfLxhHA7kPK9PbPhhTscOXLNvmRVBEJGGHl9Dj1Q4mzc1Wv//VMu9Z2f2MpxsSSamlxHypKaqcZuxaBSbbTaDTS15XgPQWqWjPG6HSHfM+MsL4QTqpjWWM9rUKjDdaUXxMCayOqDBeXQyrDSaocriNIX8M9T+G0guPVL1WbXlVQipF71V76eY7iLH7HuV0sVAQCkBJrXE7+LPuFnpP9Cz65TUfGuN6uO1eju2KPkz3/bDegSAIgiAIQtHRNHyN+oEJRnHZU/5vkDO5BiRKNB/DqNr+bDsmJipCUVBzdct89pcbxfgW/5azev8WKqoOcsP1xlJWnBYTFUEQBEEQ3lGc+787UQEZV1aUVYax7o+xOKhj2Dd3Ckv94/XfhCgIgiAIgiAIglAIDE5WBEEQBEEQBEEQ/jfIXAYmCIIgCIIgCILwzxKTFUEQBEEQBEEQ/pXEZEUQBEEQBEEQhH8lMVkRBEEQBEEQBOFfSUxWBEEQipyEpeMIlu/zJTwinHNBB/m+he4LUA2l/1/3/z3/uTBqydxTHkxyKPyXrAmFQJSPIPwjMicrxlTqMIHlu44TFhHJuYATHFg7hsbmWb9clKSSvVl7cCqNVEpqj9/JhoG2/9C7Nowo1+pzFm49TEBYBOcDvdg8oxtVjN99Q1muHRPXuHMm5Czngo6xfd5AHCz/mb0zdl3C+YvncR9XI+PNt5IV3ZeHcDnKna9r6zSQKkemHL5AxJqeWOvsmlR6EJvObmKYzuvkjVrOwf/kdJqp3n1PFuO6jN8TwcU9Y6iu2zYrilHL9QuW7g/gwu5saXlhWp9vdh/gx9bFdN4MXoYhG89x5VI0l6PPEeF3kI2z+lHX4l0mFTbOfLlyPwHh5zLL72NqZI5zDMbv7fYvcvniBaJCvNm/eiIulYzebr+oSSWbMGaFOwHh57kQ7MXGqa5k/fNK7IZu4OjyjylfJKcX9Bz/cuOTS/0rDIbjU1B68v9GQfMn2dLjm6+ocXYanZs2xqndYFaEv5KVXvT5NyT3+EilB7Hp3EWuXIzmUkQA3rtWMLlHLXQOT3lyzb+CCsO3EH3pIlfefKJOMKNJXhuvglHaf43HzgK0bfoUVvuZL0pqjVyLl7c/EReiuRQRiN+x/czp9GG966qoykfp6MaxKJ269+YTuYqeltm//f+QTv9w5WIUlyLOcHzrAkY6Ff+g6o/w76cACesOs9g0vy1Pt7rxcduWtO41hh//PEXMy+xfLzomDZpQ7VIYf2tsaNRQS0Tk03/m5XeSFTWbVOHx3lkMcW1Nm2EruOs8h7kDKmbM5KTidJu2gG5P1zCwbVMad/2OADs3fvmsTsbgt8hpSY29j1XLVhkDVdMmtHVK5mF81rfdqOw7057r3K/vStuSRdFMqKg5fBpdtTd4lqVglNQas5a1w8tw6Uw0SbpJeaKk+tCpDHi0kVUBidnKPo2QeZ2wr9+cjp+u5Faj6SwebZ8Rf0VFBv28hP6aPUzo3o52g+YRUWcqa9yakjHWlBO/13h/14w69Zxo1u0r9mh68vO0bvkblOaVVIxOUxcyWLud0S7NaTXiAGZDFrBoeFWd+qXm9u5lHLWbhFunEoXcCcg5/g3Hp8jqn6z4FISc/BdC/hTWlLZRcyUskqdq0KYmk5ImI73I82+IjPikhzG3UwPqt+nLN1vu0Wjan6z6xC5v+5db/pGwti1B7OYRNHCsj71jfewbfsSCs+nZt1CkjCtUokyRnCiQ035q0RZZZ6jm6uYv6NapC7NPv+TyuuF06NKXOd4f1stni6p81FHL6dYws9451sfesQFtpvsQHxXGuZQ33yrK8vkQpBEyryN1HerToN0nzA6uwITFX9HcJPv3BCH/FCir0H+cK/EbpvLToWgeJr0kKf4mkWFXea4FVb2JePrMpZ3Fux8pa4xlf+Aqer0ZrShL02rsInYeC+D8hUjOem/nBxdbWWvMVPW/YKunJ14/daNMq+9wP7yDb5tUZeAKdzaNcchbh5cf2qf4rZjJogPh3H6WQuINHzxDk6hcvULm31ZhaqbgdmQ4D15rUSdcIuzyc4zNTLMOGhUVGbzeH59ZLSncxQsSxJ4nqnRrWtsqMGnYhsZ3wrmQqvsdFQ6dO6A4tYqtF+vTpW3JvA9oDey/0m4QM/o8ZN32K9m2rebq+pG4Dp/Dlsinsso8RypHBvQvh9/u48Tn1vBrXpNw4xSHguIpV7kCKkBZtTsDGlxi/YJdRD58TsLdQNauOIyqWz+czUFe/DJp1bx8cgnPk5dQlimLtW5mDMQn30yb8VHrOLYv38+lZ1oqd3ahyms19bp0pLJu5U/7m30HYmk3yJXS+Q5yDgwc/1nkGh8Z9S+/8ZMbn/ySlf/8509RtheLPY7hd3oLo2tY0nVpCFHnIjnvM5OWRobTDedfwtp5HKt2HSMk7CyRIT7sWzwCJ6v39jB/ZMUHQEt6chzRhxfzzcII7Ed/SpZVXPmMDygpZVOCR7EPSFWrUWd+CvXFxHr6L2W9cWzzDiBwcRdK2E/AIzySqHNnOfh1Zt+kaorb7mOcCQ7nov9/6ffR9+w4dorAgGPMbWv27m/kkn+57WfpdlPYdPg0YaH+HPnta9qUzlb5c93+h08q3ohRS3bjGxRKRGgAvnsX0r9qRv4Nlo/c4yPX+Gne1jm1Wo2ayvT+xJGzOw5yV6cS5rt85NafApCsHPhkziaOnwnmbMBxds4b9HZliLHrIk7+Pp/le30IPraMbyYsxt3HH5+VfamsBMmqGTMOnmLDwEoZ8ZSsaDH9IP6/9c+h/dWS9uIeIQd9uV7cjsp5vrwqCLlTSJb1aVTtDqf97qDOngqkX9rL7nvtGNjJOrODVlLNxYUyZzzwfaoFlNgNWcSKAcYcntYP5ybOuIxayL6op7I6lPQLaxn28VBWRd5m2/judJ/swb3QJfTv3pNPf7+Y4z4VKWUl6juYc+PKrYy/rX3K0d93YjV8Dv9pXgP7rt8yvm4QS/66QJZze9okbp8LJujSI3RPmBYGSbpKYFhF2rQoRb02zYjzC+O5ke5pbQdcOyjx8w7Ax+cyDV3b5v2qgL79V1Sg3/dDSFq/lBMJ0vsdqjo9I1aS4v00mZTVW9KiRCR+4Xou5ylMKFnTlf5tLIgIiiYNMKlVF7u4i0TrXClJvRLNVdNa1K2U2V0Zit9bEsYl6/Cxax1iA0O4q1v59MWnAJTlqmKnvsblWDVGNYfxQ9/HLB69jLAKNcjsjzNpuB8USGy9loW6PNPQ8Z9VLvGRU//yGT/58ckfWfkvQP40Dz2Y3KsLbduNYEPMC7wmNcexoRMNOs4jMM1wuuH8a3n+4AJeiz/HxbkJTT6ahHeZL5g1vGahnOiRFZ8stMT7+RJVrAFOdjp7kM/4gAlWlmY4TthFcEgwgUe3svA/TbHJb0PzHv39lzr6N4Z2akXrGad5+fdqejV2wrFhE3quzOyb0sNYOrALbbotINiyG26Dklg8sCMt2/ZkXqBOW5ZL/gHD7aeyGp1bPGPZkI40azuM31N6smhmN2x066C+7X/QFJTvNZEvSx3msw7NadS8PX2+/ZXT9zJqo8HykXt8yIyfWZMhDCxxjG2+Ce+uPBWkfOTWn/xSlKbH3DV8WcaHKR+3pmmn0ewyG8XKyS3JWMWmwKauhOeogSy53ZbPmp7j616zOFu/J+1KK9C+CGXp9D2UmDCPkTWMKdl2Mv/teIWfftjPnfcaBCWm1jXpPLw7Ne5EcP69s12CkH8qyao4xaXnPHuey9RCE8uhXeGMGdSDip5buCtVo7NLSXyWB5AIoChH+y4OxGztzbbIh2iAlFvnSMi2Gb2UNbGvcocLN7VYdqqBKuYUCf8r9dyEmsNm8KmFOxM94zInW1qSLh1k55UVTJmzhBHWpkStmkLIw2xHqjaBwDVTCMz6v4VDSiXydCSjuw+la5VE/KY9oOLQd8kqBxc6GvkxK+o18bE+XPnGlfbWHux7khlElRPfHvDnqzdFrDLD8sXet78H9Oy/gjLdv2OUYgujPOPQtMmerkOS3j/jLJORXTUqPIjhhs4y/neMaD7Th79ngjb9Nkd+Gsu3e++jQcLMwhxFShLJul9/nUKy2hxL88y9MRA/MKHTwlCuLAS0aTwO+4PvNl3gte5Xco1PAZmZY/YqhZfKqgyZMYTk9Z/ifr0BHY3MMVcBOleA1Heuc0tyoWp5JVx9r6fIF4PHP2AoPgbrH+Q/fnmIT37IyX+R5s8QGflX3wrkyK3M7z+L4uDJGIbXLY+SqzInGLmTE5/stCmJPFdbYKl7ZjXf8XmB51RXAqVEnr40onTjIcxbspJFrwYwasc9WSfE9CqM/uutFE5vXE/4cw3wOu/tR27tp/Y5Pps2c/65GrjNwY1ejN3QnsZmhzj2ZimSnO1/kLS8uHuXF5Vb0s3Zjy2nb5Jw+1b2L+kl6/iQEz/Jhi4juvBs30h0bzcrvPLRU3/ySWHbiQGt49g6cBvnn2Xs36G/TvDFyi44/RRACJB+I5qLL55T/UEid+LDuZ+i4lGiBcWLSfAAXkb/zrQ/mrBp0a90LFaWgFlDOfZY98jL7J9naEl/Gc/NiCPM/vZPrhS08REEHSptchJJFKdkMQU8yql2aXnmvYsTX0+lb+1trFa74GJ+gvmhmbN+qQQ2JTQ8vP847x2HZIXrnC24tShF2dIKOu08iFupChR/VR3P1tGsGzMN97g8bzWfTKkx4Bd+/zSdX8esIPTN6FdRkQFL1zPo+gx69gjmhW0rvly4nI2lJjF4xXlyHFsXNglSwvy4NPsn+sX/ySe31Qx7m6iinmsn7MqWYqVPNzQYY1VcRWo7a/bvf5LxlfRo1o+ezP5HGbFUNXFj16S3G9BLKuXClC+Ks2PCXu6pQee5A4VIwsTCAmVKMsk5TlLTCJnXhU/32vDVzt9w1DzjhRZAS0pSMhpzS3RWKYKJBRbKFG4ma8EWA/GDjHsyWvGl50uMilXEedQClvyezqhP1nKpqJfGpySRYlqGWv2n8ZliC5/tuYvGuiVm6S9Jyf631SmkpJpibpbjkCZfDB//oD8++utfjsWZF3mJTz4Yzn8R588Qg/mXKO44gK/G9KRJZQsUGi3K4hUxCiucOmI4Pu+TrKyxVj3nWiGdcdK+fEZGS6Ym7uxmlu/vzbYOLSixcy9PC/onCtJ/Zae+z827+s7L55MmgceP321X+/QxT5QOWFtKkCIjABZdWHx4Fm0yG+/0W3/x+fDf+FtecRr+vaH0AtGS6PsjQ14OZMzYtRz97i5H/lzJ6n1RJMgqsMI7PpTV+zG8wXm2zrqZ9SRAQcvnjdzqj6H46kmXbMtgY1yT0Zt9GZn5dSQVpoogrDK/r01JIlkLGo2a5KRktFih0equoEgjZs9G/D5bTY9bC5ka9Dxbu5fZP29/c4I3Gz37JytdEACVNjGaC3ftaN2qPL/F3M25sr0KY6dHOqv6NsPnWQdUx38k8s0ZTW0iCYkKnEqXQsH9nH+fG+0Ljs/ug2/L2Xj2DqD3tCj6rl9JyYVDWP1PTsslCxxGLuPXoa/5bew37Lj2bgoilWhBl8a32Tc7lCdq4GEAa349RZ85H2G/5jwRhTBgkiUpiIMHw9HeP0GM2ubd/6vq4drBAq8Zffk5+DWgoOKg1ax3bUcp9/2ZnXwaiY/jeJg58TN69lJ2ORk1dsXFrikfe17ge53/9zrXlTX9+7OyUMpJS2rKSzTm5ry5GJKj1EtsXHEKj9kT6HBiBt4JWlJjrnC7TGMcSklEPcpoQo1rO1Dz1VX23lNDlczf5ha/LDSkJd7hzL6T3B7akvolJC7legNN4VA/iOGG0URmuV1kxeDtXFeDWW17qsTeeP8yu8oSS+MU7uY8o8sXWcf/WznEJ0F//Sto+PIUn3wwmH8Dx1dB82eIwfybtmLKilGYLBvHUK+bJKsVVBq5mb322beUPwbj8x4Fpdt3wjE+nDVZ1lEWHnW6Gm16WoGvGgF567+kHJbAZqFBUyg7lY2iJKVtjSAzx5K1LaXUCTxNkln5Uk4zb1Dft/dKaNOTM/oyuQz93lB6gaVyP3grc4J3sMJhIP9d9RtzXnRl0tFsD2LJqXwK7fgwo8XQflifnMNR3SuqUPDyeSuX+mMovnrStfGPePI6gi19RrMzh8bKGEADbwKpzen0i2RFs6/caH11H8dL/4cZvXz5yj1W/vGnZ/9kpQsCoEAdw56Ngdh9sYjvezhS0boktpXq4ty0qs7AUc21/Xu522YM37qo8Tp0+V1F1cTi5xuD/fCJ9LW3xlhphGWZmjjYyX30oQKbqpVIuH6TVGU1apa7w7XCGIXIJZWg6fjf+H1IMmsmzMTjngJzc3PMzUxQSqBNucfdxGq06VAVcwVgUp52XZthdvs693V7NsmaNl8vZl6/aoWyVvw92uf4LBrDpG1Zl3ao6nWmk6kvB07GEh8fT3z8Iy4c8uK6kyvtS8krASDX/U89PpmGDg7Uts/4OH7pwdPoFXRr2KeQJioZUu/c5GHZ6lTT+wQRLYn+a1kb0xa3zxtgBqhveLIvyoHR0/pTz8aSYpVaM35iD9Re+wh6+7QWco1fdkqLCjj3c6XG46tc0V1zm0t8CuxVOIdPPCItJojgxyqsKrVhwoSOxB09wc1sO6qsXIMq6lvcuK8vB3kk6/h/J3t8ZNe//MYvD/HJFwP5L/L8GWIo/0YlKGmRxIPbj0lRK7Go4sKo3plPyisMBuLzjoSRVQWcek1lpVstglZtJlL3JHF+46O0o1U3Z2qVLY6ZaXHsWoxkYj8bgo8HZ15dLSCZ/Vfqk3iSKjSiWUUTQIGxqbHM/i1TfvMPIBWjw4ih1LNSgElFuo/oSvEgH87q3tKgb/vaVyTExfEw8xP3JCnr/ZaGGPq9ofQCUVC+vjN1bExRoCYx9gYPk5WYGGedluRaPnKPD33xAyTbjxje5QX7d4Tw3p0kBS0fQwzFV0+65pE3+0OqM9KtJ/bWRoACE+tqNHOqjN6u9i2JUh2mMb/zNRZMn8vM6fuwnfgTI2rk4dnpevZPVrogAArQ8PDQdP6z4DxVR6/G89RpvPeuws3FLktl1sR5setCDZySvPDMMkpQc23TZL47YsrQ1Uc4Gx6E97b5DHW0lNmYK6lSvSx3r8eita1O1cTr3CjgOvS8kGy6MP7zRthBT2jbAAAaGUlEQVRUdGWueyCRZ8MyPsHrGFxGAa9CWDrxdxJ6rOFkYBCh3psYa3GQb2a681B3sqKwwK5Bc5rXssl7Y5RvRjh27oBZgHeWNbSa2NN432rIR+1tZJYBBdp/peNYNh/wwH1GWyztP+OPAx4c+KUXOq92MUh9PZjgpMa0aWTgWTaa+7gv20Fq/8kMrqYEzT12Tp2Mu9EQ1h07w5k9M2l0dSHjl4ahO1fRL/OejIvRRPnvZrbTVRZO+pVzuoOtAsRHvyTOLHZjyd02rD4ZTMDu6Ticm8t3f2VbaoCCii2dKXchCH3PIMg7Ocd/bvHJQ/3Ld/zkxie/9OX/n8ifIQbyn+TLujV36LDGh/Bgb3ZNrU2oZ3ChrHfPoC8+mVRN+cH7POdP7+KXAdb4zRzJFM+M+z/eynd8FJRt9zVr9p4gNMyXPXPa8fSPCUzzyGXJSZ7J67/SQjcw18OIkdv9CA/x5+gP7bCSQGk3iFWHTnDmyAyczRyZtPcUvgeXMKBStsZPT/4Ntp9pQfzlZcuUXb6E+e/kC6uDTPnpCFlO8OvZvn5Kao34lcMnj/JjOzPqjN2Cz7F9zO4o92RjUZMo5jiYX3adJDQ0lBDPOdQJX8DS4zo3uJN7+cg+PvTGT0nNAUNpHL2TPddyaHUKUD6y609+aeI48P0ENr3swcL9/kScDeTUjvkMb2j9/lWoHCjL9+S/PzgRMOcnjj7W8OrieqZvkvh8wTgaFM7DygRBFql6rdryzk9Jpei9ai/dfAcxdt+jnC4WCkIBKKk1bgd/1t1C74meRb685oNjXA+33cuxXdGH6b4f1jsQBEEQBEEQ8kvO5BqQKNF8DKNq+7PtmJioCEVBzdUt89lfbhTjW/xbzur9W6ioOsgN1xtLWXFaTFQEQRAEQfj/w+CVFWWVYaz7YywO6hj2zZ3CUv/4Qrr8LgiCIAiCIAiCkDuDkxVBEARBEARBEIT/DTKXgQmCIAiCIAiCIPyzxGRFEARBEARBEIR/JTFZEQRBEARBEAThX0lMVgRBEARBEARB+FcSkxVBEIR/gFFpR9r0Hcagzz7jk5EDaFxBlaf0HCkq0mLYABrafOhNuYSl4wiW7/MlPCKcc0EH+b6F7gtiDaX/H2XUkrmnPJjk8P6rCoV/AVE+gvCPyOzhjKnUYQLLdx0nLCKScwEnOLB2DI3Ns365KEkle7P24FQaqZTUHr+TDQNt/6F3bRhRrtXnLNx6mICwCM4HerF5RjeqGL/7holdF75b58GZkFDCzxxiw2QXKhq9Sy9Kxq5LOH/xPO7jamS8+VayovvyEC5HufN1bZ0GUuXIlMMXiFjTE2udwEmlB7Hp7CaG6bxO3qjlHPxPTqeZjLFQFsZ1Gb8ngot7xlBdt21WFKOW6xcs3R/Ahd3Z0vLCtD7f7D7Aj62L6bwZvAxDNp7jyqVoLkefI8LvIBtn9aOuxbtMKmyc+XLlfgLCz2WW38fUyBzHGIzf2+1f5PLFC0SFeLN/9URcKv1DBQxIJZswZoU7AeHnuRDsxcaprmT980rshm7g6PKPKV8kY1I9x7/c+ORS/wqD4fgUlJ78v1Hg/JlTpUkTij/0wWPTn+zceoDzD9LlpZuWw6Fzf/p/9jmDRw6ik3M1LIukHuQm9/hIpQex6dxFrlyM5lJEAN67VjC5Ry10Dk95JFt6fPMVNc5Oo3PTxji1G8yK8Ffy04uY0v5rPHYWoG3Tp7Daz3xRUmvkWry8/Ym4EM2liED8ju1nTqcP611XRVc+CioM30L0pYtcefOJOsGMJnntPAVBKAgFSFh3mMWm+W15utWNj9u2pHWvMfz45yliXmb/etExadCEapfC+FtjQ6OGWiIin/4zL7+TrKjZpAqP985iiGtr2gxbwV3nOcwdUDFjJqdyYNyy6ThG/kivVs1x7vcLV5vNYdl/amYMfoucltTY+1i1bJUxUDVtQlunZB7GZ33bjcq+M+25zv36rrQtWRTdjIqaw6fRVXuDZ1kKRkmtMWtZO7wMl85Ek6SblCdKqg+dyoBHG1kVkJit7NMImdcJ+/rN6fjpSm41ms7i0fYZ8VdUZNDPS+iv2cOE7u1oN2geEXWmssatKRljTTnxe433d82oU8+JZt2+Yo+mJz9P65bPQWkeScXoNHUhg7XbGe3SnFYjDmA2ZAGLhlfVqV9qbu9exlG7Sbh1KlHIgwg5x7/h+BRZ/ZMVn4KQk/9CyJ/CDHNzLQn343ilAdRppOtWwVzTTajk3JFa2ov4bN/E3kNXUTm0p5Wjbj0oypZSRnzSw5jbqQH12/Tlmy33aDTtT1Z9Ype38lFYU9pGzZWwSJ6qQZuaTEpaHtKLmHGFSpQpkgminPZTi7bIiljN1c1f0K1TF2affsnldcPp0KUvc7w/rJfPFl35SFjbliB28wgaONbH3rE+9g0/YsFZ3RMNRVk+giAAKFBWof84V+I3TOWnQ9E8THpJUvxNIsOu8lwLqnoT8fSZSzuLdz9S1hjL/sBV9HozWlGWptXYRew8FsD5C5Gc9d7ODy62staYqep/wVZPT7x+6kaZVt/hfngH3zapysAV7mwa45C3Di8/tE/xWzGTRQfCuf0shcQbPniGJlG5egWUgLJKG9qVDmTjpgiepGtJjTvDymXHKdWtK3WyXF2oyOD1/vjMaknhLk6QIPY8UaVb09pWgUnDNjS+E86FVN3vqHDo3AHFqVVsvVifLm1L5n1Aa2D/lXaDmNHnIeu2X8m2bTVX14/EdfgctkQ+lVXmOVI5MqB/Ofx2Hyc+t4Zf85qEG6c4FBRPucoVUAHKqt0Z0OAS6xfsIvLhcxLuBrJ2xWFU3frhbA7y4pdJq+blk0t4nryEskxZrHUzYyA++WbajI9ax7F9+X4uPdNSubMLVV6rqdelI5V161fa3+w7EEu7Qa6UzneQc2Dg+M8i1/jIqH/5jZ/c+OSXrPznP3+SZS1a9f+EvsN6Yl/SGDuXTxk8ahSDh7SmnMJwOqpy2FVK5mrYZZ6+0mJVtSrF0rWUqloFK52dMKvcApeBwxj46Qh6ftSU8ubv7WH+yIoPgJb05DiiDy/mm4UR2I/+lCyrtHKJj6JsLxZ7HMPv9BZG17Ck69IQos5Fct5nJi2NDKcXCj39l7LeOLZ5BxC4uAsl7CfgER5J1LmzHPw6s29SNcVt9zHOBIdz0f+/9Pvoe3YcO0VgwDHmtjV79zdyyb/c9rN0uylsOnyasFB/jvz2NW1KZ6v8uW7/wycVb8SoJbvxDQolIjQA370L6V81I/8GywcJa+dxrNp1jJCws0SG+LBv8QicdA8e0BM/JaVsSvAo9gGpajXqzE/2F2Pnu3zk1p8CkKwc+GTOJo6fCeZswHF2zhuEg2VG/o1dF3Hy9/ks3+tD8LFlfDNhMe4+/vis7EtlJUhWzZhx8BQbBlbKiKdkRYvpB/H/rX/htL+CIJNCsqxPo2p3OO13B3X2VCD90l5232vHwE7WmR20kmouLpQ544HvUy2gxG7IIlYMMObwtH44N3HGZdRC9kU9fe+Azkn6hbUM+3goqyJvs218d7pP9uBe6BL6d+/Jp79fzHGfipSyEvUdzLlx5VbG31ZISOr0LGdB0xKf87K8HRV1rwRrk7h9LpigS48o7BN+knSVwLCKtGlRinptmhHnF8ZzI93T2g64dlDi5x2Aj89lGrq2zftVAX37r6hAv++HkLR+KScSpPc7VHV6RqwkxftpMimrt6RFiUj8wvVczlOYULKmK/3bWBARFE0aYFKrLnZxF4nWuVKSeiWaq6a1qFsps7syFL+3JIxL1uFj1zrEBoZwV7fy6YtPASjLVcVOfY3LsWqMag7jh76PWTx6GWEVapDZH2fScD8okNh6LQt1eaah4z+rXOIjp/7lM37y45M/svJfgPxpk64SsHcn+7ce5NKz19w+uYkdf/zBju1neKAxnC5ZlsBK85RnL7QorB1pWjuZSK9Q4qxKUuzNwSaVpFKFl5zz2MburR5Ep9ekVesahTJolRWfLLTE+/kSVawBTnY6BZRLfDQPPZjcqwtt241gQ8wLvCY1x7GhEw06ziMwzXB6wenvv9TRvzG0UytazzjNy79X06uxE44Nm9BzZWbflB7G0oFdaNNtAcGW3XAblMTigR1p2bYn8wJ12rJc8g8Ybj+V1ejc4hnLhnSkWdth/J7Sk0Uzu2GjWwf1bf+DpqB8r4l8Weown3VoTqPm7enz7a+cvpdRGw2WD1qeP7iA1+LPcXFuQpOPJuFd5gtmDc+2MiLX+JlgZWmG44RdBIcEE3h0Kwv/05Qst4gVpHzk1p/8UpSmx9w1fFnGhykft6Zpp9HsMhvFysktscz4AjZ1JTxHDWTJ7bZ81vQcX/eaxdn6PWlXWoH2RShLp++hxIR5jKxhTMm2k/lvxyv89MN+7shrEAShUCgkq+IUl57z7HkuUwtNLId2hdOgfw8qKsg4MF1K4nMwgEQARTnad3EgZusitkU+JCX1FQm3znEpLg81WVkT+yp3uHxTi2XNGqhirpKQ/azuP8KEmsNm8KmFO2s94zI6q1shhCS34pO+tbBUgLGNEyPH9aCSSoVKt8HSJhC4Zgoz9sbI7NTzQEol8nQkNdoPpatzIn5+D9Dt1VQOLnQ08uNk1GviT/twpYEr7bOs0XHi2wP+hAQGEBIYwJnlOay7z3X/FZTp/h2jFFv4OTMmuZKk9884y2RkV40KD2K4keMydCOaz/Th7+gIgvZNwOyvsXy79z4aJMwszFGkJJGs+/XXKSSrzbF8c3bZQPzAhE4LQ7lyKZqoMzv50tKD+Zsu8Fr3K7nGp4DMzDF7lcJLZVWGzBhC8vqfcb/+gpdG5phnWxatvnOdW1IlqpYvhFF6JoPHP2AoPgbrH+Q/fnmIT37IyX+R5s8QlRHK9HTSFSWo1dKe9HNBXE94TbrS6F37o33NvQtRxL/WQvpzbl64zuvydpQuhCsPcuKTnTYlkedqCyx1b1wpqvgUVGH0X2+lcHrjesKfa0D9mtdZVgrJyH9u7af2OT6bNnP+uRrtq9sc3OhFQvP2NNY98S5n+x8kLS/u3uVF5ZZ0c66ClZRGwu1bPM7DjEx9K5AjYXd5kQ7qZ1EcPBlD2crls01WcovfCzynutKpY3uat2hPn5k+lPx0JYsGZS4Th0IsHz31J58Utp0Y0DqOrYu2cf5ZOtpXtzn01wnUHbvglNk+pN+I5uKL5zx4kMids+HcT4nnUaIFxYtl1MaX0b8z7Q8Nny36lVWzGhMwex7HHstvDwShMCi0yUkkUZySb0/TZaflmfcuTpTpQ9/aSpTVXXAxP4FHaOasXyqBTQkND+8/1j+QzYlkheuP7hw9vJQBFRozaedBDkxrTfnuC/D0WEifolmEmgtTagxYyO+fpvPrpBWEvhn9pkayctIa4j9aitfpUxz9bQQmEUHcf/yQR3loMAtEgpQwPy41GU4/Ajh1W7e5U1HPtRN2Zfuw0scP/70TaVS8GV3avbkSBqRHs350f3r16UuvPn3p9+MJ2ZNBqZQLU74ozo6f95J5MqsISJhYWKBMSSY5x/1KI2ReR+o2HMjaGCusNM94oQXQkpKUjMbcEp1VimBigYUyhRdvNqY3fvDmnoza9o7Uc+7J9PMtWPL7WOwLYTBsUEoSKabFqNV/Gp8ptjB/z100ZhaYpb8kJXtnpU4hJdUUc7MchzT5Yvj4B/3xkVH/CiIv8ckHw/kv4vwZkp5GusqYEnWcsZeiOXs5Ea3KGJVG956XV7xM0Wl9XybzSjLBtBAmK4bj8z7Jyhpr1XOeyW1k/jcVpP/KTn2fm3eLoFPQJPBYZ3SuffqYJ8oSWGcu5THIoguLT2WcqAoJDCBg+zjq5uV8h6HfG0ovEC2Jvj8yZLo/tiPWcvTwemYOcKSE7OooUdxxIDNXbeWAhzsH3feybmRtjCSZsQO0L5/xJEWNVvuKuLObWb7/MU4dWlDizSYKWj5v5FZ/DMVXT7pkWwYb45qM3uxLgL8fAf5+nF7dh1IqC6wyHyKkTUkiWQsajZrkpGS0aNBodVdQpBGzZyN+1s2of28nG4KeZ72fSc/fL5R0QQBU2sRoLty1o3Wr8vwWczfnBvtVGDs90lnVtxk+zzqgOv4jkW/W/GsTSUhU4FS6FAru5/z73GhfcHx2H3xbzsazdwC9p0XRd/1KSi4cwuor2QeURUiywGHkMn4d+prfxn7Djmu6p/e1pFzZx6xP92X+W0XtL3cw7Pw6/i6EwZJsSUEcPBiO9v4JYtQ27/5fVQ/XDhZ4zejLz8GvAQUVB61mvWs7Srnv5wkAaSQ+juNhXEbpGD17KbucjBq74mLXlI89L/C9zv97nevKmv79WVko5aQlNeUlGnNz9C61T73ExhWn8Jg9gQ4nZuCdoCU15gq3yzTGoZRE1KOMJtS4tgM1X11l7z01VMn8bW7xy0JDWuIdzuw7ye2hLalfQuJSrjfQFA71gxhuGE1klttFVgzeznU1mNW2p0rsjfcvs6sssTRO4W7OM7p8kXX8v5VDfBL017+Chi9P8ckHg/k3cHwVNH+GaJOekqhoSrNmjznnEc1zDaisbSj2IoEXGsiYMZliZq6AN3tvZoGp9jWvchj35JXB+LxHQen2nXCMD2dNlnWU/1J56b+kHJbAZqFBUxRZVpSktK0RZJ6Tl6xtKaVO4GmSzMqXcpp5g/q+XRaoTU/mSV7209DvDaUXWCr3g7cyJ3gHKxwG8t9VvzHnRVcmHc32IJacyse0FVNWjMJk2TiGet0kWa2g0sjN7LXP/kX51OlqtOlp766QFLR83sql/hiKr550bfwjnryOYEuf0ezMobEyhoxmIzNJmzWiGSQrmn3lRuur+zhe+j/M6OXLV+6x7/Kv5+8XSrogAArUMezZGIjdF4v4vocjFa1LYlupLs5Nq+oMHNVc27+Xu23G8K2LGq9Dl99VVE0sfr4x2A+fSF97a4yVRliWqYmDndxHHyqwqVqJhOs3SVVWo2a5O1wrjFGIXFIJmo7/jd+HJLNmwkw87ikwNzfH3MwE5ZsMKFWoJFCYlaFh31ks/OQVGzeczvrkFsmaNl8vZl6/akXzUADtc3wWjWHStqtZLiOr6nWmk6kvB07GEh8fT3z8Iy4c8uK6kyvtS8krASDX/U89PpmGDg7Uts/4OH7pwdPoFXRr2KeQJioZUu/c5GHZ6lQzyZ6iS0ui/1rWxrTF7fMGmAHqG57si3Jg9LT+1LOxpFil1oyf2AO11z6CUnR/mnP8slNaVMC5nys1Hl/liu4dxLnEp8BehXP4xCPSYoIIfqzCqlIbJkzoSNzRE9zMtqPKyjWoor7Fjfv6cpBHso7/d7LHR3b9y2/88hCffDGQ/yLPnyHpD7l1Kxn1s1jiUhQYFauEYxM7Um7cJPFN9ZRMqOhYj1LGEiiLUaVedYxjbxXOlV8D8XlHwsiqAk69prLSrRZBqzYTqfv3iyo+BSWz/0p9Ek9ShUY0q2gCKDA2NZbZv2UqSP6lYnQYMZR6VgowqUj3EV0pHuTDWd1bGvRtX/uKhLg4HmZ+4p4kkafzbIZ+byi9QBSUr+9MHRtTFKhJjL3Bw2QlJsZZpyW5lo9RCUpaJPHg9mNS1EosqrgwqnfmkyR15RY/pR2tujlTq2xxzEyLY9diJBP72RB8PDjz6j4FLx9DDMVXT7rmkTf7Q6oz0q0n9tZGgAIT62o0c6qM3q72LYlSHaYxv/M1Fkyfy8zp+7Cd+BMjauhcttXz9wslXRAABWh4eGg6/1lwnqqjV+N56jTee1fh5mKXpTJr4rzYdaEGTkleeGYZJai5tmky3x0xZejqI5wND8J723yGOlrKbMyVVKlelrvXY9HaVqdq4nVu5PSkpiIi2XRh/OeNsKnoylz3QCLPhmV8gtcxOHMZmlHLHzgVHkHk6V3M65rGjvET+ONqtpGAwgK7Bs1pXssm741Rvhnh2LkDZgHe6L5yQBN7Gu9bDfmovY3MMqBA+690HMvmAx64z2iLpf1n/HHAgwO/9ELn1S4Gqa8HE5zUmDaNDNwWrLmP+7IdpPafzOBqStDcY+fUybgbDWHdsTOc2TOTRlcXMn5pGLpzFf0y78m4GE2U/25mO11l4aRfOadbxAWIj35JnFnsxpK7bVh9MpiA3dNxODeX7/66mW1SpaBiS2fKXQhC3zMI8k7O8Z9bfPJQ//IdP7nxyS99+f8n8mdIKveDT3IusRJtB39K/z6tKBUXQGBUwrtzoOp7XIkxx6nPUAYO742j8VUCA66T4+1feaYvPplUTfnB+zznT+/ilwHW+M0cyRTPh1mvUhRZfApKXv+VFrqBuR5GjNzuR3iIP0d/aIeVBEq7Qaw6dIIzR2bgbObIpL2n8D24hAGVsjV+evJvsP1MC+IvL1um7PIlzH8nX1gdZMpPR3iiexJcz/b1U1JrxK8cPnmUH9uZUWfsFnyO7WN2R7knG4uaRDHHwfyy6yShoaGEeM6hTvgClh7Xqf/kXj4k+bJuzR06rPEhPNibXVNrE+oZnPV+RNATPwVl233Nmr0nCA3zZc+cdjz9YwLTPHTu3yxA+ciuP/mliePA9xPY9LIHC/f7E3E2kFM75jO8ofX7V6FyoCzfk//+4ETAnJ84+ljDq4vrmb5J4vMF42hQOA8rEwRZpOq1audw3S8HUil6r9pLN99BjN33KKeLhYJQAEpqjdvBn3W30HuiZ5Evr/ngGNfDbfdybFf0Ybrvh/UOBEEQBEEQhPySM7kGJEo0H8Oo2v5sOyYmKkJRUHN1y3z2lxvF+Bb/lrN6/xYqqg5yw/XGUlacFhMVQRAEQRD+/zB4ZUVZZRjr/hiLgzqGfXOnsNQ/Xv9NiIIgCIIgCIIgCIXA4GRFEARBEARBEAThf4PMZWCCIAiCIAiCIAj/LDFZEQRBEARBEAThX+l/AGgxzKehEEtJAAAAAElFTkSuQmCC;" vertex="1" parent="1">
          <mxGeometry x="8" y="230" width="811" height="239" as="geometry" />
        </mxCell>
        <mxCell id="56YLLE8MOA0f97V5fTOW-2" value="" style="rounded=1;whiteSpace=wrap;html=1;fillColor=none;strokeColor=#FF0000;strokeWidth=3;" vertex="1" parent="1">
          <mxGeometry x="390" y="270" width="60" height="20" as="geometry" />
        </mxCell>
        <mxCell id="56YLLE8MOA0f97V5fTOW-3" value="" style="rounded=1;whiteSpace=wrap;html=1;fillColor=none;strokeColor=#FF0000;strokeWidth=3;" vertex="1" parent="1">
          <mxGeometry x="320" y="270" width="70" height="20" as="geometry" />
        </mxCell>
        <mxCell id="56YLLE8MOA0f97V5fTOW-4" value="" style="rounded=1;whiteSpace=wrap;html=1;fillColor=none;strokeColor=#FF0000;strokeWidth=3;" vertex="1" parent="1">
          <mxGeometry x="610" y="270" width="20" height="20" as="geometry" />
        </mxCell>
        <mxCell id="56YLLE8MOA0f97V5fTOW-8" style="edgeStyle=orthogonalEdgeStyle;rounded=0;orthogonalLoop=1;jettySize=auto;html=1;exitX=0;exitY=0.5;exitDx=0;exitDy=0;entryX=0.5;entryY=0;entryDx=0;entryDy=0;fillColor=#f8cecc;strokeColor=#b85450;strokeWidth=3;startArrow=classic;startFill=1;endArrow=none;endFill=0;" edge="1" parent="1" source="56YLLE8MOA0f97V5fTOW-5" target="56YLLE8MOA0f97V5fTOW-2">
          <mxGeometry relative="1" as="geometry" />
        </mxCell>
        <mxCell id="56YLLE8MOA0f97V5fTOW-5" value="A" style="rounded=1;whiteSpace=wrap;html=1;fillColor=#d80073;strokeColor=#A50040;fontColor=#ffffff;" vertex="1" parent="1">
          <mxGeometry x="430" y="180" width="51" height="25" as="geometry" />
        </mxCell>
        <mxCell id="56YLLE8MOA0f97V5fTOW-7" style="edgeStyle=orthogonalEdgeStyle;rounded=0;orthogonalLoop=1;jettySize=auto;html=1;exitX=0;exitY=0.5;exitDx=0;exitDy=0;entryX=0.25;entryY=1;entryDx=0;entryDy=0;fillColor=#f8cecc;strokeColor=#b85450;strokeWidth=3;startArrow=classic;startFill=1;endArrow=none;endFill=0;" edge="1" parent="1" source="56YLLE8MOA0f97V5fTOW-6" target="56YLLE8MOA0f97V5fTOW-3">
          <mxGeometry relative="1" as="geometry">
            <Array as="points">
              <mxPoint x="338" y="501" />
              <mxPoint x="338" y="490" />
            </Array>
          </mxGeometry>
        </mxCell>
        <mxCell id="56YLLE8MOA0f97V5fTOW-6" value="65816: DH:DL+2" style="rounded=1;whiteSpace=wrap;html=1;fillColor=#d80073;strokeColor=#A50040;fontColor=#ffffff;" vertex="1" parent="1">
          <mxGeometry x="363" y="488" width="101" height="25" as="geometry" />
        </mxCell>
        <mxCell id="56YLLE8MOA0f97V5fTOW-10" style="edgeStyle=orthogonalEdgeStyle;rounded=0;orthogonalLoop=1;jettySize=auto;html=1;exitX=0;exitY=0.5;exitDx=0;exitDy=0;entryX=0.75;entryY=0;entryDx=0;entryDy=0;fillColor=#f8cecc;strokeColor=#b85450;strokeWidth=4;" edge="1" parent="1" source="56YLLE8MOA0f97V5fTOW-9" target="56YLLE8MOA0f97V5fTOW-4">
          <mxGeometry relative="1" as="geometry" />
        </mxCell>
        <mxCell id="56YLLE8MOA0f97V5fTOW-23" style="edgeStyle=orthogonalEdgeStyle;rounded=0;orthogonalLoop=1;jettySize=auto;html=1;exitX=0.25;exitY=1;exitDx=0;exitDy=0;entryX=1;entryY=0.5;entryDx=0;entryDy=0;fillColor=#f8cecc;strokeColor=#b85450;strokeWidth=3;" edge="1" parent="1" source="56YLLE8MOA0f97V5fTOW-9" target="56YLLE8MOA0f97V5fTOW-21">
          <mxGeometry relative="1" as="geometry" />
        </mxCell>
        <mxCell id="56YLLE8MOA0f97V5fTOW-24" style="edgeStyle=orthogonalEdgeStyle;rounded=0;orthogonalLoop=1;jettySize=auto;html=1;exitX=0.5;exitY=1;exitDx=0;exitDy=0;entryX=1;entryY=0;entryDx=0;entryDy=0;fillColor=#f8cecc;strokeColor=#b85450;strokeWidth=3;" edge="1" parent="1" source="56YLLE8MOA0f97V5fTOW-9" target="56YLLE8MOA0f97V5fTOW-22">
          <mxGeometry relative="1" as="geometry">
            <Array as="points">
              <mxPoint x="720" y="376" />
              <mxPoint x="630" y="376" />
            </Array>
          </mxGeometry>
        </mxCell>
        <mxCell id="56YLLE8MOA0f97V5fTOW-9" value="Memory writes silently blocked!" style="rounded=1;whiteSpace=wrap;html=1;fillColor=#f8cecc;strokeColor=#b85450;" vertex="1" parent="1">
          <mxGeometry x="670" y="177.5" width="100" height="30" as="geometry" />
        </mxCell>
        <mxCell id="56YLLE8MOA0f97V5fTOW-15" style="edgeStyle=orthogonalEdgeStyle;rounded=0;orthogonalLoop=1;jettySize=auto;html=1;exitX=0.5;exitY=1;exitDx=0;exitDy=0;entryX=1;entryY=0.5;entryDx=0;entryDy=0;fillColor=#f8cecc;strokeColor=#b85450;strokeWidth=3;startArrow=classic;startFill=1;endArrow=none;endFill=0;" edge="1" parent="1" source="56YLLE8MOA0f97V5fTOW-11" target="56YLLE8MOA0f97V5fTOW-12">
          <mxGeometry relative="1" as="geometry" />
        </mxCell>
        <mxCell id="56YLLE8MOA0f97V5fTOW-11" value="X" style="rounded=1;whiteSpace=wrap;html=1;fillColor=#d80073;strokeColor=#A50040;fontColor=#ffffff;" vertex="1" parent="1">
          <mxGeometry x="500" y="180" width="51" height="25" as="geometry" />
        </mxCell>
        <mxCell id="56YLLE8MOA0f97V5fTOW-12" value="" style="rounded=1;whiteSpace=wrap;html=1;fillColor=none;strokeColor=#FF0000;strokeWidth=3;" vertex="1" parent="1">
          <mxGeometry x="390" y="339.5" width="60" height="20" as="geometry" />
        </mxCell>
        <mxCell id="56YLLE8MOA0f97V5fTOW-13" value="" style="rounded=1;whiteSpace=wrap;html=1;fillColor=none;strokeColor=#FF0000;strokeWidth=3;" vertex="1" parent="1">
          <mxGeometry x="390" y="394" width="60" height="20" as="geometry" />
        </mxCell>
        <mxCell id="56YLLE8MOA0f97V5fTOW-14" value="" style="rounded=1;whiteSpace=wrap;html=1;fillColor=none;strokeColor=#FF0000;strokeWidth=3;" vertex="1" parent="1">
          <mxGeometry x="260" y="339.5" width="60" height="20" as="geometry" />
        </mxCell>
        <mxCell id="56YLLE8MOA0f97V5fTOW-17" style="edgeStyle=orthogonalEdgeStyle;rounded=0;orthogonalLoop=1;jettySize=auto;html=1;exitX=0.5;exitY=1;exitDx=0;exitDy=0;entryX=1;entryY=0;entryDx=0;entryDy=0;fillColor=#f8cecc;strokeColor=#b85450;strokeWidth=3;startArrow=classic;startFill=1;endArrow=none;endFill=0;" edge="1" parent="1" source="56YLLE8MOA0f97V5fTOW-16" target="56YLLE8MOA0f97V5fTOW-13">
          <mxGeometry relative="1" as="geometry">
            <Array as="points">
              <mxPoint x="585" y="377" />
              <mxPoint x="450" y="377" />
            </Array>
          </mxGeometry>
        </mxCell>
        <mxCell id="56YLLE8MOA0f97V5fTOW-16" value="Y" style="rounded=1;whiteSpace=wrap;html=1;fillColor=#d80073;strokeColor=#A50040;fontColor=#ffffff;" vertex="1" parent="1">
          <mxGeometry x="559" y="180" width="51" height="25" as="geometry" />
        </mxCell>
        <mxCell id="56YLLE8MOA0f97V5fTOW-19" style="edgeStyle=orthogonalEdgeStyle;rounded=0;orthogonalLoop=1;jettySize=auto;html=1;exitX=1;exitY=0.5;exitDx=0;exitDy=0;entryX=0.5;entryY=1;entryDx=0;entryDy=0;fillColor=#f8cecc;strokeColor=#b85450;strokeWidth=3;endArrow=none;endFill=0;startArrow=classic;startFill=1;" edge="1" parent="1" source="56YLLE8MOA0f97V5fTOW-18" target="56YLLE8MOA0f97V5fTOW-14">
          <mxGeometry relative="1" as="geometry">
            <Array as="points">
              <mxPoint x="290" y="501" />
            </Array>
          </mxGeometry>
        </mxCell>
        <mxCell id="56YLLE8MOA0f97V5fTOW-18" value="65816: DBR" style="rounded=1;whiteSpace=wrap;html=1;fillColor=#d80073;strokeColor=#A50040;fontColor=#ffffff;" vertex="1" parent="1">
          <mxGeometry x="189" y="488" width="71" height="25" as="geometry" />
        </mxCell>
        <mxCell id="56YLLE8MOA0f97V5fTOW-21" value="" style="rounded=1;whiteSpace=wrap;html=1;fillColor=none;strokeColor=#FF0000;strokeWidth=3;" vertex="1" parent="1">
          <mxGeometry x="610" y="339.5" width="20" height="20" as="geometry" />
        </mxCell>
        <mxCell id="56YLLE8MOA0f97V5fTOW-22" value="" style="rounded=1;whiteSpace=wrap;html=1;fillColor=none;strokeColor=#FF0000;strokeWidth=3;" vertex="1" parent="1">
          <mxGeometry x="610" y="394" width="20" height="20" as="geometry" />
        </mxCell>
        <mxCell id="56YLLE8MOA0f97V5fTOW-25" value="Register readout&lt;br&gt;interpretation:" style="text;html=1;align=center;verticalAlign=middle;whiteSpace=wrap;rounded=0;fontStyle=1;fontColor=#FF0000;" vertex="1" parent="1">
          <mxGeometry x="230" y="175" width="140" height="35" as="geometry" />
        </mxCell>
        <mxCell id="56YLLE8MOA0f97V5fTOW-26" value="Additional registers&lt;br&gt;in the 65816 CPU:" style="text;html=1;align=center;verticalAlign=middle;whiteSpace=wrap;rounded=0;fontStyle=1;fontColor=#FF0000;" vertex="1" parent="1">
          <mxGeometry x="30" y="478" width="130" height="35" as="geometry" />
        </mxCell>
      </root>
    </mxGraphModel>
  </diagram>
</mxfile>
